<svg version="1.2" xmlns="http://www.w3.org/2000/svg" viewBox="0 0 237 237" width="237" height="237"><defs><clipPath clipPathUnits="userSpaceOnUse" id="cp1"><path d="m-155-10660h1920v16453h-1920z"/></clipPath></defs><style>.A{fill:#fff;stroke:#707070}.B{fill:#2d2d2d}</style><g clip-path="url(#cp1)"><circle class="A" cx="118.5" cy="118.5" r="118.5"/><path fill-rule="evenodd" class="B" d="m54.3 140.8c-0.2 1.3 0.7 0.6-1 0.8c0 0-1.2 0-1.4 0h-7.8c-2.1-1.2-1.7-2.2-1.7-5c0-2-0.4-4.7 0.7-6.1c0.8-0.7 1.3-0.7 2.7-0.7c0.8-3-0.8-7.5 1-10.1c0.2-0.3 1.2-1.3 1.6-1.8c1.1-0.9 3-1.9 4.5-2.6c1.6-0.9 3.2-1.5 5-2.2c3.5-1.3 7.3-2.4 11.1-3.4c6.2-1.6 4.4-0.4 7.4-3.4c0.6-0.7 1.2-1 1.8-1.7c3.7-3.7 6.1-6.7 9.9-10.1c1.2-1.1 2.7-3.1 4.4-4.3c2.7-1.8 9.9-1.1 13.5-1.1q3.6 0 7.2 0c2.7-0.1 4.3 0.9 4.3 2.6v38.1h26.2c-1.3 2.5-3.3 5.1-2.2 11.8h-57.7c1.8-9.9-5-18.2-14.4-18.3c-7-0.1-12.6 4.4-14.6 10.2c-0.7 2-1.1 5.2-0.5 7.3zm76.1-29.9h-9.9v-21.2c0-1.3 1-2.3 2.3-2.3h5.2c1.4 0 2.4 1 2.4 2.3zm53.7 30.7h-13.1c0.3-2.3 0.5-4.3-0.1-6.6q-0.3-1.3-0.8-2.6c-0.2-0.5-0.3-0.7-0.6-1.2c-0.5-0.8-0.4-0.5-0.7-1.4l15.3 0.1c0.7 0 1.5 0.5 1.6 2.1c0.2 1.1 0.1 2.6 0.1 3.7c0 3 0.1 5.4-1.7 5.9zm-52.2-31.9v-5.7c8.1-5.5 16.6-12.2 24.5-18c0.9-0.7 1.3-1 2.1-1.6c0.7-0.5 1.5-1.1 2.1-1.6c-4.6 1.7-9.5 3.2-14.2 4.8c-2.2 0.8-13.3 4.8-14.5 4.8c0-1.2-0.2-2.2 0.3-3c1.1-0.1 25.9-8.6 29-9.7c2.6-0.9 7.9-2.2 8.8-3.9c1.6-0.8 3.3-1 4.1 0.8c0.9 2-0.8 2.7-1.7 3.6v4.4c4.8 1.8 2 5.2 1.6 6c0.7 0.9 2.6 1.5 3.7 3.4c1.7 3 0.7 6.7-2.5 8c-2.5 1.1-6.3-0.2-7.3-2.9l-1.2-3.2c0-0.2-0.4-0.6 0-1.3c1.7-0.4 2.6 2.2 4.9 3.9c2.5 1.9 5.1-1.3 2.5-3.5c-0.6-0.6-1.9-1.2-2.6-1.7c-1.7-1-1-1.1-1.8-2.9c-0.2-0.6-3.1-3.8 1.6-5.8l0.1-3.7l-4.9 3.8c-0.7 0.2-5.3 3.6-5.9 4.2c-0.9 0.7-27.9 20.6-28.7 20.8zm38.4-21c1.4 2.4 4.8-0.1 3-2.1c-0.7-0.8-0.6-0.2-1.6-0.3c-0.8-0.1 0.1-0.3-0.6-0.1c-0.7 0.2-1.4 1.6-0.8 2.5zm-12.5 62.6c-7 0.8-13.5-4.1-14.5-11.2c-0.7-5.2 1.8-10.2 6.2-12.9c4.7-2.9 10.7-2.2 14.6 0.8c3.3 2.6 5.1 5.7 5 10.9c-0.1 6.4-4.9 11.7-11.3 12.4zm-8.1-11.6c1.7 8.5 14.8 6.1 13-2.7c-1.7-8.5-14.7-5.9-13 2.7zm-78.2 11.5c-9.1 1.7-17.1-6.5-15.2-15.4c1.1-4.7 4.1-8.4 8.9-9.9c2.4-0.7 5.5-0.7 8 0.1c7.4 2.5 11.1 10.7 7.7 18c-1.7 3.8-5.3 6.5-9.4 7.2zm-0.7-19.2c-4-1.1-7.3 1.6-8.1 4.6c-1.1 4.1 1.6 7.3 4.6 8.2c8.3 2.4 12.3-10.4 3.5-12.8zm110.5-19.1c0.9 0.9 0.9 1.3 0.9 2.8v12.6c-3.8 0.1-7.7 0-11.5 0c-6.4 0-1.3-0.2-7.9-3.5c-2.9-1.4-6.3-1.9-9.7-1.2c-3.7 0.8-5.5 2.4-7.7 4.1q0.1 0.1 0 0.1c0 0.7-1 0.5-2.3 0.5c-1.1 0-2.2 0-3.2 0c-4.7 0-16 0.3-19.3 0v-15.4c0.2-0.7-0.2-0.2 0.6-0.4c6.1 0.1 58.6-0.4 59.4 0.2q0.4-0.1 0.7 0.2zm-96.8-4.7c1.2 0.6 17 0.2 19.9 0.2c3.7 0 6.9 1 7-3.1c0.1-11.5 1.2-10-10-10c-3.7 0-5.6 0-7.6 2.4c-1.4 1.6-9.9 8.6-9.3 10.5z"/></g></svg>