<svg version="1.2" xmlns="http://www.w3.org/2000/svg" viewBox="0 0 86 85" width="86" height="85"><defs><clipPath clipPathUnits="userSpaceOnUse" id="cp1"><path d="m-66-6568h960v6957h-960z" /></clipPath></defs><style>.s0{fill:#ffffff}.s1{fill:#ef7f1a}.s2{fill:#fefefe}.s3{fill:#042b66}.s4{fill:#ebecec}</style><g clip-path="url(#cp1)"><path class="s0" d="m32.1 22.2l-0.5-0.5l-1.3-1.2c3.7-2.2 7.9-3.4 12.6-3.4c4.5 0 8.8 1.2 12.4 3.3v0.1l-0.5 0.5l-1.3 1.2c-3.1-1.7-6.9-2.6-10.7-2.6c-3.9 0-7.5 0.9-10.7 2.6zm10.8-5.8c-4.8 0-9.3 1.2-13.1 3.4l-1.9-1.8c4.4-2.7 9.4-4.3 15-4.3c5.4 0 10.5 1.6 14.9 4.2l-1.1 1.1l-0.1 0.2c-0.2 0.2-0.4 0.5-0.6 0.7c-3.9-2.3-8.4-3.5-13.1-3.5zm0-3.1c-5.6 0-10.8 1.6-15.3 4.4l-3.6-3.7c0.6-0.4 0.4 0.1 1 0c0.8-0.2 0.4-0.6 0.6-1c0.1-0.3 0.7-0.6 1-0.7c2.6-1.4 1.4-0.1 2.5-0.5c1.1-0.3-0.8-0.5 1.9-1.5c1.9-0.7 1 0.2 2.5-0.2l0.3-0.7c0.6-0.1 1.1-0.3 1.9-0.4c1.8-0.5 0.6 0.5 1.7 0.3c1-0.2-0.5-1 3.6-1c0.3 0.2 0.2 0.2 0.4 0.6l0.8-0.1l0.2-0.5c3.2-0.2 2.9 0 3.4 0.7c0.9 0.1 0.7 0.1 1.1-0.5c0.7 0 1.3 0.2 1.9 0.3c1.3 0.2 0.9 0 1.3 0.9c2.2 0.3-0.8-1.2 4 0.4c0.2 0.6-0.1 0.7 0.4 0.9c0.7 0.3 0.6-0.1 1-0.2c0.3-0.1 1.4 0.5 1.7 0.7c1.8 0.8 0.6 0.7 1.3 1.3c0.8 0.6 0.5-0.5 1.7 0.3c0.4 0.1 1.1 0.6 1.5 0.9q-0.4 0.4-0.8 0.8q-0.7 0.6-1.4 1.3l-1.5 1.5c-4.3-2.7-9.6-4.3-15.1-4.3zm22.3 42.2h3q-0.4 0.9-1.1 1.8c-0.4-0.4-0.9-0.8-1.2-1.2c-0.3-0.3-0.5-0.4-0.8-0.6zm3.4 0h5.6c0 0.1 0 0.2-0.1 0.3c-1.4 3-1.2 1.5-1.8 2.3c-0.3 0.2-0.2 0.4-0.1 0.8c0.2 0.6-0.4 1.2-0.7 1.7c-0.2 0.2-0.3 0.5-0.4 0.6l-3.7-3.6c0.4-0.7 0.9-1.4 1.2-2.1zm0.2-26c-0.4-1-1-1.9-1.6-2.9c0.5-0.5 1-1 1.5-1.5c0.7-0.7 1.4-1.4 2.1-2.1h0.1c0 0 0 0 0 0c0.8 1.2-0.4 1.6 0.6 1.9c0.4 0.2 0.7 0.2 1 0.6c1.7 2.9 0.3 2 0.9 3.3c0.6 0.2 0.7 0 0.9 0.7zm-0.4 0h-3c0-0.2-0.2-0.5-0.3-0.7c0-0.1 0-0.1 0.1-0.1l0.3-0.1l0.3-0.5c0.3-0.3 0.6-0.7 1-1.1l0.2-0.1c0.5 0.9 0.9 1.7 1.4 2.6zm-3.8 0h-0.1l0.1-0.1zm-10.2 33.2c0.2 0.2 0.5 0.5 0.9 0.8c0.1 0.2 0.2 0.4 0.3 0.5c-3.7 2.3-8.1 3.5-12.7 3.5c-4.7 0-9.2-1.3-12.9-3.6c0.2-0.2 0.5-0.5 0.8-0.8l0.4-0.2l0.2-0.5c0.1-0.1 0.2-0.1 0.4-0.3c3.3 1.8 7 2.9 11 2.9c4 0 7.8-1.1 11.1-2.8q0.2 0.2 0.5 0.5zm-11.5 5.5c4.8 0 9.4-1.3 13.2-3.6c0.6 0.7 1.2 1.3 2 1.9c-4.4 2.7-9.7 4.3-15.2 4.3c-5.7 0-11-1.6-15.4-4.4c0.3-0.3 0.5-0.6 0.8-0.8c0.4-0.4 0.7-0.8 1.1-1.1c4 2.4 8.5 3.7 13.5 3.7zm0 3.1c5.7 0 11-1.7 15.4-4.6c0.6 0.5 1.1 1 1.5 1.4c0.7 0.7 1.6 1.5 2.3 2.3c-1.3 0.9-0.8 0.1-1.6 0.2c-0.3 0.1-0.4 0.3-0.5 0.7c-0.1 0.6 0.2 0.3-0.4 0.7c-0.5 0.2-1.3 0.7-1.7 0.9c-0.8 0.3-1.4-0.8-1.7 0.3c-0.4 0.8-0.9 0.8-1.8 1.1c-1.9 0.8-1.4-0.4-2.2 0.1c-0.7 0.4 0.5 0.6-2 1.1c-2.1 0.6-0.9-0.3-2.5-0.1c-0.3 0.6 0.1 0.7-0.9 0.8c-3.1 0.3-2-0.1-2.7-0.4c-0.8-0.3-0.8 0.2-1.1 0.5l-2.9-0.1c-0.2-0.4-0.1-0.7-0.8-0.7c-0.7 0-0.3 0.1-0.8 0.7l-2.8-0.6c-0.2-0.4-0.1-0.8-0.7-0.8c-1.3 0 0.6 1-3.6-0.3c-0.3-0.7 0.2-0.7-0.5-0.9c-1.1-0.6 0.3 0.9-2.7-0.5c-1.2-0.6-0.7-0.3-1-1.1c-1.2-1-0.5 0.4-1.9-0.5c-0.7-0.3-1.4-0.7-1.7-1.1c0.6-0.8 1.3-1.4 1.9-2c0.6-0.6 1.2-1.2 1.7-1.8c4.6 3 9.9 4.7 15.7 4.7zm-22.6-41.8h-3c0.5-0.8 0.9-1.6 1.5-2.4l1.8 1.8c-0.1 0.2-0.1 0.4-0.3 0.6zm-3.4 0h-5.5c0-0.2 0-0.5 0.1-0.8c0.3-0.7 0.6-1.2 0.9-1.8c0.6-0.2 1-0.1 1-0.7c0.1-0.7-0.4-0.4 0.1-1.3c0.2-0.4 0.5-0.7 0.7-1.1c0.3-0.5 0.3-0.7 0.6-0.7c0.4 0.4 0.8 0.8 1 1.1l2.7 2.6c-0.6 0.9-1.1 1.8-1.6 2.7zm0.3 26c0.3 0.6 0.7 1.3 1 2l-3.7 3.7c-0.5-0.7 0-0.5 0-1.1c0-0.1-0.3-0.4-0.4-0.4c-0.7-0.6-0.5 0.3-1.4-1.4c-0.1-0.1-0.5-1-0.5-1.2c-0.2-0.9 0.4-0.1 0-1.4c-0.5-0.3-0.7-0.1-0.8-0.2zm0.3 0h3.1q-0.3 0.1-0.6 0.2c-0.2 0.2-0.2 0.3-0.3 0.5l-1.1 1.1c-0.4-0.7-0.7-1.3-1.1-1.8z" /><path fill-rule="evenodd" class="s1" d="m12.5 65.5c0.5-0.4 0.9-0.9 1.4-1.3l7-6.8c0.2-0.2 0.2-0.4 0.8-0.4c0.4-0.1 0.9-0.1 1.2-0.1c-0.1 0-6 6-6.4 6.4c-2.8 3.3 1.1 7.6 4.6 5.2l9.8-9.7c0.3-0.4 2.3-2.3 2.5-2.4c0.2-0.1 1.4-0.1 1.6-0.1c-3.5 3.6-7.2 7.2-10.7 10.8c-1 0.9-1.9 1.8-2.8 2.7c-0.5 0.6-2.6 2.5-2.8 2.9c-0.5 0.2-0.5 0.9-0.4 1.4c0.5 3.6-1.5 7.4-4.8 9c-3.4 1.7-7.7 1.1-10.3-1.7q-0.9-0.9-1.6-2.1c-1.6-3.4-1-6.9 1.2-9.8c0.6-0.8 2.1-1.9 3.1-2.4c1.2-0.5 3.2-0.8 4.7-0.6c1.2-0.1 1.3-0.5 1.9-1zm-7.2 13.9c0.2 0.2 3.9 1.7 4.1 1.7c0.2 0 3.9-1.5 4-1.7c0.2-0.1 1.7-3.9 1.7-4c0-0.1-1.5-3.9-1.7-4.1c-0.1-0.1-3.8-1.7-4-1.7c-0.2 0-3.9 1.6-4 1.7c-0.2 0.1-1.8 4-1.8 4.1c0 0.1 1.6 3.9 1.7 4z" /><path fill-rule="evenodd" class="s1" d="m6.9 0.6c2.4-0.3 4.7 0.1 6.8 0.9c1.3 0.5 2.4 1.2 3.1 2c1.1 1.5 1.1 2.7 1.6 3.7c0.4 2.1 1.5 5.1 3 6.7l8.9 9.1l6.3 6.5h-1.4l-5.8-5.8c-1.1-1.1-2.1-2.2-3.2-3.2c-1.1-1.1-5.2-5.6-6.4-6.1c-2.6-1.1-5.4 1.2-4.8 4c0.1 0.5 0.3 0.7 0.4 1.1c0.4 0.4 0.5 0.5 0.7 0.8l9.2 9.2h-1.6l-6.6-6.6c-1-1.1-1.9-2.2-3.1-2.7c-1.5-0.7-2.8-1.1-4.6-0.9c-1.6 0.1-3.2-0.4-4.6-1.2c-0.4-0.3-0.8-0.6-1.1-0.9c-1-0.8-4-5.7-3.7-6.5c0.5-1.1 2.2 0.1 2.5 0.3c1.1 0.5 2.1 1.2 3.2 1.8c1 0.5 1.5 1.2 3.4-0.1c1.5-1.2 2.1-3.2 2.1-5.3c0-0.8 0-1.5-0.6-1.8l-5.3-3.2c-1.4-0.9 0.7-1.7 1.6-1.8zm-3.5 12.8c0.9 0.8 2.1 1.7 3 2.5c0.3 0.3 0.4 0.4 0.8 0.3c5.8-0.6 8-7.7 6.2-11.6c-0.2-0.4-0.3-0.4-0.6-0.4c-1.2-0.5-4.1-1.7-5.1-1.7c0.3 0 0.8 0.4 1.1 0.6c0.5 0.2 0.9 0.5 1.3 0.7l1.9 1.1c0.4 0.1 0.4 0.1 0.6 0.4c0.8 2.8-0.6 7-2.8 8.6c-0.5 0.3-1.8 1.2-2.7 1.2c-0.1 0-4-2.5-4.9-2.8c0.2 0.3 0.9 0.9 1.2 1.1z" /><path fill-rule="evenodd" class="s1" d="m67.7 5.5c0.4-1.1 1.1-2.5 3.1-3.6c2.3-1 4.8-1.6 7.5-1.3c1.1 0.1 1.4 0 1.8 0.4c1.1 1.2 0.8 0.9-2.5 3c-3.2 1.9-3.8 1.6-3 5.4c0.3 1.8 1.1 3 2.8 3.8c0.8 0.3 1 0.4 1.6 0c0.9-0.5 1.9-1 2.9-1.6c0.5-0.2 2.3-1.4 2.9-1.3c0.8 0.1 0.8 0.5 0.5 1.2c-1.7 3.6-3.1 7-7.8 7.7c-0.9 0.2-1.8 0-2.6 0c-1.2 0.1-3.2 0.7-4.1 1.3c-0.1 0.1-0.8 0.8-1.8 1.7l-7.2 7.3h-1.6l7.9-7.9c0.3-0.3 0.6-0.6 1-1c0.4-0.5 0.7-0.6 0.9-1c2.2-3.3-1.7-7-4.9-4.8c-0.3 0.2-1.7 1.6-3.4 3.3l-11.3 11.4h-1.5l13.3-13.6c0.7-0.8 2.1-2 2.6-2.8c1.8-2.6 2-4.8 2.9-7.6zm10.5 9.6c-1.5-0.1-3.4-1.9-4.2-3.5c-0.9-1.6-1.6-4.2-1-6.3c0.2-0.4 1.7-1.1 2.4-1.5l2.4-1.3c-0.6 0-2.6 0.8-3.3 0.9c-2.3 0.9-2.2 0.7-2.6 1.9c-1.3 4.6 1.3 10.2 6.3 10.9c0.7 0.1 0.8-0.2 1.5-0.7c0.6-0.6 3.1-2.5 3.6-3.2c-1.2 0.4-4.5 2.8-5.1 2.8z" /><path fill-rule="evenodd" class="s1" d="m65 68.8c0.5 0.3 1.1 0.5 1.8 0.4c2.8-0.3 4-3.4 2.6-5.4c-0.6-0.9-4.5-4.6-5.7-5.8c-0.2-0.3-0.9-0.9-1-1.1c0.3-0.1 0.7 0 1 0c0.6 0.1 0.6 0.2 0.9 0.4c0.5 0.5 0.8 0.8 1.3 1.3l5.1 5c0.5 0.4 0.9 0.8 1.3 1.2l1.3 1.3c1.3 1 2.5-0.3 5.7 1c7 2.6 7.4 12.7 0.7 16c-5.9 3-12.9-1.4-12.8-8c0-1.1 0.4-1.6-0.3-2.3c-0.9-1.1-1.9-2-2.9-3c-1-1.1-2-1.9-3-3l-10.5-10.5c1.9 0 1.5-0.2 2.4 0.7c0.5 0.5 0.9 1 1.5 1.5c1.2 1.2 9.7 9.9 10.6 10.3zm7.1 10.6c0.2 0.2 3.9 1.7 4.1 1.7c0.2 0 3.9-1.6 4-1.7c0.2-0.1 1.7-3.8 1.7-4c0-0.1-1.5-3.9-1.7-4.1c-0.1-0.1-3.8-1.7-4-1.7c-0.2 0-3.9 1.6-4 1.7c-0.2 0.1-1.8 4-1.8 4.1c0 0.1 1.6 3.9 1.7 4z" /><path class="s1" d="m27.3 29.5l-8.3-8.3c-0.6-0.6-2.5-2.2-2.7-3.1c-0.2-1.7 1.4-3.2 3.1-2.4c0.6 0.4 6.4 6.4 7.3 7.3c2.2 2.2 4.4 4.3 6.6 6.5z" /><path class="s1" d="m52.4 29.5l13.4-13.4c0.8-0.8 2.1-0.7 2.8 0c0.7 0.7 0.8 2 0.1 2.8c-0.6 0.8-5.2 5.3-6 6.1c-1.4 1.3-2.6 2.7-4 4c-0.1 0.2-0.3 0.4-0.4 0.5z" /><path class="s1" d="m29.7 58.1c-0.6 0.6-1.1 1-1.6 1.6c-1.1 1-7.4 7.5-8.1 7.9c-2 0.9-3.8-1.2-2.8-2.9c0.3-0.5 1.1-1.2 1.5-1.6c0.4-0.4 6.2-6.3 6.4-6.4l6.2-0.3c-0.3 0.4-1.3 1.3-1.6 1.7z" /><path class="s1" d="m55.3 57.5c-0.2-0.2-0.8-0.7-1-1.1l4.1 0.1c2.5 0.3 1.7-0.1 3.1 1.3l4.3 4.3q1 1 2.1 2.1c2.1 2.1-0.9 5-3 2.9c-3.2-3.1-6.3-6.4-9.6-9.6z" /><path class="s1" d="m69.2 9.7v0.3c-0.2 0.2-0.4 0.4-0.8 0.2c-0.1-0.5 0.3-0.6 0.8-0.5z" /><path class="s0" d="m45.3 22.8c1-0.3 3.6 0.6 6 1.8l-0.4 0.3c-0.6 0.6-1.3 1.3-1.9 2c-0.3 0.3-0.6 0.7-0.9 1h-0.1l-0.6 0.6c-0.7-0.4-1.6-0.6-2.2-0.6c0-1.2-0.2-4.2 0.1-5.1zm13.6 9.1c1.3 0.4 4.1 10.7 2.8 12.1c-0.7 0.3-4.5-0.7-5.5-1c-0.1-1.5-0.1-2.9-0.5-4.4c-0.2-0.6-0.4-1.1-0.5-1.7c-0.3-0.7-0.7-1.3-0.7-1.8c0.7-0.6 4-3.3 4.4-3.2zm-2.8 15.9l3.7 0.8c0.7 0.2 0.9 0.1 1.1 0.5c0.2 0.6-1 2.7-2.4 4.5h-6.4c-0.1-0.1-0.1-0.2-0.1-0.3c1.1-0.6 3.7-3.7 4.1-5.5zm-9.5 8.3c0.5 0.8 2.2 3.8 2.2 4.6c-1.5 1.3-10.1 1.6-11.6 0.3c-0.3-0.4 1.7-4.5 1.8-4.7c2.9 0.5 4.9 0.6 7.6-0.2zm-19.9-2.5c-0.9-1.2-2.2-3.1-2.1-4c0.4-0.3 3.9-1.2 4.7-1.3c0.4 0.4 0.7 1.2 1 1.6c0.4 0.6 0.8 1.1 1.2 1.6c0.5 0.5 1.4 1.6 2.2 2.1zm-2.8-8.6c-1-1.6 0.4-7.8 1.4-10.3c1.5-3.7 1-2.8 5.9 0.8c-0.2 0.6-0.6 1.2-0.9 1.8c-0.1 0.6-0.3 1.2-0.5 2c-0.3 1.5-0.5 3-0.4 4.6c-0.7 0.3-4.8 1.3-5.5 1.1zm10.3-20.7c2.1-1.1 4.3-1.8 5.4-1.5c0.3 1 0.2 3.8 0.2 5.1c-0.6 0-1.3 0.1-1.8 0.3z" /><path class="s2" d="m84.6 36.2v12.5c-1.4 0-2.6 0.5-3.6 1.4c-0.9 0.9-1.4 2.2-1.4 3.6h-73.6c0-2.8-2.2-5-5-5v-12.5c1.3 0 2.6-0.5 3.5-1.4c0.9-0.9 1.5-2.1 1.5-3.6h73.6c0 2.8 2.2 5 5 5z" /><path class="s3" d="m82.9 47.2c-2.3 0.6-4.1 2.5-4.7 4.8h-70.8c-0.6-2.3-2.5-4.2-4.8-4.8v-9.5c2.3-0.6 4.2-2.5 4.8-4.8h70.8c0.6 2.3 2.4 4.2 4.7 4.8z" /><path fill-rule="evenodd" class="s2" d="m61.1 47.7c-0.8 0-1.3-0.2-1.7-0.6c-0.4-0.4-0.7-1.1-0.7-2v-7.4l1.6-0.4v8c0 0.4 0.1 0.5 0.3 0.7c0.1 0.2 0.4 0.3 0.6 0.3q0.4 0 0.6-0.3c0.1-0.2 0.2-0.3 0.2-0.7v-7.6l1.5-0.4v7.8c0 0.9-0.1 1.6-0.6 2c-0.3 0.4-1 0.6-1.8 0.6zm-5.8 0c-0.8 0-1.3-0.2-1.7-0.6c-0.5-0.4-0.7-1.1-0.7-2v-5.3c0-0.9 0.2-1.5 0.7-2c0.4-0.4 0.9-0.6 1.7-0.6c0.8 0 1.5 0.2 1.8 0.6c0.5 0.5 0.7 1.1 0.7 2v0.3l-1.6 0.5v-1c0-0.6-0.2-1-0.8-1c-0.6 0-0.9 0.4-0.9 1v5.7c0 0.6 0.3 1 0.9 1c0.6 0 0.8-0.4 0.8-1v-2h-0.8v-0.7l2.4-0.8v3.3c0 0.9-0.2 1.6-0.7 2c-0.3 0.4-1 0.6-1.8 0.6zm9.4-10.4h2.4c0.8 0 1.4 0.2 1.8 0.6c0.4 0.4 0.6 1 0.6 1.8v0.6c0 1.1-0.3 1.7-1.1 2.1c0.4 0.1 0.8 0.3 0.8 0.7c0.2 0.3 0.3 0.9 0.3 1.4c0 0.3 0 2.4 0 2.6c0.1 0.2 0.1 0.4 0.2 0.5h-1.6c-0.1-0.1-0.2-0.3-0.2-0.5q0-0.1 0-0.8v-1.9c0-0.4-0.1-0.8-0.3-1c0-0.1-0.3-0.2-0.7-0.2h-0.6v4l-1.6 0.4zm2.2 4.5c0.3 0 0.6-0.1 0.7-0.3c0.2-0.2 0.3-0.4 0.3-0.9v-0.7c0-0.4-0.1-0.7-0.2-0.8c-0.1-0.2-0.3-0.3-0.6-0.3h-0.8v3zm6.1 6c-0.8 0-1.5-0.2-1.8-0.7c-0.5-0.4-0.6-1-0.6-1.9v-7.4l1.6-0.5v8.1c0 0.3 0.1 0.5 0.1 0.7c0.2 0.1 0.4 0.2 0.7 0.2c0.2 0 0.5-0.1 0.6-0.2c0.2-0.2 0.3-0.4 0.3-0.7v-7.6l1.5-0.5v7.9c0 0.9-0.2 1.5-0.7 1.9c-0.4 0.5-0.9 0.7-1.7 0.7z" /><path fill-rule="evenodd" class="s2" d="m12.6 47.7c-0.8 0-1.4-0.2-1.8-0.6c-0.4-0.4-0.6-1.1-0.6-2v-5.3c0-0.9 0.2-1.5 0.6-2c0.4-0.4 1-0.6 1.8-0.6c0.8 0 1.3 0.2 1.8 0.6c0.3 0.5 0.6 1.1 0.6 2v0.3l-1.5 0.5v-1c0-0.6-0.4-1-0.9-1c-0.6 0-0.8 0.4-0.8 1v5.7c0 0.6 0.2 1 0.8 1c0.5 0 0.9-0.4 0.9-1v-2h-0.8v-0.7l2.3-0.8v3.3c0 0.9-0.3 1.6-0.6 2c-0.5 0.4-1 0.6-1.8 0.6zm29.3 0c-0.7 0-1.3-0.2-1.8-0.6c-0.3-0.4-0.6-1.1-0.6-2v-5.3c0-0.9 0.3-1.5 0.6-2c0.5-0.4 1.1-0.6 1.8-0.6c0.8 0 1.4 0.2 1.9 0.6c0.3 0.5 0.5 1.1 0.5 2v0.3l-1.5 0.5v-1c0-0.6-0.3-1-0.8-1c-0.6 0-0.8 0.4-0.8 1v5.7c0 0.6 0.2 1 0.8 1c0.5 0 0.8-0.4 0.8-1v-2h-0.8v-0.7l2.3-0.8v3.3c0 0.9-0.2 1.6-0.5 2c-0.5 0.4-1.1 0.6-1.9 0.6zm-24.7-10.4h2.2l1.7 10.3l-1.6-0.4l-0.3-1.6h-1.8l-0.4 1.6l-1.4 0.4zm1.8 6.9l-0.7-5.1l-0.7 5.1zm4.2-6.9h2.2l1.7 10.4l-1.6-0.5l-0.4-1.6h-1.8l-0.3 1.6l-1.5 0.5zm1.8 6.8l-0.7-5.1l-0.7 5.1zm2.9-6.8h2.4c0.9 0 1.5 0.1 1.8 0.6c0.4 0.3 0.6 1 0.6 1.8v0.6c0 1.1-0.4 1.7-1.1 2c0.4 0.1 0.7 0.4 0.9 0.8c0.1 0.3 0.2 0.8 0.2 1.4v1.9c0 0.2 0.1 0.5 0.1 0.7c0 0.1 0 0.3 0 0.5h-1.6c0-0.2 0-0.4 0-0.5c-0.1-0.1-0.1-0.4-0.1-0.8v-1.9c0-0.5-0.1-0.8-0.2-1q-0.3-0.3-0.8-0.3h-0.6v3.5l-1.6 1zm2.2 4.5c0.3 0 0.6-0.1 0.7-0.3c0.2-0.2 0.3-0.5 0.3-0.9v-0.7c0-0.5-0.1-0.7-0.2-0.8c-0.2-0.2-0.4-0.3-0.6-0.3h-0.8v3zm5-4.5h2.3l1.6 10.3l-1.6-0.4l-0.3-1.6h-1.9l-0.2 1.6l-1.6 0.4zm1.8 6.9l-0.7-5.1h-0.1l-0.7 5.1zm8.6-6.9h4.4l-0.4 1.6h-2.4v2.6h2.2l-0.4 1.5h-1.8v3.2h2.8l-0.4 1.5h-4z" /><path class="s4" d="m5.9 41.1q0.4 0 0.8 0.3l-1.9 1.8c-0.1-0.2-0.1-0.5-0.1-0.7c0-0.7 0.5-1.4 1.2-1.4zm1.1 0.6q0.2 0.4 0.2 0.8c0 0.7-0.6 1.2-1.3 1.2c-0.3 0-0.5-0.1-0.7-0.2z" /><path class="s4" d="m79.6 41.1q0.5 0 0.8 0.3l-1.8 1.8c-0.2-0.2-0.3-0.5-0.3-0.7c0-0.7 0.6-1.4 1.3-1.4zm1 0.6q0.3 0.4 0.3 0.8c0 0.7-0.6 1.2-1.3 1.2c-0.3 0-0.6-0.1-0.7-0.2z" /><path fill-rule="evenodd" class="s0" d="m22.6 73.8l0.2 0.2l-0.6 2l1.5-1.4l0.3 0.2l-0.6 2l1.5-1.5l0.2 0.2l-1.7 1.6l-0.3-0.2l0.5-1.8l-1.5 1.2l-0.3-0.2zm3.6 3.5l-1.1-0.5l-0.5 1l-0.3-0.2l1.1-2.1l0.3 0.1l-0.5 0.9l1.1 0.5l0.4-0.8h0.3l-1.1 2.2l-0.2-0.2zm2.2-0.2l-0.9-0.3l-0.3 0.7l0.8 0.3l-0.1 0.3l-0.8-0.3l-0.3 0.7l0.9 0.3l-0.1 0.3l-1.2-0.5l0.9-2.2l1.2 0.6zm1.1 0.1c0.5 0.3 0.7 0.7 0.5 1c-0.1 0.3-0.4 0.5-0.7 0.5l0.2 1l-0.4-0.1l-0.2-1l-0.3-0.2l-0.3 0.9l-0.4-0.1l0.9-2.2zm-0.1 0.2l-0.4-0.1l-0.4 0.8l0.5 0.1c0.3 0.2 0.5 0 0.6-0.1c0.1-0.3 0-0.6-0.3-0.7zm2.3 0.8l-0.9-0.2l-0.3 0.7l0.9 0.2l-0.1 0.3l-0.8-0.3l-0.3 0.8l0.9 0.2v0.3l-1.2-0.4l0.7-2.2l1.2 0.4zm1 0l0.4 0.1l0.3 1.3l0.8-1l0.3 0.1l-1.1 1.2l-0.2 0.8h-0.3l0.2-0.9zm2.6 3c-0.7-0.1-1.1-0.7-0.9-1.4c0.1-0.7 0.7-1 1.3-0.9c0.6 0.2 1.1 0.7 0.9 1.4c-0.1 0.7-0.7 1.1-1.3 0.9zm0-0.3c0.5 0.1 1-0.1 1-0.7c0.1-0.5-0.1-1-0.6-1.1c-0.5 0-1 0.2-1 0.8c-0.1 0.5 0.1 0.9 0.6 1zm1.8-1.8l0.2 0.1l-0.2 1.5c0 0.4 0.2 0.6 0.6 0.7c0.3 0 0.6-0.2 0.6-0.6l0.2-1.5h0.2v1.5c-0.1 0.6-0.6 0.8-1 0.8c-0.6 0-0.9-0.4-0.8-0.9zm2.8 0.2q0.8 0.2 0.8 0.8c0 0.3-0.1 0.6-0.6 0.7l0.5 0.9h-0.3l-0.5-0.9h-0.4v0.8h-0.4l0.2-2.3zm0 0.3h-0.4l-0.1 0.9h0.4c0.4 0 0.6-0.2 0.6-0.5c0-0.2-0.1-0.4-0.5-0.4zm3.1-0.2c0.6 0 0.9 0.3 1.1 0.7h-0.4c0-0.2-0.3-0.4-0.7-0.4c-0.4 0-0.9 0.3-0.9 1c0 0.5 0.4 0.9 0.9 0.9c0.4 0 0.6-0.2 0.7-0.5h0.4c-0.2 0.5-0.5 0.7-1.1 0.7c-0.6 0-1.1-0.5-1.1-1.1c0-0.7 0.5-1.3 1.1-1.3zm2.9 1.8h-1l-0.2 0.5h-0.3l0.8-2.3h0.3l0.9 2.2h-0.2zm-0.6-1.4l-0.3 1.2h0.8zm1.9-0.6c0.6 0 0.9 0.2 0.9 0.6c0 0.3-0.1 0.6-0.5 0.7l0.7 1h-0.4l-0.6-0.9h-0.3v1h-0.3l-0.2-2.4zm0 0.2l-0.4 0.1l0.1 0.9l0.4-0.1c0.4 0 0.5-0.2 0.4-0.4c0-0.3-0.1-0.5-0.5-0.5zm2-0.4l0.2-0.1l1.3 1.7l0.4-2.1l0.4-0.1l0.4 2.4h-0.3l-0.3-1.7l-0.4 1.8l-0.2 0.1l-1.2-1.6l0.4 1.7l-0.3 0.1zm4.5 0.8l-1 0.2l-0.1 0.6l-0.3 0.1l0.3-2.5l0.3-0.1l1.4 2.1l-0.4 0.1zm-0.8-1.3l-0.1 1.3l0.8-0.3zm0.9-0.7l1.6-0.5v0.2l-0.6 0.2l0.6 2l-0.3 0.1l-0.6-2l-0.7 0.2zm1.6-0.6l1.5-0.5l0.1 0.2l-0.7 0.2l0.7 2l-0.2 0.1l-0.7-2l-0.7 0.2zm3.1-1l-0.9 0.4l0.2 0.7l0.9-0.3v0.2l-0.8 0.4l0.4 0.7l0.9-0.4l0.1 0.3l-1.2 0.4l-0.9-2.1l1.2-0.5zm0.9-0.7c0.4-0.2 0.8-0.1 1 0.3c0.1 0.3 0 0.6-0.2 0.9l1 0.6l-0.4 0.2l-0.9-0.6h-0.3l0.4 0.9l-0.4 0.1l-0.9-2zm0.1 0.2l-0.5 0.2l0.5 0.8l0.3-0.2c0.4-0.1 0.4-0.4 0.3-0.6c-0.1-0.2-0.3-0.3-0.6-0.2zm2.6 1c-0.3 0.2-0.8 0.1-1-0.2l0.3-0.1c0.1 0.1 0.4 0.2 0.6 0.1c0.3-0.1 0.4-0.4 0.3-0.6c-0.4-0.5-1.2 0.4-1.7-0.3c-0.2-0.4 0-0.7 0.5-1c0.3-0.2 0.7-0.1 0.8 0.2l-0.2 0.1c-0.1-0.1-0.3-0.2-0.6 0q-0.4 0.1-0.2 0.5c0.2 0.5 1.2-0.5 1.7 0.3c0.1 0.3 0 0.8-0.5 1z" /></g></svg>