<svg version="1.2" xmlns="http://www.w3.org/2000/svg" viewBox="0 0 37 53" width="37" height="53"><defs><clipPath clipPathUnits="userSpaceOnUse" id="cp1"><path d="m-170-2006h960v6957h-960z" /></clipPath></defs><style>.s0{fill:#fbab43}</style><g clip-path="url(#cp1)"><path class="s0" d="m8.3 20c0.4 0 0.5 0.2 0.9 0c0.4-0.2 0.8-0.5 1.2-0.7c1.5-1.1 4.1-2.6 5.8-3.6q0.1-0.1 0.3-0.2l1-0.5c0.7-0.3 1.8 0.4 2.3 0.7l1.1 0.8c-0.1 0.6-0.4 1.1-0.6 1.7c-0.7-0.2-0.5-0.2-1.2-0.2c-0.1 0.4 0 0.4 0.2 0.7c0.4 0.6 0.8 0.9 1.7 1.1c0.6 0.1 1 0.3 1.6 0.4c0.8 0.2 4.4 1 4.9 1.3c0.9 0.6 1.5 2.5-0.1 3.6c-0.2 0.1-1 0.5-1.2 0.5c0 0.2 0.2 0.3 0.3 0.5c0.6 0.8 0.6 2 0 2.7c-0.5 0.4-1.4 0.8-2 1c0.1 0.3 0.4 0.5 0.5 0.9c0.4 1 0 1.9-0.9 2.5c-0.3 0.2-1.2 0.5-1.4 0.5c0.2 0.7 0.6 0.9 0.6 1.8c0 0.8-0.4 1.4-1 1.7c-0.6 0.4-1 0.4-2 0.1c-0.5-0.1-0.8-0.2-1.2-0.2l-4.7-1.2c-0.5-0.1-0.8-0.2-1.4-0.4c-1.2-0.3-1.7-0.4-2.5-0.9l-0.9-0.8c-0.2-0.1-0.3-0.2-0.5-0.4c-0.4-0.3-1.1-1.2-1.4-1.6c-0.1-0.1-0.3-0.4-0.4-0.4l-4.2-1l1.8-7.5c0.3-1.2 0.6-2.3 0.9-3.5l1.4 0.4c0.4 0.1 0.7 0.1 1.1 0.2zm-8.2 9.6l0.9-10.4c0.1-0.3 0.2-1.4 0.1-1.6l3.6 0.9l-2.9 12.2l-1.5-0.4c-0.3-0.1-0.2-0.4-0.2-0.7zm8.7 10.7l0.9-0.6q0.2-0.2 0.5-0.3c1-0.6 2.5-1 3.1-2.2l7.2 1.7c-0.2 1.1 0.2 3.1 0.6 4.2c0 0.4 0.2 0.7 0.2 1c0.4 1.5 0.6 2.1 0.1 3.9c-0.3 1.2-1.6 2.9-2.4 3.3l-0.8 0.6c-0.5 0.3-2.1 1.1-2.7 1c0.5-1.7 0.9-3.5 1.3-5.2c0.1-0.5 0.2-0.9 0.1-1.2c-0.6-1.6-4.3-2.8-6-1.5c-0.2 0.2-0.2 0.1-0.3 0.5l-1.4 5.7c-0.4-0.4-0.7-0.6-1-1.1c-0.4-0.6-0.4-0.4-0.8-1.3c-0.9-1.8-1.1-3.2-0.6-5.4c0.3-1.3 1-2.3 2-3.1zm18.2-39.6c0.5-0.2 0.9-0.3 0.9 0c0 0.2-0.3 1.1-0.4 1.4c0 0.3 0 0.3 0 0.6l-0.9 3.3c-0.1 0.8-0.2 0.8 0 1.2c1 1.5 3.7 2.1 5.1 1.7c0.8-0.2 1-0.3 1.3-1.5c0.1-0.5 0.2-0.8 0.4-1.2l0.6-2.6c0.1-0.4 0.2-0.7 0.3-1.2c0.3 0.1 0.3 0.2 0.5 0.3c1.2 1.2 1.9 3 2.1 4.7c0.1 0.6 0 1.3-0.1 2.1l-0.2 0.9c-0.2 0.5-0.4 1-0.7 1.4c-1.6 2.3-4 2.7-5.1 3.7c-0.9 0.7-1.6 1.8-2.1 2.8c-0.2 0.4-0.6 1.2-0.7 1.8l-6.3-1.6c0.1-0.3 0.2-0.5 0.3-0.8c0.3-0.9 0.6-1.7 0.8-2.7c0.5-1.8 0.1-2.9-0.3-4.5c-0.5-1.9-1-2.9-0.5-4.9c0.6-2.4 2.8-4.2 5-4.9z" /></g></svg>