<svg version="1.2" xmlns="http://www.w3.org/2000/svg" viewBox="0 0 43 48" width="43" height="48"><defs><clipPath clipPathUnits="userSpaceOnUse" id="cp1"><path d="m-167-2203h960v6957h-960z" /></clipPath></defs><style>.s0{fill:#fbab43}</style><g clip-path="url(#cp1)"><path fill-rule="evenodd" class="s0" d="m37.5 24.1c0.3 0.4 0.3 0.2 0.3 0.6c0.5 0.3 0.2 0 0.4 0.5c0.2 0.1 0-0.1 0.3 0.2c0.1 0.2 0 0 0.1 0.3c0.3 0.3 0.3 0.1 0.4 0.5c0.2 0.3 0.1 0.2 0.2 0.5c0.4 0.3 0.2 0.1 0.4 0.5c0.2 0.5 0.1 0.3 0 0.7q0.2 0.1 0.2 0.1q0 0.1 0.1 0.1c0.1 0.2 0.1 0.3 0.1 0.4c0.1 0.4 0.1 1.1 0.4 1.3l0.1 0.8c0.2 0.1 0.2 0.3 0.2 0.5c0.1 0.1 0.1 0.3 0.2 0.4q0 0.1 0 0.1q0 0 0 0.1c0.4 0.3 0-0.1 0.4 0.4c0.2 0.3 0.2 0.3 0.4 0.6c0.3 0.4 0.3 0.1 0.3 0.6c0.3 0.1 0.2-0.1 0.3 0.3l0.5 0.5c0-0.1 0 0 0 0c-0.2 0.4-0.5 0.6-0.9 0.9l-6 6.4c-0.3-0.2-0.4-0.1-0.6-0.5c-0.6-0.2-0.3 0.1-0.5-0.5c-0.4 0-0.2 0.1-0.6-0.2c-0.4-0.3-0.3-0.1-0.4-0.4c-0.4-0.1-0.2 0-0.5-0.3c-0.3-0.2-0.8-0.4-0.9-0.8c-0.6-0.2-0.4 0-0.5-0.5c-0.3 0.1-0.1 0.1-0.4 0c0 0-0.2-0.2-0.2-0.2c-0.3-0.1-0.4-0.2-0.5-0.3c-0.5-0.1-0.2 0.1-0.4-0.1c-0.4 0-0.1 0.1-0.2-0.3c-0.5 0.2-1 0-1.5-0.1h-0.7c-0.8 0-1.6 0.2-2.2 0.4c-0.4 0.1-0.5 0.1-0.9 0.1c-0.4 0-0.6 0-0.9 0c-0.3-0.1-0.2-0.1-0.3-0.2c-0.3-0.1-0.1-0.1-0.2-0.2c-0.4-0.1-0.2 0.1-0.5-0.2c-0.4-0.4-0.6-0.7-0.6-1.4c0-1.5 1.4-2.3 2.7-2.7c0.4-0.1 0.5-0.2 1.1-0.2c0-0.1-0.1-0.3-0.1-0.4q0-0.1 0-0.1q0 0 0-0.1c-0.4-0.1-0.2 0.1-0.4-0.4c-0.3-0.1-0.3-0.2-0.5-0.5c0 0-0.2-0.2-0.2-0.2q0-0.2-0.1-0.2q0 0 0-0.1l-0.4-0.4c-0.2-0.1-0.3-0.2-0.5-0.4c-0.1-0.1-0.1-0.3-0.2-0.4q0 0 0-0.1q0 0 0-0.1c-0.6-0.2-0.3 0-0.5-0.5c-0.2-0.1-0.3-0.2-0.4-0.4c-0.1 0-0.2-0.1-0.2-0.2q0-0.1-0.1-0.2q0 0 0.1-0.1c-0.6-0.2-0.4 0-0.6-0.5c-0.1-0.1-0.2-0.2-0.4-0.3c-0.3-0.4-0.2-0.2-0.2-0.6c-0.5-0.2-0.3 0.1-0.5-0.5l-0.4-0.4c-0.4-0.4-0.2-0.5-0.2-0.5c-0.4-0.2-0.3 0.3-0.3-0.2c-0.2-0.2-0.1 0.2-0.1-0.4c-0.3-0.3-0.1-1-0.1-1.3c0.2-0.5 0.4-0.6 0.7-0.9c0.7-0.7 1.1-0.8 2.2-0.6c0.2 0 0.3 0 0.3 0c0 0 0 0 0.1 0.1c0.4 0 0.1 0 0.2 0.3c0.3 0 0-0.1 0.3 0.1c0 0 0.2 0.1 0.3 0.2c0.2 0.3 0.2 0.2 0.3 0.5l0.3 0.3c0.2 0.2 0.3 0.3 0.5 0.5c0.1 0.1 0.1 0.2 0.2 0.3q0 0.1 0 0.1q0 0.1 0.1 0.1c0.4 0.3 0-0.2 0.4 0.4c0.1 0.2 0.2 0.3 0.4 0.5c0.1 0.1 0.2 0.2 0.2 0.3q0.1 0.1 0.1 0.1q0 0.1 0 0.1c0.4 0.2 0.2 0 0.4 0.4c0.2-0.4 0.6-0.7 1-1c0.4-0.4 0.7-0.5 1.2-0.9c2-1.3 1.6-0.7 2.6-1.2h0.9c0.8 0 1-0.6 2.3-0.6c0.4 0.1 0.3 0 0.7 0.1c0.2 0.2 0.4 0.2 0.6 0.4c0 0 0.2 0.2 0.3 0.2q0 0.1 0.1 0.1q0 0 0 0.1c0.5 0.2 0.3 0 0.5 0.5c0.2 0.1 0.2 0.2 0.4 0.3zm-35.6 23.8c-0.4-0.1-0.9-0.4-1.2-0.7c-0.2-0.3-0.1-0.2-0.2-0.6c-0.4-0.2-0.3-0.8-0.3-1.5v-35.7l4.6-2.8v31.5c0.4 0.2 1.1 0.1 1.6 0.1h16c0.7 0 0.9 0.2 1.4 0.4h0.9c0.4 0 0.7 0 1.1-0.1c0.5-0.1 0.3-0.2 0.9-0.2c0.3-0.1 0.3-0.1 0.9-0.1q0.4 0 0.9 0c0.2 0 0.3 0 0.5 0.1c0.3 0 0.1 0 0.2 0c0.6 0 0.3 0 0.6 0.2c0.4 0 0.5 0.1 0.8 0.2c0.4 0.2 0.2 0.1 0.4 0.4c0.4 0.1 0.2-0.1 0.5 0.3c0.3 0.2 0.9 0.5 1.1 0.8c0.4 0.2 0.2 0 0.4 0.4c0.2 0 0 0 0.3 0.1l0.6 0.6c0.3 0.1 0.2 0.1 0.5 0.2c0.3 0.3 0.9 0.6 1.1 0.9c0.5 0.2 0.3 0 0.4 0.4v2.5c0 1 0 1.6-0.5 2.1c-0.4 0.6-1.2 0.5-2.1 0.5c0 0-0.7 0-0.7 0h-19.8c0.9-1 3-2.6 3.5-3.6c0.3 0.3 0.2 0.3 0.5 0.5c0 0.1 0.2 0.2 0.3 0.3c0.1 0.1 0.1 0 0.1 0.1c0.3 0 0.3 0 0.5 0.1c0 0 0 0.1 0 0c0.1 0 0.1 0.1 0.1 0.1c1.4-0.1 2.3-0.9 2.3-2.3c-0.2-0.3-0.1-0.1-0.1-0.6l-0.9-1l-0.4-0.1c-1-0.1-1.4-0.1-2.1 0.5c-0.6 0.7-0.5 1.1-0.5 2l-3.9 4zm2.8-41.8h0.7l-0.7 0.5zm3.9-5.2l-8.5 8.5v-5.8l2.7-2.7zm-3.2 5.2l5-5.2h23.6c0.7 0 1 0.2 1.4 0.6l0.2 0.5c0.3 0.5 0.2 0.9 0.2 1.7v17.9c-0.3-0.1-0.5-0.2-0.9-0.2c-0.5 0-0.2 0-0.8 0.1c-0.4 0-0.6 0.1-1 0.2c-0.9 0.4-0.5 0.4-1.9 0.4v-15.8c0-0.4 0.2-0.2-0.3-0.2zm-4.6-4.5c-0.6 0.5-0.7 0.9-0.7 2l2.7-2.7c-1.1 0-1.5 0.2-2 0.7zm16.3 27.7c0.1-0.5 1.8-2.1 2.3-2.4c0.3 0.2 0.2 0.1 0.5 0.4c0.2 0.5 0.1 0.6-0.3 0.9c-0.3 0.3-1.5 1.6-1.8 1.7c-0.5 0-0.5-0.2-0.5-0.3c-0.1 0-0.3 0.4-0.2-0.3zm0.2-5.5c0.5 0 0.6 0 0.7 0.3c0.1 0.2 0.1-0.2 0.1 0.4c-0.3 0.5-0.2 0.4-0.9 0.4c-0.8 0-1.1 0.2-1.9 0.2h-0.5l-0.1-0.4c-0.2 0-0.1 0.2-0.3-0.2c0.2-0.7 0.2-0.6 1.1-0.6c0.6 0 0.4-0.1 0.9-0.1c0.3 0 0.7-0.1 0.9 0zm8.6-1.7q-0.1 0-0.3-0.1c-0.3-0.2-0.2-0.1-0.2-0.3c0 0-0.3 0.2-0.1-0.4c0.1-0.2 2-2 2.4-2c0.5 0.1 0.2-0.1 0.5 0.3l0.1 0.6c-0.8 0.6-1.9 1.6-2.4 1.8c-0.1 0-0.1 0.1 0 0.1zm-4-2.4c-0.2-0.2-0.1 0-0.1-0.4c0-0.2 0-0.7 0-1v-1.7c0.5-0.2 0.6-0.3 1 0.1c0.1 0.3 0.1 0.3 0.1 0.6v2.5l-0.3 0.3c-0.6 0-0.3-0.1-0.4-0.2c-0.3-0.1-0.2 0.1-0.3-0.2zm-3.2-0.2c0.1 0.2 0.1 0.2 0.2 0.3c0.1 0.2 0.2 0.3 0.4 0.5c0.1 0.1 0.1-0.2 0.1 0.4c0 0.1-0.1 0.3-0.2 0.3c-0.4 0.5-0.8 0.1-0.8 0.1c-0.2-0.2-0.1-0.3-0.4-0.5c-0.3-0.3-0.3-0.2-0.4-0.6l-0.3-0.3c-0.2-0.2-0.6-0.7-0.7-1c0 0 0-0.1 0-0.1c0.1 0 0.1 0 0.1-0.1c0.6-0.8 0.9-0.2 1.4 0.4c0.3 0.3 0.2 0 0.2 0.4c0.3 0.1 0-0.1 0.4 0.2z" /></g></svg>