<svg version="1.2" xmlns="http://www.w3.org/2000/svg" viewBox="0 0 49 49" width="49" height="49"><defs><clipPath clipPathUnits="userSpaceOnUse" id="cp1"><path d="m-746-2203h960v6957h-960z" /></clipPath></defs><style>.s0{fill:#fbab43}</style><g clip-path="url(#cp1)"><path fill-rule="evenodd" class="s0" d="m26.7 5c0.3 0.3 1 1.5 1.2 1.9l3.6 5.9c0.4 0.7 1 1.4 0.8 2.3c-0.2 2-2.6 1.8-3.6 0.5c0.2 0.7 0.4 1.2 0.1 1.9c-1.3 2.9-6.1 0.5-9.6 0.5c-4 0.1-8.6 1.9-12.4-0.2c-1.6-0.9-2.7-2-4.7-2.5c-0.6-0.2-1.6-0.1-2.1-0.3v-9.4c0.9 0 1.9 0.1 2.6-0.1c1.6-0.4 4.3-1.7 5.7-2.3l5.6-2.5c0.7-0.2 1.3-0.4 1.9-0.7c0.9 0 3.8 1.4 4.6 1.8c0.7 0.4 1.4 0.7 2.1 1c0.6 0.3 1.7 1 2.2 1.1c0.2 0.2 1.6 0.8 2 1.1zm4.9 12.8c0.6-0.3 0.8-0.5 1.1-0.7c0.7 0.3 1.2 0.8 1.2 1.8c0 1.1 0.1 1.9-0.2 3c-0.2 0.7-0.5 1.6-1 2.1c-0.6 0.8-1.2 0.3-2.5 0.5c-0.1 1.7-0.1 5.6 0 7.7c0 0.7-0.4 0.8-1 1.7h-1.8c-0.2 0-0.4-0.5-0.6-0.7c-0.2-0.3-0.4-0.4-0.4-0.9c0-1.7 0.1-6.6 0-7.8c-1.9-0.1-2.3 0.4-3-1.2c-0.6-1.3-0.8-2.1-0.8-3.6c1.4 0.1 2.9 0.5 4.3 0.5c0.3 0.4 0.4 0.8 1.1 0.9c0.6 0.1 1.2-0.2 1.4-0.5c0.4-0.7 0.3-0.9 0-1.5c0-0.2 0.2-0.4 0.3-0.6c0.1-0.2 0.2-0.5 0.3-0.7c0.7 0.1 1 0.2 1.6 0zm6.6 16.1c1.4-0.1 2.8 0.3 4 0.7c0.9 0.3 6.4 2.4 6.8 2.7l-3.2 9.2c-0.7-0.3-1-0.7-2.7-1.1c-2.4-0.5-3.9 0.3-6.1 1.1c-0.9 0.3-1.8 0.6-2.7 1q-1.4 0.5-2.8 0.9c-1.1 0.3-1.9 0.7-3 0.3c-3.8-1-12.4-4.7-16.1-6.2c-1-0.4-1.8-0.7-2.7-1.1c-0.9-0.4-1.7-0.9-2-1.7c-0.4-1.2 0.1-2.3 0.9-2.7c1.2-0.7 1.9-0.1 3 0.1q0.1-1.8 1.8-2c1.3 0 2.2 0.4 3.3 0.9c0.5 0.2 2.7 1.1 2.9 1.3c-1.1 1.6-1.1 4 0.3 5.3c1.4 1.4 3.3 1.4 5.7 1.4c1.7 0 5.5 0.2 6.8-0.3c1.3-0.4 3.6-1.8 4.3-2.8c-0.5 0.1-1.3 0.4-1.8 0.6c-2.6 0.7-3.8 0.6-6.5 0.6c-2.6 0-6.8 0.5-7.6-1.9c-0.4-1.5 0.5-2.5 1.6-2.9c1.9-0.7 4.8-0.1 8.6-1.1c0.6-0.1 3.2-0.9 3.4-1.2c0.5 0 2-0.9 3.8-1.1zm-14.5-24.5c-0.2-0.2-0.3-0.5-0.7-0.6c-0.9-0.5-4.9-2-6-1.9c-2.7 0.1-3.4 3-1.8 4.3c2.3 1.9 5.4-0.8 10.9 2.3c0.3 0.2 0.6 0.3 0.8 0.5c0.3 0.2 0.6 0.4 0.9 0.5c-0.5-0.7-3.3-4.1-4.1-5.1z" /></g></svg>