<svg version="1.2" xmlns="http://www.w3.org/2000/svg" viewBox="0 0 47 48" width="47" height="48"><defs><clipPath clipPathUnits="userSpaceOnUse" id="cp1"><path d="m-456-2009h960v6957h-960z" /></clipPath></defs><style>.s0{fill:#fbab43}</style><g clip-path="url(#cp1)"><path fill-rule="evenodd" class="s0" d="m28.6 18.1l5-5.1l1.8-3.9c0.2-0.2 0.2-0.3 0.3-0.5c0.2-0.3 0.9-0.6 1.2-0.9l5.6-3.7c0.6-0.4 0.7-0.5 0.9-0.3l2.3 2.3c0.1 0.2 0.1 0.2 0.2 0.2c-0.1 0.3-4.1 6.4-4.5 7c-0.2 0.2-0.3 0.5-0.6 0.6c-0.9 0.4-2.1 1.1-3 1.5c-0.3 0.1-1.2 0.4-1.3 0.6c-0.4 0.4-10.6 10.5-10.8 10.8c0.2 0.6 0.5 1.1 0.5 1.9c0 1.4 0.1 2.2-0.6 3.4c-0.2 0.4-0.4 0.6-0.7 0.9c-0.1 0.1-0.2 0.2-0.3 0.4l-9.3 9.4c-0.5 0.5-1 1-1.5 1.5c-0.5 0.4-1 1-1.5 1.4c-0.4 0.4-0.5 0.5-0.8 0.8c-0.3 0.2-0.6 0.5-0.8 0.6c-0.4 0.1-0.7 0.3-1.1 0.4c-0.8 0.3-0.8 0.1-1.3 0.2c-0.3 0-1.1 0-1.4 0c-1.7-0.3-3.2-1.3-4.1-2.7c-0.7-1.3-0.8-2.1-0.8-3.5c0-1.3 0.6-2.7 1.2-3.4l0.9-0.8c0.3-0.4 1-1.1 1.4-1.4l4.5-4.6q2.2-2.3 4.5-4.6l1.7-1.7c1-0.9 2.4-1.7 4-1.7c1.5 0 1.6 0.3 2.7 0.6c0.2-0.2 5.5-5.6 5.7-5.7zm-21-17.6q0.1 0 0.1 0c1.3 0.1 2.5 0.4 3.7 0.9c2.9 1.3 4.3 2.6 4.9 5.7c0.1 0.9 0.3 3.3 0.7 3.9c0.1 0.2 0.2 0.3 0.3 0.4l0.8 0.9c0.3 0.3 0.9 0.8 1.2 1.2c0.5 0.7 5.5 5.5 5.8 5.8c-0.1 0.3-0.4 0.6-0.6 0.8l-2.1 2c-0.6-0.2-0.9-0.3-1.7-0.3c-0.2 0-0.3 0-0.4 0c-0.2 0-0.3 0-0.5 0c-2 0-3.2 1.2-3.7 1.2c-0.1 0-3.7-3.8-4.8-4.8c-1-0.9-0.7-0.9-2.6-1.1c-3-0.3-5-0.6-6.6-3c-1-1.4-2-3.7-2-5.5c0 0 0-0.5 0-0.5c0-0.4 0-0.9 0.1-1.1c0.2 0.2 1.6 1.5 2 1.9l0.6 0.6c0.7 0.6 1.3 1.3 2.2 1.6c1.3 0.3 2.2 0.3 3.4-0.3c0.4-0.2 0.8-0.5 1.2-0.8c0.1-0.2 0.3-0.4 0.4-0.6c0.8-1.1 1-3 0.5-4.1c-0.1-0.2-0.1-0.3-0.2-0.4c-0.4-0.7-0.7-1-1.2-1.5c-0.2-0.2-0.4-0.4-0.6-0.7l-1.3-1.3c-0.2-0.1-0.5-0.5-0.5-0.7c0.1-0.1 0.6-0.2 0.9-0.2zm22.5 24c0.2 0 1.1 1 1.5 1.3c0.9 0.8 3 3.2 3.9 3.9c0.2 0.1 0.3 0.2 0.6 0.3c0.5 0.3 1 0.3 1.6 0.4c3.1 0.4 4.6 0.5 6.9 2.8c0.6 0.7 1.1 1.3 1.6 2.2c0.7 1.5 0.7 2.6 0.7 4.1c0 1.5-0.7 3.5-1.6 4.7c-0.3 0.4-0.6 0.6-1 1c-0.9 0.9-1.3 1.2-2.4 1.7c-2.7 1.3-6.3 0.7-8.5-0.9c-2.1-1.6-3.1-3.6-3.5-6.2c-0.1-0.7-0.2-2.3-0.4-2.9c-0.1-0.4-0.3-0.7-0.6-1l-0.4-0.4c-0.4-0.4-1.9-1.9-2-2.1c0.1-0.2 0.3-0.5 0.4-0.8c0.7-1.8 0.8-1.7 0.8-3.8c0-1-0.2-1.2-0.2-1.8c0.3-0.2 2-2.2 2.6-2.5zm11.8 13.2c-0.4-0.8-0.7-1-1.2-1.5c-0.8-0.7-1.6-0.8-2.5-0.8c-0.8 0-1.9 0.5-2.4 1.1c-0.1 0-0.1 0.1-0.2 0.2c-0.7 0.8-0.8 1.5-0.8 2.6c0 0.9 0.6 2 1.1 2.5c0.3 0.3 0.7 0.5 1.1 0.7c0.3 0.1 1.1 0.3 1.5 0.3c2.6 0 4.3-2.9 3.4-5.1zm-29.2-3.4l4-4c0.3-0.3 0.7-0.6 1-1c0.3-0.4 1.4-1.2 0.3-1.7c-0.5-0.2-0.9 0.2-1.4 0.7l-3.7 3.8c-0.2 0.1-0.3 0.3-0.5 0.5l-1.3 1.4c-0.3 0.3-1.2 1.1-1.2 1.5c0 0.2 0.4 0.6 0.7 0.6c0.3 0 1.8-1.5 2.1-1.8z" /></g></svg>