<svg version="1.2" xmlns="http://www.w3.org/2000/svg" viewBox="0 0 49 49" width="49" height="49"><defs><clipPath clipPathUnits="userSpaceOnUse" id="cp1"><path d="m-455-2203h960v6957h-960z" /></clipPath></defs><style>.s0{fill:#fbab43}</style><g clip-path="url(#cp1)"><path fill-rule="evenodd" class="s0" d="m13.5 7.1c0.4 0.4 0.7 0.5 0.7 1.2c-0.3 0.1-0.5 0.4-0.6 0.7c0.6 0.4 0.5 0 1.2 0.6l-0.2 0.1c0 0 0 0-0.1 0.1c-1.3 1.1-10.4 10.4-10.5 10.5c-0.3-0.2-0.3-0.1-0.4-0.5c-0.1-0.5 0.1-0.1-0.2-0.6c-0.7 0.2-0.7 1.4-1.9-0.1c0.4-0.2 0.4-0.4 0.8-0.5c0.4-0.1 0.9-0.9 1.3-1.3l6.8-6.7c0.3-0.3 2.5-2.4 2.5-2.7c0.2-0.4 0.4-0.4 0.6-0.8zm-2.1 0.8c0.3-0.4 0.5-0.7 0.8-1c0.4-0.3 0.7-0.4 1.1 0c-0.5 0.2-11.8 11.6-12 12c-0.5-0.5-0.3-0.7 0.1-1.1c0.3-0.3 0.5-0.6 0.9-0.8l-0.2-0.3c0.1-0.3 0.3-0.4 0.5-0.8l0.4 0.4c0.3-0.5 5.9-6 6.9-7c0.9-0.9 0.6-0.5 0.6-1c0.1-0.3 0.3-0.4 0.5-0.7zm13.7 2.4c0.1-0.1 0.2-0.2 0.3-0.2l0.3-0.4h1.4c-0.3 0.6-16.3 16.1-16.7 16.9l-0.3-0.2l-1.7 2.3c-0.1 0.1-0.1 0.1-0.2 0.1c-0.6 0.3-1.8 1.7-2.3 2.2c-0.7 0.7-1.5 1.6-2.2 2.2l4.7-6.2c0.3-0.4 0.4-0.6 0.6-0.7c0.7-0.3 13.6-13.5 16.1-16zm-11.8-3.4l0.3 0.2c-0.3 0.3-0.5 0.4-0.6 0.8c-0.4 0.1-0.2 0-0.5 0.3c-3.2 3-6.4 6.5-9.6 9.6c-0.4 0.4-0.4 0.3-0.6 0.7c-0.3 0.2-0.4 0.4-0.7 0.6l-0.3-0.2c0.3-0.5 11.6-11.8 12-12zm1.3 2.8c0 0 0 0 0.1 0l0.1-0.1l0.3 0.3c-0.8 0.6-10.1 10.3-10.8 10.6l-0.3-0.2c0.2-0.2 9.2-9.4 10.6-10.6zm-10.3 9.1c-0.1-0.2-0.1-0.2-0.2-0.4l8.8-8.8l0.3 0.4c-0.3 0.4-6.6 6.6-7.7 7.7c-0.3 0.3-0.7 0.9-1.2 1.1zm10.8-7.5l0.5-0.5c0.1-0.1 0.1-0.1 0.1-0.1l0.2-0.1l0.2 0.3c-0.7 0.6-10.1 10.3-10.7 10.7l-0.3-0.2c0.3-0.5 8.5-8.6 10-10.1zm-13.9 4l8.7-8.7c0.2 0.2 0.3 0.2 0.5 0.3c0.2 0.1 0.3 0.2 0.4 0.4c-0.4 0.2-0.4 0.4-0.7 0.6c-0.4-0.1-0.3-0.4-0.7-0.3c-0.5 0.1-5.4 5.2-6 5.8c-1.6 1.6-1.7 1.4-1 2.3c-0.3 0.2-0.4 0.5-0.7 0.5c-0.3-0.1-0.5-0.4-0.6-0.7c0.1-0.2 0-0.1 0.1-0.2zm8.1-8.7h0.6l-8.7 8.7c-0.1 0.1 0 0-0.1 0.2v-0.7zm-2.5 2c0.3-0.4 1.6-1.9 2.5-2l-8.3 8.3c0-0.7 0.5-1.1 0.9-1.4c0.3-0.4 0.7-0.8 1.1-1.1c-0.1-0.1-0.3-0.5-0.4-0.6l0.2-0.1c0.6-0.7 3-3.2 3.3-3.3c0.4-0.1 0.4 0.1 0.7 0.2zm-1.2-0.4c0.5 0 0.4-0.1 0.5 0.2c-0.3 0.1-2.7 2.6-3.3 3.3l-0.2 0.1c0 0-0.1-0.4-0.1-0.4c0-0.2 0 0 0.1-0.2zm0.2 1.3l-1.8 1.8c-0.3 0.3-0.7 0.3-0.4-0.1l1.8-1.9c0.4-0.4 0.6 0 0.4 0.2zm-2.7 0.7c0.3-0.3 0.5-0.5 0.7-0.7c0.5-0.5 1-1.3 1.8-1.3l-3.1 3c0-0.5 0.3-0.7 0.6-1zm-0.8 5.5l0.3 0.2c-0.2 0.4-0.5 0.5-0.6 0.8c-0.5-0.2-0.2 0-0.4-0.4c0.3-0.1 0.4-0.4 0.7-0.6zm8.4-8.4l0.3 0.3c-0.3 0.3-0.5 0.4-0.6 0.7c-0.4-0.2-0.2-0.1-0.4-0.4c0.3-0.2 0.4-0.4 0.7-0.6zm18.8 2.8l0.3-0.3c0.4 0 1 0 1.2 0.1l-18.6 18.7c-0.2-0.1-0.5-0.4-0.7-0.6c0.1-0.4 15.6-15.9 17.8-17.9zm-2.9 0.8l1.1-1.1h1.4c-0.3 0.6-16.9 16.6-17.8 17.9l-0.8-0.8c0.7-0.4 14.1-14 16.1-16zm-3.3-0.9l0.2-0.2h1.4c-0.1 0.3-11.5 11.6-13.7 13.7c-0.5 0.6-1.7 1.6-2 2.1l-0.8-0.8c0.4-0.2 12.8-12.7 14.9-14.8zm-2.1 0l0.2-0.2h1.4c-0.1 0.4-6.4 6.4-7.2 7.3c-1.3 1.2-2.5 2.4-3.7 3.7c-0.7 0.6-3.4 3.2-3.7 3.8l-0.8-0.9c0.4-0.2 11.8-11.6 13.8-13.7zm-2.3 0.2l0.4-0.4h1.4c-0.2 0.4-5.9 6-6.8 6.8c-1.1 1.2-2.2 2.3-3.4 3.4c-0.6 0.7-3.1 3-3.4 3.5l-0.8-0.8c0.6-0.4 10.4-10.5 12.6-12.5zm-2.4 1.1c0.1-0.5 0.4-0.8 0.8-1.1c0.6-0.3 0.8-0.2 1.3-0.4c-0.2 0.4-5.5 5.5-6.2 6.3c-1.1 1.1-2.1 2.1-3.2 3.1c-0.6 0.6-2.8 2.7-3.1 3.2l-0.8-0.8c0.6-0.3 10-10.1 10.8-10.6zm20.2-4.3l0.4 0.3c0.1 0.1 0.2 0.1 0.2 0.2c0.1 0.2 0 0 0 0.2c0 0.2 0 0.2-0.2 0.3c-0.1 0.1-0.2 0.2-0.2 0.2c-0.2 0.3 0 0-0.1 0.2c-0.2-0.1-0.3-0.2-0.4-0.3c-0.2-0.3-0.5-0.3-0.3 0l0.1 0.1c0.1 0.2 0.3 0.3 0.4 0.4l-0.2 0.1c-1.8 1.6-9.4 9.8-10.1 10c-0.2 0 0 0-0.3-0.1c0 0-0.1-0.1-0.1-0.1c-0.3-0.1-0.3-0.1-0.6-0.1l7.1-7.1c0.5-0.5 1-1 1.5-1.5c1.1-1.1 1.1-0.4 1.3-0.8c0.2-0.2 0-0.3 0-0.4q0-0.1 0-0.1zm0.1 4.1c0.3 0.1 0.6 0.4 0.7 0.7l-8.8 8.8l-0.1 0.1l-0.1 0.1l-0.8 0.8c0-0.6-0.1-0.8-0.3-1.3zm-1-1c0.3 0.1 0.6 0.4 0.7 0.7c-0.8 1.1-8.7 8.5-9.1 9.2c-0.3-0.3-0.5-0.5-0.7-0.9c0.7-0.4 8-8.1 9.1-9zm-2.3 6.5c0.7-0.7 1.4-1.4 2.2-2.2c0.6-0.6 1.6-1.7 2.2-2.2c0.3 0.1 0.6 0.4 0.7 0.7c-0.5 0.7-1.5 1.6-2.2 2.2c-0.7 0.8-1.4 1.4-2.2 2.2c-0.6 0.6-4 4.2-4.4 4.3c-0.2 0 0 0.1-0.2-0.1l-0.2-0.1c-0.2-0.1-0.2-0.1-0.3-0.3c0.1-0.4 3.8-3.9 4.4-4.5zm11.4 1.1l0.4-0.4l0.8 0.8l-2.4 2.3c-0.9 0.9-6.5 6.4-6.8 6.9c-0.2-0.2-0.7-0.5-0.9-0.7c0.7-0.4 7.2-7.3 8.2-8.1c0.2 0.1 0.2 0.1 0.4 0.2l0.3-0.2l-0.2-0.4c0.1-0.3 0.1-0.2 0.2-0.4zm-12.5 2.1l6.6-6.6c0.2 0.2 0.5 0.5 0.6 0.7c-0.8 1.1-8.2 8-8.6 8.8c-0.2-0.2-0.7-0.6-0.9-0.8c0.6-0.2 1.7-1.6 2.3-2.1zm-1.4-9.9c0.3 0.1 0.1 0 0.3 0.2c0.4 0 0.1-0.1 0.2 0.2c-0.4 0.1-3.6 3.5-4.2 4.1c-0.7 0.7-1.4 1.4-2.1 2c-0.6 0.7-1.5 1.5-2.1 2.2c-0.3 0.1-0.7 0.4-1 0.7c-0.3 0.3-0.4 0.6-0.7 1l-8.7 8.7l-0.3-0.4zm6.9 10.6c0.7-0.7 1.3-1.4 2.1-2.1c0.6-0.6 1.4-1.6 2-2.1c0.3 0.2 0.6 0.5 0.8 0.7c-0.5 0.7-1.5 1.5-2.1 2.1c-0.7 0.7-1.4 1.4-2.1 2.1c-0.5 0.6-3.7 3.9-4.1 4c-0.4 0-0.7-0.3-0.7-0.5c0.1-0.4 3.5-3.6 4.1-4.2zm5.2-3.1c0.2 0.1 0.6 0.4 0.7 0.7c-0.5 0.6-1.4 1.5-2 2c-0.7 0.7-1.3 1.4-2.1 2.1c-0.5 0.5-3.7 3.9-4 3.9c-0.3 0-0.1 0.1-0.3 0c0 0-0.2-0.1-0.3-0.2c-0.1-0.1-0.2-0.2-0.3-0.3c0.7-0.4 7.2-7.4 8.3-8.2zm-3.1-3.2c0.2 0.2 0.5 0.5 0.6 0.7c-0.5 0.7-1.5 1.6-2.1 2.2c-0.8 0.8-6.1 6-6.3 6.4c-0.3-0.1-0.6-0.4-0.9-0.6zm1.1 1c0.2 0.2 0.5 0.5 0.6 0.7l-8.3 8.4c-0.4 0-0.2 0-0.5-0.2c0-0.1-0.2-0.2-0.2-0.2c-0.2-0.2 0 0-0.1-0.2zm-15.9 1.1c0.8-0.7 1.4-1.3 2.1-2c0.6-0.6 3.8-4 4.2-4.2c0.2 0 0.1 0 0.3 0.1l0.2 0.1c0.2 0.3 0.3 0.3 0.1 0.5c-0.1 0.4-5.8 5.8-7.2 7.3c0 0 0 0.1 0 0.1c0 0-0.1 0-0.1 0c-0.2-0.2-0.6 0-0.9 0c-0.3 0.1-0.5 0.1-0.7 0.2c0.5-0.6 1.4-1.4 2-2.1zm1.8-6.7h0.8l-1.2 1.2c-2 2-15.4 15.6-16.1 16l-0.2-0.3c0.5-0.8 16.5-16.3 16.7-16.9zm2.1 0h0.7l-0.3 0.4c-2.2 2-17.6 17.5-17.8 17.9l-0.4-0.3c0.9-1.3 17.6-17.3 17.8-18zm-17.9 13.8c2.2-2.1 13.6-13.4 13.7-13.8h0.7l-0.3 0.4c-0.1 0-0.1 0.1-0.3 0.2c-2.4 2.5-15.4 15.7-16 16c0 0 0-0.1 0-0.1l0.2-0.6c0.3-0.5 1.5-1.6 2-2.1zm0.7-2.8c1.2-1.2 2.4-2.4 3.7-3.6c0.8-0.9 7.1-7 7.2-7.4h0.7l-0.1 0.3c-2.2 2.1-14.6 14.5-15 14.8l-0.2-0.3c0.3-0.6 3-3.1 3.7-3.8zm-1.4-0.7c1.2-1.1 2.3-2.2 3.4-3.4c0.9-0.8 6.7-6.5 6.8-6.9h0.7l-0.2 0.3c-2 2-13.4 13.5-13.8 13.7l-0.3-0.2c0.4-0.6 2.8-2.9 3.4-3.5zm-1.3-0.8c1.1-1 2.1-2 3.2-3.1c0.7-0.8 6.1-6 6.2-6.4h0.7l-0.4 0.5c-2.1 2-11.9 12.1-12.6 12.5l-0.2-0.3c0.3-0.5 2.5-2.6 3.1-3.2zm19.9 4c0.2 0 0.3 0.2 0.4 0.3c0.3 0.2 0.1 0 0.3 0.3c-0.5 0.7-1.7 1.7-2.4 2.4c-0.4 0.4-2 2.2-2.4 2.3c-0.3 0.1-1.2 0.2-1.6 0.2c0.5-0.5 5.4-5.4 5.7-5.5zm16.3-3.8c0 0.8-0.2 0.8-1.2 1.8l-4.5 4.5c0.1 0.5 0.2 0.1 0.3 0.6l-0.7 0.7c-0.2-0.3-0.1-0.3-0.4-0.6l-0.6 0.7l0.4 0.4l-3.3 3.3c-0.6 0.7-2.8 2.7-3.2 3.3c-0.2 0.3-1.2 0.5-1.5 0.7c-0.4 0.3-0.2 1.2-0.7 1.5c-0.5 0.3-2.1 2-2.6 2.5l-2.4 2.5h-1.5c0.5-0.8 2-1.7 2.5-2.6c0.5-0.2 0.7-0.2 1.1-0.5c0.8-0.5 1.4-1 1.8-1.8c0.1-0.2 0.4-1 0.5-1.1l0.9-0.9c1.1-1 5.5-5.3 5.7-5.8c0.3 0.2 0.3 0.2 0.5 0.3c0.3-0.3 0.8-0.7 1.3-0.8v-0.2c-0.3-0.1-0.4-0.2-0.5-0.4zm-8.9-10.7l0.2-0.1l0.3 0.3c-0.1 0.1-0.1 0-0.2 0.2c0 0-0.1 0-0.2 0.1c-0.1 0.2-0.2 0.2-0.3 0.4c-0.3 0.1-0.3 0.1-0.4 0.5c-1.1 0.8-8.4 8.5-9.2 8.9c-0.5-0.3-0.1 0.1-0.3-0.3c0.7-0.2 8.3-8.4 10.1-10zm7.3 11.6l2.4-2.3l0.2 0.4l-0.7 0.7l-0.3 0.3l-8 8c-0.4-0.1-0.2 0.1-0.4-0.2c0.3-0.5 5.9-6 6.8-6.9zm-4.1-6.4c0.4 0.1 0.3 0 0.4 0.3l-8.7 8.7l-0.3-0.3c0.4-0.7 7.8-7.6 8.6-8.7zm-1.1 3.2c0.6-0.6 1.6-1.5 2.2-2.2c0.3 0.1 0.2 0 0.3 0.4l-8.5 8.5l-0.3-0.3c0.3-0.4 5.5-5.6 6.3-6.4zm-9.8 3.5l8.8-8.8c0.4 0.1 0.3 0 0.4 0.3c-0.7 0.5-1.6 1.6-2.3 2.3c-0.8 0.7-1.5 1.4-2.2 2.2c-0.6 0.6-4.2 4-4.4 4.4c-0.3-0.1-0.1 0-0.3-0.1l-0.2-0.1zm5.6-3.4c0.7-0.8 1.4-1.5 2.2-2.2c0.6-0.6 1.6-1.6 2.1-2.2c0.4 0 0.3-0.1 0.4 0.3l-6.6 6.6c-0.6 0.5-1.7 1.8-2.3 2.1c-0.4-0.3-0.1 0.1-0.2-0.3c0.3-0.1 3.8-3.8 4.4-4.3zm2.2-6.5c0.4 0.1 0.3 0 0.4 0.3l-9.4 9.3l-0.1-0.4c0.4-0.7 8.3-8.1 9.1-9.2zm5.3 5.2c0.3 0.1 0.2 0 0.3 0.4c-0.6 0.4-1.5 1.4-2.1 2c-0.7 0.8-1.3 1.4-2.1 2.1c-0.5 0.6-4 3.8-4.1 4.2c-0.4-0.1-0.2 0.1-0.4-0.3zm-3.1 5.2c0.7-0.7 1.3-1.4 2.1-2c0.6-0.6 1.5-1.5 2-2.2c0.4 0.1 0.3 0 0.4 0.4c-1.1 0.8-7.6 7.8-8.3 8.2c-0.4-0.2-0.2 0-0.3-0.4c0.4-0.1 3.6-3.4 4.1-4zm1.1 1c0.7-0.7 1.3-1.4 2.1-2c0.6-0.6 1.5-1.5 2-2.1c0.3 0.1 0.3 0 0.3 0.4c-1 0.7-7.5 7.6-8.1 8c-0.5-0.3-0.1 0-0.4-0.3c0.4-0.1 3.6-3.5 4.1-4zm-14.9-4c0 0 0 0 0-0.1c1.4-1.4 7.1-6.8 7.3-7.2c0.2 0.1 0.1-0.3 0.1 0.2c0.2 0.1 0.2-0.2 0.2 0.2l-7.1 7.1c-0.2-0.2-0.2-0.1-0.6-0.1c0 0 0.1-0.1 0.1-0.1zm-2.2 10.6l1.5-1.4c0.7-0.8 4.3-4.2 4.4-4.6c0.3 0.2 0.1 0 0.4 0.2c0.2 0.1 0 0 0.1 0.1c-0.3 0.2-5.2 5.1-5.6 5.6c-0.3 0.1-0.5 0.2-0.8 0.2c0 0 0 0 0-0.1zm14.5-20.1l1.9-2.1c0.3-0.1 0.9-0.1 1.1 0.1c0.2 0.1 0.1 0 0.2 0.2c-0.1 0.1-0.1 0.2-0.3 0.3c-0.2 0.2-0.1 0.1-0.3 0.4c-0.5-0.1-0.5 0.1-0.9 0.4c-0.3 0.3-0.5 0.3-0.4 0.8c-0.1 0.2-0.2 0.1-0.3 0.3c0 0.1-0.2 0.2-0.2 0.2c-0.2 0.2 0 0-0.2 0.2l-0.7-0.8zm-14 11.6c0.3-0.3 0.5-0.5 1-0.6c0.3 0 0.9 0 1.1 0.2c-0.1 0.3-0.4 0.6-0.6 0.7c-0.5 0.3-1 0.2-1 1.1l-0.7 0.8c-0.5-0.8-0.3-1.7 0.2-2.2zm4.3 5.9c0.7-0.7 1.8-1.7 2.4-2.4c0.3 0.1 0.1 0 0.4 0.2c-0.4 0.6-1.8 1.9-2.4 2.4c-0.6 0.7-1.7 1.7-2.3 2.3c-0.5 0-0.4 0.2-0.5-0.2c0.3-0.1 2-1.9 2.4-2.3zm20.6-11.4c0 0.9-0.4 1.5-1.3 2.1l0.1 0.2v0.1c-0.1 0.2-0.1 0.2-0.3 0.4c0 0-0.1 0.1-0.1 0.1c-0.2 0.3 0 0-0.2 0.3l-0.7-0.8c0.6-0.5 2-2.3 2.5-2.4zm-1.3 3.3c0 0 0.1-0.2 0.2-0.2c0.2-0.2 0.1-0.2 0.3-0.3c0.2 0 0.1 0 0.3 0.1c0 0 0.1 0.2 0.2 0.2c0.2 0.2 0.2 0.2 0.3 0.4l-1.5 1.5c-0.5-0.1-0.5-0.5-0.9-0.6l0.8-0.8c0.4 0.3 0.3 0 0.1-0.2c0.2-0.1 0 0 0.2-0.1zm-21.1 2.1c0.3 0.2 0.6 0.5 0.7 1c-0.5 0.2-1.6 1.4-2.1 1.8c0 0.1-0.1 0.2-0.1 0.2l-0.2 0.2c-0.1-0.2-0.2-0.2-0.4-0.3c-0.2-0.1-0.1 0-0.3-0.1c-0.1-0.3 0 0 0-0.2c0.1-0.3 0.4-0.4 0.5-0.8c0.3 0.3 0.2 0.3 0.7 0.4c0.7 0 1.1-0.5 0.8-1.3c-0.1-0.2-0.1 0-0.1-0.2c0.1-0.3 0.3-0.4 0.5-0.7zm20.4-9.7c0.2 0 0-0.1 0.2 0.1c0 0 0.1 0.2 0.1 0.3c0.1 0.2 0.1 0.3 0.1 0.6c-0.3 0.1-0.2 0.1-0.4 0.4c-0.2 0.1-0.2 0.2-0.4 0.3c-0.1 0.2-0.3 0.4-0.6 0.5c-0.2-0.1-0.6-0.4-0.6-0.6l0.6-0.7c0.2 0.1 0.3 0.3 0.4 0c0.1-0.2-0.1-0.2-0.2-0.4c0.4-0.1 0.4-0.4 0.8-0.5zm-2.2-2.2c0.2 0.1 0.3 0.1 0.5 0.3c0.1 0.1 0.1 0.2 0.1 0.2c0.2 0.3 0.1-0.1 0.1 0.2c-0.1 0.4-0.3 0.4-0.6 0.8c-0.1-0.2-0.5-0.7-0.7-0.6c-0.4 0.2 0.2 0.6 0.4 0.7l-0.7 0.7c-0.1 0-0.1 0-0.2-0.1l-0.4-0.4c-0.1-0.2 0 0.1-0.1-0.2zm-1.6 0.4c0.4-0.3 0.5-0.4 1.1-0.4l-1.4 1.3c-0.1 0-0.1 0-0.2-0.1l-0.4-0.4c-0.1-0.2 0 0.1-0.1-0.1l0.7-0.7zm1.1-0.4c0.2 0 0.2-0.1 0.3 0c0.1 0 0.1 0 0.1 0c0 0 0.1 0 0.1 0.1l-1.5 1.6c-0.4-0.2-0.2 0.1-0.4-0.3zm1.6 1.2c0.2 0 0 0 0.3 0.1l0.3 0.4c0.1 0.2 0-0.2 0 0.1c0 0.4-0.3 0.4-0.5 0.8l-0.8-0.9c0.3-0.1 0.4-0.4 0.7-0.5zm-0.9 0.9l0.6 0.7l-0.6 0.6c-0.3 0-0.6-0.4-0.7-0.6zm1.6 1.8c0.2-0.1 0.2-0.2 0.4-0.3c0.2-0.3 0.2-0.3 0.4-0.4c0 0.5-0.1 0.6-0.4 0.8l0.1 0.2l-0.7 0.6c-0.4-0.1-0.2 0-0.3-0.4c0.2-0.1 0.4-0.3 0.5-0.5zm-4.1-4.3l0.4 0.3l-0.7 0.7c-0.4-0.1-0.2 0-0.4-0.4zm2.1 2.1l0.5 0.4l-0.7 0.6c-0.4-0.1-0.2 0-0.4-0.3zm1.1 1l0.4 0.4l-0.7 0.7c-0.4-0.2-0.2-0.1-0.4-0.4zm-3.5 1.5l0.2-0.2c0.2-0.1 0.2-0.1 0.3-0.3c0.4 0.2 0.2 0 0.4 0.3c-0.2 0.2-0.2 0.2-0.4 0.4l-0.1 0.1c-0.3 0.2 0 0-0.3 0.2l-0.2-0.3c0.1-0.2-0.1 0 0.1-0.2zm3.4-3.5c0.4 0.2 0.3 0 0.4 0.5c-0.3 0-0.4 0.3-0.7 0.5l-0.3-0.2c0.3-0.4 0.5-0.4 0.6-0.8zm1 1.1c0.5 0.1 0.3 0 0.4 0.4c-0.3 0.1-0.3 0.4-0.7 0.6l-0.2-0.3c0.2-0.3 0.4-0.4 0.5-0.7zm-16.7 11.3c0 0.3-0.1 0.6-0.1 0.8l-0.2 0.7c-0.1 0.3-3.6 3.8-4.4 4.5l-1.4 1.5c-0.1 0-0.1 0-0.1 0.1c-0.2 0.2-0.7 0.2-1.7 1.1l-0.1 0.2c-0.6 0.5-0.8 1-1.2 1.7c-0.3 0.2-4.9 4.8-5.9 5.9l-0.2 0.2h-1.5c0.2-0.4 0.7-0.7 1-1.1h1.3c-0.1-0.4-0.2-0.6-0.2-1.1c0.6-0.3 3-2.9 3.7-3.6c0.7-0.7 3.4-3.2 3.7-3.8c0.2-0.3 0.4-0.3 0.8-0.4c0.5-0.2 0.4-0.1 0.4-0.7c0 0 0-0.1 0-0.1c0.2 0.3 0.2-0.1 0.2-0.1c0.5-0.5 2.1-2.1 2.3-2.4c0.3-0.2 0.5-0.2 0.9-0.4q0.4-0.2 0.7-0.6c0.3-0.3 0.7-0.9 0.8-1.4c0.5-0.3 0.8-0.9 1.2-1zm-4.2 3.4h0.6c-0.2 0.3-1.8 1.9-2.3 2.4c0 0 0 0.4-0.2 0.1c0 0 0 0.1 0 0.1v-0.7c0.2-0.1 1.7-1.6 1.9-1.9zm23-10.5c0.3 0.1 0.2-0.2 0.2 0.2c0.2 0.1 0.2-0.2 0.2 0.3c-0.5 0.2-1.9 1.9-2.6 2.4l-0.2-0.3c0.1-0.1 0-0.1 0.1-0.2c0-0.1 0.1-0.1 0.2-0.2c0.2-0.1 0.2-0.1 0.3-0.3c0.1 0 0.2 0 0.3 0.1c0.1-0.3 0.3-0.4 0.5-0.6c0.4-0.4 0.2-0.2 0.4-0.7c0.2-0.2 0.5-0.5 0.6-0.7zm-23.6 8.9c0.1 0 0.2 0 0.2-0.1c0.5-0.5 1.6-1.7 2-1.9c0.1 0.2 0.1 0.2 0.1 0.5c-0.3 0.2-1.5 1.4-1.7 1.7h-0.7zm12.5-13.9c0.1-0.1 0.2-0.1 0.2-0.2c0.1-0.1 0-0.1 0.1-0.2l0.8 0.8l-0.2 0.2c0 0 0 0-0.1 0c-0.1 0.2-0.1 0.3-0.4 0.4c-0.3 0-0.6-0.4-0.7-0.6c0.1-0.3 0.2-0.2 0.3-0.4zm8 6.6c0.1 0 0.2-0.1 0.2-0.1c0.2-0.2 0.2-0.2 0.4-0.3c0.3 0.1 0.6 0.4 0.7 0.7c-0.2 0.2-0.2 0.2-0.4 0.3c0 0-0.1 0.1-0.1 0.2c-0.1 0.1-0.1 0.1-0.2 0.2l-0.7-0.8c0.2-0.2-0.1 0.1 0.1-0.2zm-3.1-3.1l0.2-0.2c0.1-0.1 0.1-0.1 0.3-0.3c0.3 0.1 0.6 0.5 0.7 0.7c-0.1 0.2-0.1 0.2-0.3 0.4l-0.1 0.1c-0.3 0.2-0.1 0-0.2 0.2l-0.8-0.7c0.2-0.2 0 0 0.2-0.2zm-1-1c0-0.1 0.1-0.2 0.1-0.2c0.2-0.2 0.2-0.2 0.4-0.3c0.2 0.1 0.6 0.4 0.7 0.7c-0.2 0.1-0.2 0.1-0.4 0.3l-0.1 0.2c-0.2 0.2 0 0-0.2 0.2l-0.8-0.8c0.3-0.1 0 0.1 0.3-0.1zm2.1 2l0.1-0.1c0.2-0.2 0.2-0.2 0.4-0.3c0.3 0.1 0.6 0.4 0.7 0.7c-0.2 0.1-0.2 0.1-0.4 0.3l-0.1 0.2c-0.2 0.2 0 0-0.2 0.2l-0.8-0.8c0.3-0.1 0 0.1 0.3-0.2zm-4.2-4.1c0-0.1 0.1-0.2 0.1-0.2c0.2-0.2 0.2-0.2 0.4-0.3c0.2 0.1 0.6 0.4 0.6 0.7c-0.1 0.2-0.1 0.1-0.2 0.3c-0.1 0.1-0.2 0.2-0.2 0.2c-0.2 0.2 0 0-0.2 0.2l-0.8-0.8c0.3-0.1 0 0.1 0.3-0.1zm5.2 5.2l0.2-0.1c0.1-0.2 0.1-0.2 0.3-0.4c0.3 0.1 0.6 0.4 0.7 0.7c-0.1 0.2-0.1 0.2-0.3 0.4c0 0-0.1 0.1-0.2 0.1c-0.2 0.3 0 0-0.1 0.3l-0.8-0.8c0.2-0.2 0 0 0.2-0.2zm-4.2-4.2c0 0 0.1-0.1 0.2-0.2c0.1-0.1 0.1-0.1 0.3-0.3c0.3 0.1 0.7 0.5 0.7 0.7c-0.1 0.2-0.1 0.2-0.3 0.4c0 0-0.2 0.1-0.2 0.2c-0.2 0.2 0-0.1-0.1 0.1l-0.8-0.7c0.2-0.2 0 0 0.2-0.2zm2.7 3.6c0 0 0-0.1 0.1-0.1c0 0 0 0 0 0l0.8 0.7l-0.2 0.2c-0.3 0.2-0.3 0.3-0.5 0.4c-0.3 0-0.6-0.2-0.6-0.4c-0.2-0.3-0.1 0-0.1-0.2c0.1-0.3 0.2-0.3 0.5-0.6zm2 2.1l0.2-0.1l0.8 0.7l-0.2 0.1c-0.3 0.3-0.3 0.4-0.5 0.5c-0.3 0-0.7-0.4-0.7-0.6c0.1-0.3 0.2-0.3 0.4-0.6zm-5.4-4.9l0.3-0.5l0.8 0.8c-0.4 0.3-0.4 0.4-0.7 0.6l-0.4-0.3c0 0-0.2-0.1-0.2-0.2c-0.1-0.2 0 0.1-0.1-0.2c0.1-0.2 0.1-0.1 0.3-0.2zm1 1c0.1-0.1 0.1 0 0.2-0.2l0.2-0.2l0.8 0.7l-0.2 0.2c-0.3 0.2-0.2 0.3-0.6 0.4l-0.4-0.2c0 0-0.1-0.2-0.2-0.2c-0.1-0.3 0 0.1 0-0.2c0.1-0.2 0-0.2 0.2-0.3zm0.2 14.5l0.4-0.5c0.2 0.3 0.1 0.3 0.3 0.5c0.2 0.2 0.2 0.3 0.4 0.4c-0.4 0.3-0.4 0.5-0.8 0.6c-0.1 0 0 0-0.1-0.1c-0.5-0.4-0.4-0.5-0.4-0.6c0.1-0.3 0.1-0.2 0.2-0.3zm-2.3-16.6c0.2-0.1 0.1 0 0.2-0.2l0.2-0.3l0.8 0.8l-0.4 0.4c-0.2 0.2-0.1 0.2-0.4 0.3c-0.1-0.1 0 0-0.2-0.2l-0.4-0.5c0.1-0.2 0-0.2 0.2-0.3zm5.7 4.9l0.7 0.7l-0.2 0.2c-0.2 0.1-0.1 0.1-0.2 0.2c-0.2 0.1-0.1 0.1-0.3 0.2c-0.3-0.1-0.6-0.4-0.7-0.7zm-2.1-2.1l0.7 0.8l-0.2 0.2c-0.3 0.2-0.2 0.3-0.5 0.4c-0.3 0-0.6-0.4-0.6-0.7zm5.9 0.4c0.2 0.1 0.3 0.2 0.4 0.4c0.3 0.4 0.2 0.1 0.2 0.3c-0.1 0.3-0.4 0.6-0.7 0.8c-0.1-0.3-0.1-0.2-0.2-0.5c-0.1 0-0.2-0.1-0.2-0.2c-0.2-0.2-0.1 0-0.1-0.2zm-25.1 10.4c0.2 0 0 0 0.3 0.1l0.4 0.3c0.1 0.1 0.1 0 0.1 0.2l-0.6 0.7c-0.4-0.2-0.5-0.4-0.8-0.6zm24-11.4l0.7 0.6l-0.7 0.7c-0.2-0.1-0.6-0.5-0.7-0.7zm-5.1 15l0.2 0.4c-0.3 0.1-1.2 1.1-1.3 1.3c-0.2-0.1-0.1 0-0.3-0.1c-0.3-0.1 0 0.2-0.2-0.2c0.3-0.1 0.6-0.4 0.7-0.6c0.2 0 0.1 0 0.1-0.2c0.4-0.2 0.4-0.4 0.8-0.6zm-0.1-20.3l0.6 0.7l-0.6 0.7c-0.2-0.1-0.1 0-0.3-0.1l-0.4-0.6zm-14.5 14.5c-0.1 0.3-0.1 0.4-0.2 0.7c-0.1 0-0.2 0.4-0.3 0.5c-0.3 0.2-0.8 0.5-1.2 0.5c0.2-0.3 1.4-1.5 1.7-1.7zm2.2-0.8l0.2 0.1v0.4c-0.4 0.2-0.6 0.7-1.1 1c0-0.3 0.1-0.4 0.1-0.7zm18.2-7.7l0.3 0.4l-0.6 0.6c-0.4-0.2-0.2 0-0.4-0.4zm-4 2.1l0.2-0.2l0.4 0.3l-0.7 0.7c-0.4-0.2-0.2-0.1-0.4-0.4c0.3-0.2 0.3-0.3 0.5-0.4zm-2-2.2l0.1-0.1l0.3 0.3l-0.6 0.7c-0.5-0.2-0.2 0-0.4-0.4c0.3-0.2 0.3-0.3 0.6-0.5zm-0.6-5.7c0.1-0.2 0.2-0.2 0.3-0.3c0.3 0.1 0.2 0 0.4 0.2l-0.7 0.7c-0.1-0.1-0.2-0.1-0.4-0.2c0.2-0.3 0.2-0.2 0.4-0.4zm-18.5 16.3c0.1-0.1 0.1 0 0.2-0.1l0.2 0.4l-0.6 0.7c-0.1-0.1 0 0-0.2-0.1c0-0.1-0.1-0.1-0.1-0.2c0 0 0 0-0.1-0.1zm3.7-3.6c0.4 0.1 0-0.2 0.3 0.2c-0.2 0.3-0.4 0.4-0.5 0.7c-0.1 0-0.3 0-0.3-0.1c-0.4 0-0.1 0-0.2-0.2c0.2-0.1 0.5-0.4 0.7-0.6zm-2.5 4.5c0.3 0 0.2-0.1 0.3 0.1c0.4 0 0.1-0.1 0.2 0.2c-0.2 0.1-0.5 0.4-0.6 0.6c-0.3-0.1-0.2 0-0.5-0.2zm19.4-10.9l0.1-0.1c0.2-0.2 0.2-0.2 0.4-0.4c0.4 0.1 0.1 0 0.3 0.4c-0.2 0.1-0.2 0.1-0.3 0.3l-0.2 0.1c-0.2 0.2 0 0.1-0.2 0.2l-0.3-0.3c0.2-0.2 0 0 0.2-0.2zm4.2 4.2c0 0 0.1-0.1 0.2-0.2c0.1-0.1 0.1-0.1 0.2-0.3c0.4 0.1 0.3 0 0.4 0.4c-0.2 0.1-0.1 0.1-0.3 0.2c-0.1 0.1-0.2 0.2-0.2 0.2c-0.2 0.2 0 0-0.2 0.2l-0.3-0.3c0.2-0.2 0 0 0.2-0.2zm-3.1-3.2l0.1-0.1c0.2-0.2 0.2-0.2 0.3-0.4c0.4 0.2 0.2 0.1 0.4 0.4c-0.2 0.1-0.2 0.1-0.4 0.3l-0.1 0.2c-0.2 0.2 0 0-0.2 0.1l-0.3-0.2c0.1-0.3-0.1 0 0.2-0.3zm-3.2-3.1c0 0 0.1-0.2 0.1-0.2c0.2-0.1 0.2-0.1 0.4-0.3c0.4 0.2 0.1 0 0.3 0.3c-0.2 0.2-0.2 0.2-0.3 0.4c0 0-0.2 0.1-0.2 0.1c-0.2 0.2 0 0-0.2 0.2l-0.3-0.3c0.2-0.2 0 0.1 0.2-0.2zm-1.1-1c0-0.1 0.2-0.2 0.2-0.2c0.2-0.2 0.2-0.1 0.3-0.4c0.4 0.2 0.2 0.1 0.4 0.4c-0.2 0.1-0.2 0.1-0.3 0.3c-0.1 0.1-0.2 0.1-0.2 0.2c-0.3 0.2 0 0-0.3 0.1l-0.2-0.2c0.1-0.3-0.1 0 0.1-0.2zm5.3 5.2c0 0 0.2-0.1 0.2-0.1c0.1-0.2 0.1-0.2 0.3-0.4c0.4 0.1 0.2 0 0.3 0.4c-0.2 0.1-0.1 0.1-0.3 0.3c-0.1 0-0.2 0.1-0.2 0.1c-0.2 0.2 0 0-0.2 0.2l-0.3-0.3c0.2-0.2 0 0 0.2-0.2zm-2.7-1.5l0.3-0.2l0.3 0.2c0 0.1-0.1 0.1-0.1 0.1c0 0 0 0.1 0 0.1c-0.3 0.3-0.4 0.3-0.5 0.6c-0.5-0.2-0.3 0-0.4-0.4c0.2-0.1 0.2-0.2 0.4-0.4zm-4.2-4.2c0 0 0-0.1 0.1-0.1l0.2-0.2l0.2 0.3l-0.1 0.3c-0.2 0.1-0.1 0-0.2 0.2c-0.2 0.1-0.2 0.1-0.2 0.2c-0.5-0.1-0.3 0-0.5-0.3c0.3-0.2 0.3-0.2 0.5-0.4zm2.4 1.8l0.3 0.3l-0.3 0.3c-0.1 0.1 0 0-0.1 0.2c-0.2 0.1-0.1 0.1-0.2 0.3c-0.5-0.2-0.3 0-0.5-0.4c0.4-0.2 0.4-0.3 0.8-0.7zm3.7 4.6c0.2-0.1 0.1 0 0.2-0.1l0.3-0.2l0.3 0.2l-0.2 0.2c-0.2 0.3-0.3 0.2-0.5 0.6c-0.4-0.2-0.2-0.1-0.3-0.4c0.1-0.1 0.1-0.1 0.2-0.3zm1.4 0.8l0.1-0.1l0.3 0.3l-0.4 0.4c-0.1 0.2-0.1 0.1-0.2 0.3c-0.4-0.2-0.2 0-0.4-0.4c0.3-0.1 0.3-0.2 0.6-0.5zm-6.6-6l0.4-0.4l0.3 0.3l-0.4 0.4c-0.1 0.2-0.1 0.1-0.2 0.3c-0.5-0.1-0.2 0-0.4-0.4c0.2-0.1 0.1-0.1 0.3-0.2zm9.7 7.2l-0.1 0.3l-1.1 1.2h-0.3zm-24.4 3.4l0.1 0.3c-0.1 0.4-0.4 0.4-0.5 0.8c-0.1-0.1-0.2-0.1-0.3-0.1v-0.3zm16.4 4.7l0.2 0.2l-0.4 0.4c-0.1 0.2-0.1 0.1-0.2 0.3c0 0-0.2 0-0.3-0.1v-0.2zm-25-16.4l0.7 0.8l-0.1 0.1c0 0 0 0-0.1 0.1l-0.5 0.5c-1.5 1.4-9.7 9.5-10 10l-0.8-0.8c0.6-0.3 10-10.1 10.8-10.7zm19.8-7.1c0.4 0.1 0.3 0.6 0.3 1.1c-0.2 0.1-0.1 0-0.3 0.2c-0.1 0.1-0.1 0.2-0.2 0.3l-0.6 0.6h-0.5v0.5l-1.9 1.8c-0.5 0.5-1.4 1.4-1.7 1.9h-1.6c1-1.2 3.8-3.7 5.1-5.1l0.2-0.2h0.5v-0.6c0.3-0.2 0.4-0.4 0.7-0.5zm-8.8 2.4l1.2-1.3h1.5c-0.2 0.4-2.1 2.2-2.6 2.7c-0.6 0.5-2.2 2.1-2.5 2.6h-1.5c0.5-0.7 2.9-3 3.9-4zm2 0.1l1.3-1.3c0 0 0-0.1 0.1-0.1h1.4c-0.2 0.4-2.1 2.2-2.6 2.7c-0.5 0.5-2.2 2.1-2.5 2.6h-1.6c0.6-0.7 3-3 3.9-3.9zm3.3-1.2l0.2-0.2h1.3c-0.1 0.4-2 2.2-2.5 2.7c-0.5 0.5-2.2 2.1-2.6 2.6h-1.5c1-1.2 3.8-3.7 5.1-5.1zm-6.3 0l0.1-0.2h1.5c-0.2 0.4-2.2 2.2-2.6 2.7c-0.5 0.5-2.3 2.1-2.5 2.6h-1.5c0.9-1.2 3.7-3.7 5-5.1zm-2.1 0l0.1-0.1v-0.1h1.4c-0.1 0.4-2.1 2.2-2.5 2.7c-0.5 0.5-2.2 2.1-2.5 2.6h-1.5c0.9-1.2 3.7-3.7 5-5.1zm-2.3 0.2l0.4-0.4h1.3c-0.1 0.4-3.6 3.8-4.4 4.6c-0.1 0.1-0.2 0.2-0.3 0.3c-0.3 0.3-0.3 0.4-0.3 0.3l-0.1 0.1c-0.1-0.2-0.3-0.2-0.5-0.3q-0.1 0-0.3-0.1c-0.2-0.2 0 0.1-0.1-0.1c0.2-0.4 3.5-3.6 4.3-4.4zm-5.1 3l3.2-3.2c0.1-0.1 0.1-0.1 0.1-0.1c0 0 0-0.1 0.1-0.1h1.4c-0.2 0.3-4 4.2-4.4 4.4c-0.2-0.1 0 0.1-0.2-0.2c0 0-0.1-0.2-0.1-0.3c-0.1-0.1-0.1-0.2-0.2-0.4c0 0 0.1-0.1 0.1-0.1zm14.8-0.7c0.5-0.5 2.4-2.3 2.5-2.7h0.8l-0.2 0.2c-1.3 1.4-4.1 3.9-5.1 5.1h-0.6c0.4-0.5 2.1-2.1 2.6-2.6zm1.3 0.7l1.9-1.8v0.7c-0.3 0.1-2.7 2.6-3.1 3h-0.5c0.3-0.5 1.2-1.4 1.7-1.9zm-9.7-0.7c0.4-0.5 2.4-2.3 2.5-2.7h0.7l-0.1 0.2c-1.3 1.4-4.1 3.9-5 5.1h-0.6c0.3-0.5 2-2.1 2.5-2.6zm6.3 0c0.5-0.5 2.4-2.3 2.6-2.7h0.7l-0.2 0.2c-1.3 1.4-4.1 3.9-5.1 5.1h-0.5c0.3-0.5 2-2.1 2.5-2.6zm-2.1 0c0.5-0.5 2.4-2.3 2.6-2.7h0.7c-0.1 0-0.1 0.1-0.1 0.1l-1.3 1.3c-0.9 0.9-3.3 3.2-3.9 3.9h-0.5c0.3-0.5 1.9-2.1 2.5-2.6zm-2.1 0c0.4-0.5 2.4-2.3 2.6-2.7h0.6l-1.2 1.3c-1 1-3.4 3.3-3.9 4h-0.6c0.2-0.5 2-2.1 2.5-2.6zm-6.7 2.5c0 0.1 0 0 0.3-0.3c0.1-0.1 0.2-0.2 0.3-0.3c0.8-0.8 4.3-4.2 4.4-4.6h0.7v0.1l-0.1 0.1c-1.3 1.4-4.1 3.9-5 5.1h-0.7zm2.5-8.2c0.4-0.2 1-0.1 1.6-0.1l-0.8 0.9c-0.3 0.2-0.4 0.1-0.6 0.4c-0.3 0.4 0 0.4-0.4 0.6c-0.3 0.3-1.1 0.2-1.6 0.2c0.1-0.3 0.1-0.3 0.4-0.5c0.1-0.1 0.1-0.2 0.2-0.2c0.2-0.2 0.1-0.2 0.3-0.4c0.4-0.2 0.2-0.6 0.9-0.9zm-1.6 3h0.7c0 0 0 0.1 0 0.1c-0.1 0-0.1 0-0.1 0.1h-0.1l-3.2 3.2c0 0 0 0.1 0 0.1v-0.8c0.3-0.1 2.6-2.4 2.7-2.7zm2.1 0h0.7l-0.3 0.4c-0.8 0.8-4.2 4-4.3 4.4c-0.4-0.2-0.2 0-0.4-0.4c0.3-0.2 4.2-4.1 4.3-4.4zm-6-1.5c0.5-0.4 1-0.6 1.9-0.6l-1.1 1.2l-0.3 0.3c-0.5 0.3-0.6 0.6-1 0.9c0-0.9 0-1.4 0.5-1.8zm19.2 3.8c0 1.3 0 1.7-0.7 2.3c-0.6 0.6-1.2 0.7-2.3 0.7c0.3-0.4 2.7-2.9 3-3zm-16.7-2.3h1.4c-0.1 0.3-2.4 2.6-2.7 2.7v-1.3zm14.1-1.6c0.1-0.1 0.2-0.1 0.3-0.2c0.1-0.2 0.1-0.2 0.2-0.3h1.5c-0.1 0.1-0.2 0.2-0.4 0.4l-0.6 0.6h-1.3c0.1-0.3 0.1-0.3 0.3-0.5zm-14.7 0c0.1-0.1 0.2-0.1 0.3-0.2c0.2-0.2 0.1-0.2 0.2-0.3h1.5l-1 1h-1.3c0.1-0.3 0.1-0.3 0.3-0.5zm-1.4 1.6h1.3c-0.2 0.3-0.7 0.6-1 1c-0.2 0-0.5 0-0.7 0c-0.4 0-0.5 0-0.6-0.3c0.5-0.2 0.6-0.6 1-0.7zm9.3-3.2h1.5l-0.9 0.9h-1.5zm-2.1 0h1.5l-0.8 0.9h-1.5zm4.2 0h1.5l-0.8 1h-1.5zm2.1 0c0.6 0 1 0 1.2 0.3c-0.3 0.2-0.4 0.5-0.7 0.6c-0.3 0.1-0.9 0-1.4 0zm1.4 0.8l0.1-0.2c0.1 0.2 0.1 0.1 0.2 0.4h0.9l-0.8 0.8c-0.1 0-0.1 0.1-0.1 0.1l-0.1 0.2c-0.5-0.1-0.7-0.2-0.8-0.7c0.3-0.4 0.3-0.3 0.6-0.6zm6.7 5.1c0.4 0.3 0.2 0 0.4 0.4l-1.5 1.5c-0.4-0.2-0.2 0-0.4-0.4zm-2.8-4.9c0.2 0.2 0.3 0.2 0.5 0.3c0.1 0 0.2 0.1 0.3 0.1c0.2 0.2 0-0.1 0.1 0.1c-0.1 0.4-0.4 0.5-0.6 0.8c-0.4-0.3-0.5-0.2-1.2-0.2c0.2-0.4 0.6-0.7 0.9-1.1zm4.1 6.1c0.2-0.2 0.4-0.4 0.6-0.7c0.3-0.3 0.3-0.3 0.8-0.5l-1.9 2.1h-0.1l-0.3-0.3c0.2-0.2 0 0.1 0.2-0.2c0 0 0.1-0.1 0.2-0.1c0.1-0.2 0.1-0.2 0.2-0.4c0.1 0 0.3 0 0.3 0.1zm-2.9 0.1c0.1-0.3 1-1.3 1.4-1.3c0.5-0.1 0.2-0.1 0.2 0l-1.5 1.5c0 0-0.2 0.4-0.1-0.2zm-18.7-4.1h0.7l-1.3 1.4v-0.3h-0.3c0.3-0.4 0.8-0.7 0.9-1.1zm13.9-1.2c0 0 0 0 0.1 0l0.8-0.9h0.6c-0.2 0.2-0.1 0.2-0.3 0.4c-0.1 0-0.1 0.1-0.2 0.2c-0.3 0.2-0.3 0.2-0.4 0.5h-0.7zm-13.8-0.9h0.6c-0.2 0.2-0.1 0.2-0.2 0.3c-0.1 0.1-0.2 0.2-0.3 0.3c-0.2 0.2-0.3 0.2-0.4 0.5c-0.5 0-0.3 0-0.8 0.1zm2.1 0h0.6c-0.1 0.1-0.1 0.1-0.2 0.3c-0.1 0.1-0.2 0.1-0.3 0.2c-0.2 0.2-0.2 0.2-0.3 0.5h-0.8zm14.3 0.5c0.2-0.2 0.3-0.3 0.4-0.5h0.7c-0.3 0.4-0.8 0.7-1 1.1h-0.7zm-17.7 1v0.6c-0.4 0.2-0.5 0.5-1 0.8c0-0.2 0 0 0-0.3c0 0 0-0.2 0-0.2c0.3-0.3 0.5-0.6 1-0.9zm19.8 1.1c0.1-0.1 0.1-0.2 0.2-0.3c0.2-0.2 0.2-0.1 0.3-0.2c0 0.5 0 0.5 0 0.9c-0.5 0.1-0.5 0.1-1.1 0.1zm-6.9-3.6h0.6l-0.9 0.9h-0.5zm-4.3 0h0.6l-0.8 0.9h-0.6zm-2 0h0.5l-0.8 1h-0.6zm4.2 0h0.5l-0.8 0.9h-0.6zm12.4 8.6c0-0.1 0.2-0.2 0.2-0.2c0.2-0.2 0.2-0.1 0.3-0.4c0.4 0.2 0.2 0.1 0.4 0.4c-0.2 0.1-0.2 0.1-0.4 0.3c0 0.1-0.1 0.2-0.1 0.2c-0.3 0.2 0 0-0.3 0.1l-0.2-0.2c0.1-0.2-0.1 0 0.1-0.2zm-8.4-8.3l0.2 0.3l-0.1 0.2c-0.3 0.3-0.3 0.2-0.6 0.6c0 0-0.1-0.1-0.2-0.2c-0.1-0.2 0 0-0.1-0.3c0.4-0.1 0.4-0.3 0.8-0.6zm4.9 1.2c0.5 0.2 0.2 0.1 0.4 0.4c-0.3 0.2-0.4 0.4-0.8 0.6l-0.2-0.2c0.2-0.4 0.5-0.4 0.6-0.8zm1 28.5l3.2-3.3l0.4 0.3c0 0 0 0-0.1 0.1c-0.1 0.1-0.1 0.2-0.2 0.3l-1.1 1.1l-0.6 0.6c-0.2 0.2-1 0.9-1.2 1.2c-0.2 0-0.1-0.1-0.1 0.1l-2.6 2.5c-0.2 0.2-0.5 0.4-1 0.4c0.4-0.6 2.6-2.5 3.3-3.3zm-7.6-4.3c0.5-0.6 2-1.9 2.3-2.5c0.2 0.2 0.3 0.3 0.5 0.4c0.2 0.2 0.1 0.2 0.4 0.3c-0.7 0.5-1.6 1.6-2.2 2.2c-0.6 0.6-1.9 1.7-2.2 2.3c-0.4-0.3-0.8-0.2-1.1-0.4c0.5-0.7 1.6-1.7 2.3-2.3zm-4.6-1.7c0.4-0.1 0.9 0 1.4 0c-0.3 0.3-1.7 1.8-2 1.9v-1.3c0.1-0.2 0.4-0.5 0.6-0.6zm-1.9-2.3c0.2 0.4 0.1 0.6 0.5 1c-0.1 0.1-0.1 0-0.2 0.1l-0.6 0.6l-7.7 7.7l-0.1-0.2c0-0.1 0-0.1 0-0.1l-0.1-1zm0.1-2.2c0 0.3-0.2 0.6-0.2 0.8c-0.1 0.3 0 0.6 0 0.9c-0.6 0.3-1.6 1.5-2.1 2c-0.7 0.7-1.4 1.3-2 2c-0.7 0.7-3.6 3.7-4.1 4c0-0.9-0.1-0.5-0.3-1zm-0.3 4.4v1.6c-0.6 0.3-1.4 1.3-1.9 1.8c-0.7 0.7-1.3 1.3-1.9 1.9c-0.5 0.5-3.4 3.5-3.8 3.6c0-0.2-0.1-1-0.2-1.1zm0 2.1v1.5l-7.1 7l-0.1-0.1c-0.1-0.3 0.1 0.3 0-0.1l-0.2-1zm13.1 8.2c0.3-0.1 0.3-0.2 0.6-0.3c0.6-0.2 0.9-0.4 1.4-0.5l-7 7.1h-1.5c0.4-0.6 2.3-2.3 2.9-3c0.6-0.5 2.6-2.5 2.9-3c0.2-0.1 0.5-0.2 0.7-0.3zm-4.6-2c0.1 0.2 0 0.1 0.3-0.3c1.2-1.2 4.2-4 4.9-4.9l0.2-0.2c0.1 0.2 0.1 0.2 0.4 0.4c0.2 0.2 0.1 0 0.3 0.4c-0.4 0.4-1.1 1.1-1.6 1.5c-0.5 0.6-0.9 1-1.5 1.5c-0.4 0.5-2.7 2.9-3.1 3c0.1-0.1 0.3-1.3 0-1.3c0 0 0.1-0.1 0.1-0.1zm2.9 2.7c-0.7 0.9-5.1 5-5.4 5.6h-1.5c0.2-0.4 2.6-2.7 3.2-3.3l1.1-1.1c0.2-0.2 2.3-1.1 2.6-1.2zm1.2-8.8c0.3 0 0.2-0.1 0.5 0.2c0 0 0.2 0.1 0.2 0.1c0.2 0.3 0.1-0.1 0.1 0.2c-0.1 0.3-4.7 4.9-5.1 5.1c0-0.5 0-0.3-0.1-0.6c-0.2-0.5-0.2-0.1-0.1-0.5c0.1-0.3 4.1-4.3 4.5-4.5zm-14.2 5.8c0 0.4-0.1 0.4-0.2 0.8c0 0.2 0 0.6 0 0.8c-0.5 0.3-1.7 1.7-2.2 2.2c-0.4 0.4-1.8 1.9-2.2 2c-0.1-0.1-0.1-0.3-0.1-0.5h-0.6c0.1-0.3 4.8-4.9 5.3-5.3zm13.1-6.7c0.2 0 0-0.1 0.2 0c0.2 0.1 0.1 0 0.2 0.1c0.2 0.1 0.2 0.2 0.3 0.4c-0.1 0.3-3.9 4.1-4.4 4.4c-0.4-0.1 0 0-0.4-0.3c-0.1-0.2-0.1-0.2-0.2-0.3c0.2-0.5 4-4.3 4.3-4.3zm-13.1 8.8c0.1 0.4 0.2 0.6 0.3 1c-0.4 0.6-1.5 1.6-2.1 2.2c-0.5 0.5-1.8 1.6-2 2.1c-0.2-0.1-0.3-0.3-0.4-0.5c-0.1-0.4-0.1-0.2 0-0.5c0-0.3 3.8-4 4.2-4.3zm17.7-1.1c-0.3 0.6-1.1 1.2-1.6 1.7c-0.5 0.4-0.5 0.1-0.8 0.7v0.2l-5 5h-0.6l7-7.1c0.3-0.3 0.6-0.4 1-0.5zm-5.9-8.8c0.4 0.2 0.8 0.5 1 0.7c-0.2 0.1-3.9 3.6-4.4 4.3c-0.3-0.3-0.5-0.4-0.9-0.7c0.4-0.2 4.1-3.9 4.3-4.3zm-13.3 13.5c0.6-0.7 1.6-1.5 2-2.2c0.2 0.3 0.2 0.3 0.3 0.5c0.2 0.3 0.2 0.2 0.3 0.5c-0.7 0.8-3.1 3-3.9 3.9l-0.1 0.2c-0.4-0.2-0.7-0.5-0.7-0.9c0.3-0.4 1.6-1.5 2.1-2zm8.4-6.5c0.3 0.2 0.5 0.6 0.6 1.1c-0.4 0.1-3 2.8-3.3 3.2c-0.4 0-0.8-0.3-1-0.6c0.4-0.2 3.5-3.3 3.7-3.7zm-1.3-0.6c0.5-0.2 0.7 0.1 1.1 0.4c-0.4 0.2-3.5 3.3-3.7 3.7c-0.3-0.2-0.6-0.6-0.4-1.1c0.1-0.2 2.7-2.9 3-3zm-8-5.3c0.7-0.7 1.4-1.4 2.1-2.1c0.5-0.5 1.5-1.7 2.1-2c0 0.2 0 0.2 0 0.5l-8.2 8.1c0-0.4 0.1-0.3 0-0.6c0.5-0.2 3.4-3.3 4-3.9zm4-1.9v0.6l-7.7 7.8v-0.7zm-0.2 13.4c0.2 0.1 0 0 0.3 0.2c0.2 0.1 0.1 0 0.2 0.1l0.3 0.3c-0.3 0.5-2.3 2.3-2.9 3c-0.1 0.1 0 0-0.1 0.1h-1.5zm13.9-1.2c0 0.3-0.1 0.3-0.1 0.7h0.7c-0.1 0.2-0.2 0.3-0.4 0.5l-0.5 0.5c-0.2 0.1-0.1 0-0.4 0.4l-0.1 0.1c-0.2 0.1-2.4 2.3-2.8 2.8h-1.4zm-13.7-8c0.2 0.4 0 0.2 0.2 0.2c0 0 0.1 0 0.1-0.1q0.1 0 0.2 0c-0.4 0.6-3.1 3.1-3.8 3.8c-0.7 0.7-3.1 3.3-3.7 3.6c-0.1-0.2-0.1 0-0.1-0.5zm-3.8 1.7c0.7-0.7 1.3-1.2 1.9-1.9c0.5-0.5 1.4-1.5 1.9-1.9v0.6l-7.4 7.4c-0.1-0.3 0-0.2-0.1-0.6c0.3-0.1 3.2-3.1 3.7-3.6zm15.3 1.5c0.6-0.6 1-1 1.5-1.6c0.5-0.4 1.2-1.1 1.6-1.5c0.4 0 0.1-0.1 0.4 0.2c-0.3 0.4-4.7 4.7-5.8 5.8l-0.9 0.9c0.1-0.5 0.1-0.4 0.1-0.9c0.4-0.1 2.7-2.5 3.1-2.9zm4.5-1.7c-0.1 0.3-0.2 0.4-0.3 0.8c0 0.5 0.1 0.3 0.1 0.9q-0.6 0.3-1 1c-0.1 0.1-0.9 0.4-1.3 0.6c-0.3 0.1-1 0.5-1.4 0.5l2.5-2.5c0 0.2 0 0.2 0 0.3l0.2-0.4c0.2-0.3 0.9-1 1.2-1.2zm-15 8.5c0.3 0.1 0.4 0.2 0.6 0.3c0.1 0 0.2 0 0.3 0c0.2 0.1 0.1 0.1 0.2 0.1c-0.5 0.7-1.8 1.8-2.3 2.4l-0.1 0.2h-1.5c0.6-0.9 2.3-2.1 2.8-3zm-17.7-5.2c0.6-0.6 1.4-1.6 2.1-2.1c-0.1 0.3-0.3 0.4-0.5 0.7c-0.2 0.3-0.3 0.4-0.5 0.6c-0.4 0.4-0.6 0.9-1 1.3c-1.4 1.7-1.7 2.5-1.7 2.6l-0.9 0.8c-0.2-0.4-0.1-1.6 0.3-1.8c0.5-0.3 1.7-1.6 2.2-2.1zm9.3 4.7c1-1.1 5.6-5.7 6-5.9c-0.1 0.3-0.1 0.6-0.2 0.8c-0.5 0.4-5.2 5-5.3 5.3h-0.7zm22.1-7.8c0-0.3 0.2 0 0.1 0c0 0-0.1 0.3-0.1 0zm-2.2 5.3c-0.4 0.5-2.4 2.5-3 3c-0.6 0.7-2.5 2.4-2.9 2.9h-0.6c0.3-0.5 4.7-4.6 5.4-5.5c0.4-0.2 0.7-0.3 1.1-0.4zm-9.8 3.7c0.4-0.2 0.9-0.1 1.4-0.1c-0.4 0.5-2 1.9-2.3 2.3h-1.5c0.2-0.3 2.1-2.2 2.4-2.2zm10.7-11.6c0.2 0.1 0.2 0.1 0.5 0.2l-0.2 0.2c-0.7 0.9-3.7 3.7-4.9 4.9c-0.3 0.3-0.2 0.5-0.3 0.3c0 0 0 0 0 0.1c0-0.3 0-0.5-0.2-0.6c0.4-0.2 5-4.8 5.1-5.1zm-28.7 3.6c0.5-0.5 1.8-1.9 2.3-2.2c-0.2 0.4-1.3 2-1.6 2.2c-0.7 0.5-1.5 1.4-2.1 2.1c-0.5 0.4-1.7 1.8-2.2 2c0.2-0.5 1-1.6 1.4-2c0.7-0.5 1.6-1.4 2.2-2.1zm34.1 1.5l-1.6 1.7l-1.3 0.7c-0.3 0.1-1 0.4-1.3 0.5c0.4-0.5 1.2-1.1 1.5-1.7c0.1-0.2 0-0.1 0.2-0.2l0.8-0.7c0.9 0.2 1-0.1 1.7-0.3zm-11-5.7c0.6-0.6 1.5-1.7 2.2-2.2l0.3 0.3c-0.3 0.4-3.9 4.1-4.4 4.3l-0.3-0.1c0.3-0.6 1.6-1.7 2.2-2.3zm-1.4 11.9c0.5-0.5 2-2.2 2.6-2.5c-0.1 0.3-0.2 0.4-0.2 0.6l-1.1 1.2c-0.6 0.6-2.9 2.9-3.2 3.2h-0.6zm18.8-3.4c0.2-0.2 0.2-0.3 0.4-0.4c0.1 0.1 0 0 0.2 0.2c0 0.1 0.1 0.3 0.1 0.3c0.1 0.2 0 0.3 0.2 0.5h-0.1c0 0 0 0-0.1 0c0 0.1 0 0.1 0 0.1l-0.4 0.4c-0.2 0.2-0.3 0.3-0.5 0.5l-1.1 1.1h-1.4c0.1-0.3 0.6-0.6 0.8-0.9l0.2-0.1c0.6 0 2.4 0 1.3-1.5c0.3-0.1 0.2-0.1 0.4-0.2zm-19.2-2.3c0 0.2 0.1 0.2 0.1 0.5l-2.9 2.9c-0.5 0-0.3 0-0.5-0.2c0.2-0.3 2.9-3 3.3-3.2zm5.2-7.4c0.4 0.1 0.2 0 0.3 0.4c-0.3 0.1-4.1 3.8-4.3 4.3l-0.4-0.4c0.5-0.7 4.2-4.2 4.4-4.3zm-15.2 10.9c0.6-0.5 1.8-1.9 2.3-2.2c0.2 0.3 0.1 0.1 0.1 0.5c-0.4 0.3-4.1 4-4.2 4.3c-0.2-0.2-0.2 0.2-0.2-0.2c-0.1-0.2-0.1 0.2-0.1-0.3c0.3-0.2 1.8-1.7 2.1-2.1zm16.2-10c0.5 0.1 0.3-0.1 0.5 0.4c-0.5 0.2-4.4 4.2-4.5 4.5c-0.3-0.2-0.3 0.2-0.3-0.2c-0.1-0.1 0 0.2 0-0.2c0.4-0.4 4.3-4.2 4.3-4.5zm-15.5 11.5c0.5-0.5 1.7-1.6 2-2.2l0.3 0.4c-0.5 0.7-1.5 1.5-2.1 2.2c-0.5 0.5-1.7 1.6-2 2c-0.3-0.1-0.2 0-0.3-0.3c0.3-0.5 1.6-1.6 2.1-2.1zm-1.1 3.1c0.8-0.9 3.2-3 3.9-3.9c0.4 0.2 0.2 0 0.4 0.4l-3.7 3.7h-0.7zm9.5-9.5l0.3 0.3c-0.2 0.4-3.4 3.4-3.7 3.7l-0.3-0.3c0.2-0.3 3.3-3.4 3.7-3.7zm16-2.7c0.1 0.1 0.2 0.2 0.3 0.3q0.1 0.1 0.2 0.3c0.1 0.2 0-0.1 0 0.2c-0.1 0.3-0.4 0.4-0.5 0.7c-0.2-0.1-0.2 0-0.2-0.3c-0.1 0.2-0.1-0.1-0.1 0.2c0 0.5-0.1 0 0.1 0.2l-0.7 0.7c-0.2 0.2-0.4 0.4-0.6 0.6c0.3-1 0.2-0.6 0.1-1.7c0.5-0.3 0.9-1 1.4-1.2zm-25.7 12.8c0.5-0.4 1.1-0.3 1.9-0.3l-0.8 0.9c-0.3 0.1-0.4 0.1-0.4 0.4c-0.4 0.3-0.7 0.7-1.1 1c0-0.9-0.1-1.5 0.4-2zm10.7-8.3c0 1.1-0.2 1.6-0.8 2.1c-0.6 0.6-0.9 0.8-2.1 0.8zm-2.6-2.4c0.6 0 0.4-0.1 0.6 0.2c-0.3 0.1-3 2.8-3.1 3.1c-0.2-0.2-0.2 0.2-0.2-0.6zm16.7 0.2l0.7-0.7c0 0.4 0 0.5-0.1 0.7l-2.5 2.6c-0.4 0.2-0.6 0.3-1 0.4l1.6-1.7c0.3-0.2 0.5-0.4 0.7-0.7c0.2-0.2 0.4-0.4 0.6-0.6zm-18.6 0.6c0.5-0.5 1-0.8 1.9-0.8l-2.7 2.7c0-0.8 0.3-1.5 0.8-1.9zm-3.8 9.2c0.6-0.7 2.5-2.4 2.9-2.9c0.4 0 0.1-0.2 0.4 0.2c-0.5 0.8-2.3 2-2.8 2.9h-0.7c0.1-0.2 0.1-0.1 0.2-0.2zm22.3-13.3c0.2 0.1 0 0 0.2 0.2c0.1 0 0.2 0.1 0.2 0.1c0.2 0.4 0.2 0.1 0.2 0.5c-0.1 0.3-0.9 1.1-1.2 1.1l-0.6-0.6c0.1-0.2 1-1.1 1.2-1.3zm-7.1 10.7c0 0.5-0.2 0.7-0.4 1l-1.8 1.8h-0.6c0.3-0.5 2.6-2.6 2.8-2.8zm-8.1 0.2c-0.4 0.8-1.9 1.8-2.4 2.6h-0.7c0.3-0.4 1.9-1.8 2.4-2.4zm-5.1 2.5c0.5-0.6 1.8-1.7 2.3-2.4c0.6 0 0.4-0.1 0.6 0.2c-0.4 0.1-2.2 2-2.4 2.3h-0.7zm-4.2 2.8c0.2-0.2 0.3-0.4 0.5-0.4v1.3l-0.2 0.2c-0.2 0.2-0.5 0.6-0.9 0.8v-1.4zm-10.4-6.4l0.6-0.6h1.3c-0.1 0.3-0.4 0.6-0.7 0.8l-0.2 0.3h-1.4c0.1-0.3 0.2-0.3 0.4-0.5zm2.6-0.6h1.4c-0.1 0.3-0.2 0.4-0.4 0.6l-0.5 0.5h-1.4c0.2-0.4 0.7-0.7 0.9-1.1zm-4.7 0.6l0.6-0.6h1.3c-0.1 0.3-0.5 0.6-0.8 0.9l-0.1 0.2h-1.4c0.1-0.3 0.2-0.3 0.4-0.5zm27.9 7.8l0.1-0.1c0 0 0 0 0 0c0.2-0.3 0.5-0.6 0.8-0.8v1.5c-0.2 0.1-0.1 0-0.2 0.2l-0.4 0.3c-0.2 0.2-0.2 0.3-0.5 0.4v-1.4zm8.4-8.4h1.3c0 0.3-0.2 0.4-0.4 0.6c-0.1 0.1-0.1 0.1-0.3 0.2l-0.2 0.3h-1.4c0.1-0.4 0.7-0.6 1-1.1zm-4.2 0h1.3c-0.1 0.4-0.4 0.6-0.7 0.8l-0.2 0.3h-1.4c0.2-0.4 0.6-0.6 1-1.1zm-25.2 0h1.3c-0.1 0.4-0.4 0.6-0.6 0.8l-0.3 0.3h-1.4c0.2-0.4 0.7-0.6 1-1.1zm31.4 0.1c0 0 0 0 0-0.1h1.4c-0.1 0.4-0.4 0.6-0.7 0.8l-0.2 0.3h-1.4c0.2-0.4 0.8-0.8 0.9-1zm-3.1-3.2c1.2 0 2.5-1.3 2.5-2.5zm-7.2 9.3c0.1-0.1 0.2-0.2 0.3-0.3l0.5-0.5v1.5l-0.3 0.3c-0.3 0.2-0.5 0.5-0.7 0.6v-1.4zm6.1-6.1h1.4l-0.9 1c0-0.1 0 0-0.1 0h-1.4c0.2-0.4 0.7-0.6 1-1zm0.5-8.9c0.1-0.1 0.2-0.2 0.2-0.3c0.1-0.1 0.1-0.1 0.2-0.1c0.5 0.5 0.5 0.1 0.9 0.5c-0.1 0.2-0.4 0.5-0.6 0.6c-0.5 0.2-0.6 0-1.1 0.1c-0.4 0.1-0.4 0.2-0.7 0.3zm-15.6 13.4h1.6l-0.9 0.9h-1.5zm4.8 5.7h1.5l-0.8 0.9h-1.5zm-0.7-5.6h1.5l-0.8 0.9h-1.5zm2.1 0h1.5l-0.8 0.9h-1.5zm-8.4 0h1.5l-0.8 0.9h-1.6zm-2.1 0h1.5l-0.8 0.9h-1.5zm0.6 5.7h1.5l-0.8 0.9h-1.5zm2 0h1.6l-0.9 0.9h-1.5zm2.1 0h1.5l-0.8 1h-1.5zm2.1 0h1.5l-0.8 0.9h-1.5zm-0.7-5.7h1.5l-0.8 0.9h-1.5zm4.8 5.7h1.6l-0.9 0.9h-1.5zm-13.8-0.9c0.3-0.2 0.5-0.6 0.8-0.7v1.5c-0.3 0.2-0.4 0.4-0.7 0.5c-0.1 0-0.1 0.1-0.2-0.1c0-0.2-0.1-0.2-0.1-0.3c0-0.2 0-0.5 0-0.7zm1.2 0.9h1.5l-0.9 0.9c-0.2 0-1.3 0.1-1.3-0.1c0.1-0.3 0.4-0.4 0.7-0.8zm14-5.7c0.7 0 0.8 0.1 1.1 0.5c-0.4 0.2-0.5 0.6-0.8 0.7l-0.1-0.3h-1.1zm0.8 5l0.3-0.3c0.2-0.2 0.1-0.1 0.3-0.2v0.6l-1.6 1.5h-0.5l0.8-0.9c0.2-0.1 0.1 0 0.2-0.3c0.2-0.1 0.3-0.2 0.5-0.4zm13.7-9.6c0.2-0.1 0.3-0.3 0.6-0.5l0.3-0.3c0-0.1 0.1-0.1 0.1-0.1c0 0 0-0.1 0.1-0.1v0.6l-1.4 1.5c-0.3 0.1-0.3 0-0.7 0zm-43.2-0.1c0.5 0.1 0.3 0.2 1.1 0.2c-0.1 0.3-0.2 0.3-0.4 0.5c-0.2 0.2-0.3 0.2-0.4 0.5c-0.6-0.2-0.7-0.2-1-0.6c0.3-0.3 0.4-0.5 0.7-0.6zm42.8-3.2c0.2 0.2 0.7 0.7 0.7 1c-0.3 0.1-0.4 0.4-0.7 0.5c-0.2-0.1-0.5-0.5-0.6-0.8zm-2.7-3.6c0.2 0.2 0.6 0.7 0.7 0.9c-0.4 0.3-0.4 0.5-0.7 0.6c-0.2-0.1-0.3-0.2-0.4-0.3q-0.1-0.1-0.1-0.3c-0.1-0.2 0 0.2-0.1-0.2c0.1-0.3 0.4-0.3 0.6-0.7zm0.9 1.3c0.3 0.2 0.2 0.1 0.4 0.4c0.1 0.2 0.2 0.2 0.3 0.4l-0.4 0.3c-0.1 0.2-0.2 0.2-0.3 0.3c-0.3-0.1-0.2 0-0.4-0.3c-0.2-0.3-0.2-0.1-0.2-0.5zm-6.8 0.5c0.2 0.2 0.1 0.2 0.3 0.5c0.2 0.1 0.3 0.2 0.5 0.3c-0.4 0.2-0.5 0.5-0.8 0.6c-0.4 0-0.6-0.4-0.6-0.7c0.1-0.3 0.3-0.3 0.6-0.7zm7.8 0.7l0.3 0.4c0.1 0 0.1 0.1 0.2 0.2c0.1 0.3 0-0.1 0 0.2c-0.1 0.2-0.1 0.1-0.2 0.3c-0.2 0.2-0.2 0.2-0.4 0.4c-0.1-0.3-0.1-0.2-0.3-0.5c-0.2-0.1-0.2-0.2-0.3-0.4c0.3-0.2 0.4-0.5 0.7-0.6zm-12 14c0 0.6 0 0.9-0.3 1.2c-0.1 0.1-0.4 0.3-0.5 0.4c-0.3 0-0.5 0-0.7 0zm8.8-18c0.5 0.1 0.2 0 0.4 0.4c-0.5 0.2-0.9 0.9-1.3 1.2c-0.2-0.3-0.2-0.2-0.3-0.5c0.3-0.1 1.1-0.9 1.2-1.1zm-3 9.3l0.9-1h0.7c-0.3 0.5-0.8 0.7-1 1.1h-0.7c0.1 0 0.1-0.1 0.1-0.1zm-5.1 1.6c-0.1 0.5-0.4 0.8-0.6 1.2c-0.4 0.5-0.3 0.5-1.1 0.5zm7.3-1.7c0.2-0.1 0.2-0.2 0.3-0.3c0.2-0.2 0.4-0.2 0.4-0.5h0.8c0 0-0.1 0-0.1 0.1c0 0.1-0.7 0.6-0.9 0.9h-0.7zm-33.6 0c0.3-0.2 0.6-0.4 0.7-0.7h0.8c-0.3 0.4-0.8 0.6-1 1h-0.7zm29.4 0c0.2-0.2 0.6-0.4 0.7-0.8h0.7c-0.3 0.4-0.7 0.7-0.9 1.1h-0.7zm6.3 0c0.2-0.2 0.6-0.5 0.6-0.8h0.8l-0.2 0.2c-0.2 0.3-0.6 0.5-0.8 0.9h-0.7zm-31.4 0c0.2-0.3 0.6-0.5 0.6-0.8h0.8c-0.3 0.3-0.8 0.7-1 1h-0.7zm5.4 7.3l0.1-0.2v0.8c-0.3 0.1-0.5 0.5-0.8 0.7l-0.2 0.2v-0.7c0.3-0.2 0.6-0.6 0.9-0.8zm15.6-0.9l0.3-0.3v0.7c-0.3 0.2-0.6 0.5-0.8 0.7c0 0 0 0 0 0.1h-0.1l-0.2 0.2v-0.8c0.3 0 0.5-0.3 0.8-0.6zm-27.4-6.2c0.3-0.3 0.7-0.6 0.8-0.9h0.8l-0.6 0.6c-0.2 0.1-0.3 0.2-0.4 0.4h-0.7zm4.6-0.4c0.1-0.1 0.3-0.2 0.4-0.5h0.7c-0.3 0.4-0.8 0.7-1 1h-0.6zm25.2 0c0.2-0.2 0.3-0.2 0.4-0.5h0.7c-0.3 0.4-0.8 0.7-1 1.1h-0.7zm-17.9 5.2v0.8c-0.2 0-0.3 0.2-0.5 0.4l-0.5 0.5v-0.7c0.4-0.2 0.7-0.7 1-1zm-13.5-5.2c0.2-0.2 0.3-0.3 0.3-0.6h0.8l-0.6 0.6c-0.2 0.2-0.3 0.3-0.4 0.5c-0.3 0-0.2 0-0.5-0.1c0.1-0.3 0.1-0.3 0.4-0.4zm43.5-1c0 0.6-0.1 0.7-0.4 1c-0.2 0.2-0.5 0.4-1 0.4zm-14.5 5.5l0.2 0.3l-0.5 0.6c-0.1 0.1-0.1 0.1-0.2 0.3l-0.3 0.2v-0.8c0.3 0 0.5-0.4 0.8-0.6zm-7.3 5.2h0.6l-0.9 0.9h-0.6zm-4.1 0h0.5l-0.8 0.9h-0.6zm5.6-5.7h0.6l-0.8 1h-0.6zm4.2 0h0.6l-0.8 0.9h-0.6zm-1.5 5.6h0.6l-0.8 1h-0.6zm-6.9-5.7h0.6l-0.9 0.9h-0.5zm-2.1 0h0.6l-0.9 0.9h-0.6zm-2.1 0h0.6l-0.8 0.9h-0.6zm0.7 5.7h0.5l-0.8 0.9h-0.6zm4.2 0h0.6l-0.8 0.9h-0.6zm4.1 0h0.6l-0.8 1h-0.6zm-2.7-5.7h0.6l-0.9 0.9h-0.6zm4.2 0h0.6l-0.8 0.9h-0.6zm8-10l0.1 0.3c-0.2 0.4-0.4 0.5-0.5 0.8c-0.3-0.2-0.2 0.2-0.2-0.2c-0.1 0-0.3 0.1-0.4 0.1q0.5-0.7 1-1zm6.8-0.5c0.3 0.2 0.2 0 0.2 0.3l-0.5 0.6c-0.4-0.1-0.3 0-0.4-0.4c0.3-0.1 0.4-0.3 0.7-0.5zm-26.5 16.1c0.1 0.1 0.1 0 0.3 0.1c-0.2 0.4-0.5 0.5-0.7 0.8c-0.4-0.2-0.2 0-0.4-0.4c0.4-0.1 0.4-0.4 0.8-0.5zm-14.4-10.9c0 0.3 0 0.4 0.1 0.6c-0.3 0.1-0.4 0.3-0.7 0.5c-0.3-0.2-0.2 0-0.2-0.3zm43.6-1.7c0.2 0.2 0.1 0 0.2 0.4c-0.2 0.1-0.2 0.1-0.4 0.3c-0.2 0.2-0.1 0.2-0.3 0.3c0 0-0.1-0.2-0.2-0.2c0-0.1 0-0.1 0-0.2c0 0 0 0-0.1-0.1c0.3-0.1 0.4-0.3 0.8-0.5zm-2.2-2.1l0.4-0.3c0 0 0.1 0.1 0.1 0.2l0.1 0.1c0 0 0 0.1 0 0.1c-0.3 0.1-0.4 0.4-0.7 0.6c-0.3-0.3-0.2 0-0.3-0.4c0.2-0.1 0.2-0.1 0.4-0.3zm-1.6-2.7c0.4 0.2 0-0.2 0.3 0.3c-0.2 0.4-0.4 0.4-0.5 0.7c-0.4-0.2 0 0.2-0.3-0.3c0.1-0.3 0.4-0.4 0.5-0.7zm-4.8 2.9l0.3 0.1l-0.8 0.8h-0.1c-0.1-0.1-0.1-0.3-0.1-0.3c0.2-0.1 0.3-0.4 0.7-0.6zm7.3 1c0.2-0.2 0.2-0.1 0.3-0.4c0 0.1 0.2 0.1 0.2 0.2l0.1 0.2l-0.7 0.6l-0.2-0.2c0.1-0.2 0.1-0.2 0.3-0.4z" /></g></svg>