<svg version="1.2" xmlns="http://www.w3.org/2000/svg" viewBox="0 0 45 50" width="45" height="50"><defs><clipPath clipPathUnits="userSpaceOnUse" id="cp1"><path d="m-748-2008h960v6957h-960z" /></clipPath></defs><style>.s0{fill:#fbab43}</style><g clip-path="url(#cp1)"><path fill-rule="evenodd" class="s0" d="m0.9 44.2c0-1.5 0.5-3 1-4.3c0.1-0.2 0.2-0.4 0.3-0.6l0.9-1.7c0.5-0.8 0.9-1.3 1.6-2l0.5-0.4c1.5-1.4 5.4-2.9 7.5-3.8l1.8-0.8c0.2-0.1 0.4-0.2 0.7-0.2c0 0.3 0.2 0.9 0.3 1.2c0.7 3.3 1.5 6.6 3 9.6l2.5 4.1c0.2 0.3 1.2 1.6 1.4 1.6c0.3 0 0.7-0.5 0.9-0.7c0.5-0.7 0.7-0.9 1.2-1.7l1.2-1.9q0.3-0.4 0.5-0.9c2.3-4.5 2.6-6.7 3.6-11.3c0.4 0 2.1 0.8 2.5 1c3.2 1.4 6.8 2.6 8.9 5.2c0.9 1.3 2 3.2 2.4 4.6c0.4 1.6 0.4 2.3 0.5 3.5v0.8c0 1.6-2.6 2-3.8 2.2c-2.4 0.5-10.3 1.6-13.2 1.6c-0.3 0-0.4 0.1-0.7 0.1c-0.2 0-0.5 0-0.7 0q-0.4 0-1 0c0 0-4 0-4 0h-2.2c-0.3 0-0.3-0.1-0.6-0.1c-1.7 0-6.3-0.5-8.1-0.8c-1.5-0.2-5.6-0.8-7-1.2c-1.5-0.5-1.8-1-1.9-2zm20.3-10.6h2.7c0.4 0 0.7 0 0.7 0.4c0 0.9-0.4 2.2-0.6 3.1c-0.3 0-0.5 0.1-0.9 0.1h-1.1c-0.4 0-0.7-0.1-1-0.1c-0.1-0.5-0.3-0.9-0.4-1.5c-0.1-0.6-0.3-1.3-0.2-2c0.3 0 0.4 0 0.8 0zm0.7 10.8l-1.5-2.9c-0.2-0.4-0.1-0.4 0-1.2c0.8-3.2 0.2-2.1 2.1-2.3c0.3-0.1 1.1-0.1 1.3 0c0.4 0.2 0.7 1.9 0.8 2.3c0.1 0.7 0.2 0.8 0 1.1c-0.6 1.2-1.1 2.2-1.8 3.4c-0.1 0.2-0.2 0.3-0.3 0.5c-0.2-0.1-0.5-0.7-0.6-0.9zm-14.3-23.3c-0.2-0.1-0.5-0.5-0.5-0.7c-0.3-0.6-0.2-2.7-0.2-3.5c0-0.5-0.1-0.2 0-1.1c0.2-1.7-0.6-3.6 1.4-4.5c0.9-0.4 0.9 0 1-0.8c0.2-0.7 0.5-1.7 0.7-2.3c1.1-2.6 3.3-4.9 5.8-6.1q0.8-0.4 1.7-0.8c2.3-0.7 2.9-0.8 5.4-0.8c3.1 0 5.9 1.2 7.8 2.5c0.6 0.4 1.2 0.9 1.7 1.4c1.5 1.6 2.5 3.2 3.1 5.4c0.2 0.7 0.1 0.7 0.2 1.1c0 0.2 0.1 0.2 0.3 0.2c0.8 0.2 1.5 0.5 1.8 1.2c0.4 0.7 0.2 2.5 0.3 3.4c0 0.5 0.1 0.4 0 1.1c-0.1 0.7 0 1.7 0 2.4c-0.1 0.8-0.1 1.3-0.6 1.9c-0.3 0.2-0.4 0.3-0.8 0.4c-0.3 0.2-0.5 0.2-0.9 0.3c0 0.5-0.3 3-0.3 3c0.2 0.4 0.6 0.6 0.9 1.1c0.4 0.8 0.3 2.1-0.5 2.8c-0.7 0.6-1.1 0.6-1.8 0.6c-1.4 0-2.6-1.8-1.9-3.3l0.5-0.7c0 0 0.2-0.2 0.3-0.2c0.5-0.4 0.8-0.2 0.9-0.7c0.2-0.8 0.2-2.4 0.2-3.2c0-0.6 0.1-0.7 0.1-1c0-1.5 0-3 0-4.5c0-0.3 0-0.3 0-0.5v-1.7c0-0.2 0-0.2 0-0.5c0-2.2-0.1-3-1.1-5c-0.6-1.2-2-2.8-3.1-3.6c-1.5-1-2.8-1.6-4.6-2q-0.5-0.1-1-0.2c-0.3 0-0.7-0.1-1-0.1c-1 0-2.1 0-3.1 0.1c-1.2 0.3-2.2 0.6-3.4 1.1c-0.8 0.4-1.7 0.9-2.4 1.5l-0.6 0.5q-0.1 0.1-0.2 0.3c-1.2 1.1-2 2.5-2.6 4.1c-0.3 1.2-0.3 2.6-0.3 4.1v6.7c0 0.6 0 0.6-0.2 0.9c-0.5 0.4-0.5 0.4-1.3 0.4c-0.8 0-1.3-0.3-1.7-0.7zm5.3-4.4c0.1-0.1 0.3-0.1 0.4-0.3c0.1-0.2 0.1-1.8 0.1-2c0-0.5 0-1 0-1.4c0-0.3 0-0.4 0-0.7q0-0.3 0.1-0.6c0-0.3 0-0.5 0-0.7c0.4-2 1.3-3.6 2.9-4.9c2-1.7 5.3-2.1 7.9-1.8c0.9 0.2 1.5 0.3 2.2 0.6c0.9 0.3 1.6 0.8 2.3 1.3c0.4 0.4 0.6 0.6 1 1c0.9 1.1 1.5 2.6 1.7 4l0.1 3.4c0 0.3 0 0.4 0 0.7c0 0.5 0 0.8 0.2 1.3c0.9 0.1 0.7 1.7 0.7 2.8c0 1.6-1.1 3.4-2.1 4.7c-0.1 0.2-0.4 0.5-0.5 0.7c-0.2 0.8-0.5 1.3-0.8 1.9c-0.2 0.3-0.3 0.6-0.5 0.9l-0.9 1.1c-0.3 0.4-0.6 0.7-1 1c-2 1.5-4.4 1.9-6.7 1q-1-0.4-1.7-1c-0.3-0.2-0.5-0.4-0.7-0.7q-0.2-0.1-0.4-0.3c-0.7-0.7-1.4-2-1.8-2.9c-0.3-0.8-0.3-1.1-0.9-1.8c-0.2-0.2-0.4-0.5-0.5-0.7c-0.4-0.6-0.7-1.1-1-1.8c-0.6-1.5-0.5-2.1-0.5-3.7c0-0.5 0.1-0.8 0.4-1.1z" /></g></svg>