<svg version="1.2" xmlns="http://www.w3.org/2000/svg" viewBox="0 0 119 119" width="119" height="119"><defs><clipPath clipPathUnits="userSpaceOnUse" id="cp1"><path d="m-77-5385h960v6957h-960z" /></clipPath></defs><style>.s0{fill:#ffffff;stroke:#707070}.s1{fill:#fbab43}</style><g clip-path="url(#cp1)"><path class="s0" d="m59.2 118.5c-32.7 0-59.2-26.5-59.2-59.3c0-32.7 26.5-59.2 59.2-59.2c32.8 0 59.3 26.5 59.3 59.2c0 32.8-26.5 59.3-59.3 59.3z" /><path fill-rule="evenodd" class="s1" d="m27.6 70.9c0 0.7 0.4 0.3-0.4 0.4c0 0-0.7 0-0.7 0h-4c-1-0.6-0.8-1.1-0.8-2.5c0-1-0.2-2.4 0.3-3.1c0.5-0.3 0.7-0.3 1.4-0.3c0.4-1.5-0.4-3.8 0.5-5c0.1-0.2 0.6-0.7 0.8-0.9c0.6-0.5 1.5-1 2.3-1.4c0.8-0.4 1.6-0.7 2.4-1c1.8-0.7 3.7-1.3 5.6-1.7c3.1-0.8 2.2-0.2 3.7-1.8c0.3-0.3 0.6-0.4 0.9-0.8c1.8-1.9 3.1-3.4 5-5c0.6-0.6 1.3-1.6 2.2-2.2c1.3-0.9 4.9-0.6 6.7-0.6q1.8 0 3.6 0c1.4 0 2.1 0.5 2.1 1.4l0.1 19h13c-0.6 1.2-1.6 2.5-1.1 5.9h-28.8c0.9-5-2.5-9.1-7.2-9.2c-3.5 0-6.3 2.2-7.3 5.2c-0.3 0.9-0.6 2.6-0.3 3.6zm38.1-14.9h-5v-10.6c0-0.7 0.6-1.2 1.2-1.2h2.6c0.7 0 1.2 0.5 1.2 1.2zm26.8 15.3h-6.5c0.2-1.1 0.2-2.2 0-3.3q-0.2-0.7-0.5-1.3c-0.1-0.2-0.1-0.4-0.2-0.6c-0.3-0.4-0.3-0.3-0.4-0.7h7.6c0.4 0 0.8 0.3 0.9 1.1c0 0.5 0 1.3 0 1.9c0 1.4 0.1 2.6-0.9 2.9zm-26.1-16v-2.8c4.1-2.8 8.3-6.1 12.3-9c0.5-0.3 0.6-0.5 1.1-0.8c0.3-0.3 0.7-0.5 1-0.8c-2.3 0.9-4.7 1.6-7.1 2.4c-1.1 0.4-6.6 2.4-7.3 2.4c0.1-0.6-0.1-1.1 0.2-1.5c0.6 0 13-4.3 14.5-4.8c1.3-0.5 4-1.2 4.4-2c0.8-0.4 1.6-0.5 2 0.4c0.5 1-0.4 1.4-0.8 1.8v2.2c2.4 0.9 1 2.6 0.8 3c0.3 0.5 1.3 0.8 1.8 1.7c0.9 1.5 0.4 3.4-1.2 4c-1.3 0.6-3.1-0.1-3.6-1.4l-0.6-1.6c-0.1-0.1-0.2-0.4-0.1-0.7c0.9-0.2 1.4 1.1 2.5 1.9c1.2 1 2.6-0.6 1.3-1.7c-0.4-0.3-1-0.6-1.4-0.9c-0.8-0.5-0.5-0.5-0.8-1.4c-0.2-0.3-1.6-1.9 0.8-2.9v-1.8l-2.5 1.8c-0.3 0.2-2.6 1.9-2.9 2.2c-0.5 0.3-14 10.3-14.4 10.3zm19.2-10.4c0.8 1.2 2.5-0.1 1.5-1.1c-0.3-0.4-0.3-0.1-0.7-0.2c-0.5 0 0-0.1-0.4 0c-0.3 0.1-0.7 0.8-0.4 1.3zm-6.2 31.3c-3.5 0.3-6.8-2.1-7.2-5.6c-0.4-2.7 0.9-5.1 3-6.5c2.4-1.5 5.4-1.1 7.4 0.4c1.6 1.3 2.5 2.8 2.5 5.4c-0.1 3.2-2.5 5.9-5.7 6.3zm-4-5.9c0.8 4.3 7.4 3.1 6.5-1.3c-0.9-4.2-7.4-2.9-6.5 1.3zm-39.1 5.8c-4.6 0.8-8.6-3.3-7.6-7.7c0.5-2.4 2-4.2 4.4-4.9c1.2-0.4 2.7-0.4 4 0c3.7 1.3 5.5 5.3 3.9 9c-0.9 1.9-2.7 3.2-4.7 3.6zm-0.4-9.6c-2-0.6-3.6 0.8-4 2.3c-0.6 2 0.8 3.7 2.2 4.1c4.2 1.2 6.2-5.2 1.8-6.4zm55.3-9.6c0.4 0.5 0.4 0.7 0.4 1.4v6.4c-1.9 0-3.9 0-5.7 0c-3.2 0-0.7-0.1-4-1.8c-1.4-0.7-3.2-0.9-4.9-0.6c-1.8 0.4-2.7 1.2-3.8 2q0 0.1 0 0.1c0 0.4-0.5 0.3-1.2 0.3q-0.8 0-1.6 0c-2.3 0-8 0.1-9.6-0.1v-7.6c0.1-0.4-0.1-0.1 0.3-0.3c3.1 0.1 29.3-0.1 29.7 0.2q0.2-0.1 0.4 0zm-48.4-2.3c0.6 0.3 8.5 0.1 9.9 0.1c1.9 0 3.5 0.5 3.5-1.5c0-5.8 0.6-5-5-5c-1.8-0.1-2.8-0.1-3.8 1.1c-0.7 0.8-5 4.3-4.6 5.3z" /></g></svg>