<svg version="1.2" xmlns="http://www.w3.org/2000/svg" viewBox="0 0 64 62" width="64" height="62"><defs><clipPath clipPathUnits="userSpaceOnUse" id="cp1"><path d="m-164-4707h960v6957h-960z" /></clipPath></defs><style>.s0{fill:#fbab43}</style><g clip-path="url(#cp1)"><path fill-rule="evenodd" class="s0" d="m57.9 14.2c0.5 0.3 1 0.9 1.4 1.3c0.4 0.4 1 0.9 1.4 1.4c0.3 0.4 0.7 0.7 1 1c0.1 0.2 0.1 0.2 0.3 0.4l0.6 0.7c0.1 0.3 0.2 0.7 0.2 1.1c0 0.8 0 1.2-0.5 1.8l-1 1.1c-0.6 0.7-2.2 2.1-3.1 3.1l-1 1.1c-0.2 0.2-0.4 0.3-0.7 0.6c-0.9 1-2.8 2.8-3.8 3.7c-0.8 0.6-1.5-0.2-1.5-0.8c0-0.5 0.7-1.2 1-1.5l5-5c0.1-0.1 0.2-0.2 0.3-0.3l0.9-1c0.5-0.4 0.8-0.8 1.3-1.2c0.2-0.3 0.3-0.4 0.6-0.7c0.1-0.2 0.5-0.4 0.5-0.7c0-0.7-0.1-0.3-0.2-0.7c-0.2 0-0.4 0.3-0.5 0.4c-0.2 0.2-0.3 0.3-0.5 0.5l-2.8 2.8c-1.3 1.3-2.5 2.5-3.8 3.8c-0.3 0.2-7.3 7.3-7.6 7.5l-3.9-4c0-0.1 16-16.1 16.4-16.4zm-49.1-13.8c0.3 0 0.7 0.1 1 0c0.1 0 0.8 0 2 0c0 0 36.1 0 36.1 0c0.8 0 1.4 0 2.2 0c2.5 0 2.1 2.7 2.1 4.5c0 0.7 0 1.3 0 2.1v6.5c0 1.4 0.1 3 0 4.4c0 0.3 0 0.2-0.1 0.4l-1.9 1.8c0-6-0.1-11.7-0.1-17.7h-41l-0.1 2v3.2h-2v-4.3c0-0.2 0-0.1 0.1-0.2c-0.3-1.4 0.6-2.5 1.7-2.7zm0.2 57.7c0 0.4 0.1 0.5 0.1 0.9h41c0-9.1 0.1-18 0.1-27.1c0.2 0.2 0.5 0.5 0.9 0.7c0.2 0.2 0.7 0.4 1.1 0.4q0 9.5 0 19c0 0.8 0 1.5 0 2.3q0 1.2 0 2.4l-0.1 2.3c0 0.4 0 0.6-0.2 1c-0.7 1.2-1.7 0.9-2.5 1q-1.1 0-2.4 0q-16.6 0-33.2 0h-4.7c-1.5-0.1-2.3-1.4-2-2.7l-0.1-4.4h1.9c0 0.6 0 2.9 0.1 3.2q0 0.5 0 1zm9.7-7c0.3-0.3 3.8-0.2 4.1-0.1c0 0.6 0.2 0.8 0.2 1.2h-4.2c-0.3-0.4-0.4-0.3-0.4-0.7c0-0.1 0.2-0.4 0.3-0.4zm0.9-7.1c0.3 0 0.6 0 0.9-0.1c0.7 0 5 0 5.8 0c-0.2 0.3-0.5 1.3-0.7 1.3h-6.1c-0.3 0-0.7-0.1-0.9-0.2c-0.2-0.7-0.1-0.6 0-1c0.4 0 0.6 0 1 0zm17.3 0.8c0.2-0.1 0.2-0.2 0.3-0.3c0.2-0.1 0.5-0.6 0.7-0.6h5.3c0.6 0 1 0.1 1.6 0.1c0.5 0 0.9 0.2 0.9 0.7c0 0.6-1.3 0.5-1.9 0.5h-7.1c0.1-0.2 0.1-0.2 0.2-0.4zm23.4-32.1c2.1 0 2.9 1.2 3 2.5v0.5c0 0.7-0.3 1.3-0.7 1.7c-0.2-0.1-0.9-0.7-1.1-0.9l-1.5-1.6c-0.3-0.3-1.2-1.2-1.3-1.5c0.2-0.3 1.1-0.7 1.6-0.7zm-53.3 27.2h1.9v9.4h-1.9zm0-14h1.9v9.6h-1.9zm0-13.9h2l-0.1 9.4h-1.9zm11.8 24.9h14.5c-0.1 0.2-1.2 1.4-1.4 1.4h-11.4c-0.5 0-0.9-0.1-1.4-0.1c-0.3 0-0.3 0-0.5-0.1c-0.1-0.2-0.2-0.3-0.2-0.5c0-0.2 0.3-0.6 0.4-0.7zm8.8 15.1c0.4-0.2 1.9-1.1 2.1-1.1h14.4c0.5 0 0.7 0 1.1 0.1c0.9 0.1 0.3 1 0.1 1.2h-17.9c0.1-0.2 0-0.1 0.2-0.2zm-1.2-5.6c0.2-0.4 0.8-1.3 0.8-1.6c0.3 0.1 1.8 1.7 2 1.9l1.4 1.5c0.2 0.2 0.4 0.3 0.5 0.5c-0.2 0.3-3.2 1.7-3.5 1.9l-2.8 1.3c-0.4 0.1-0.7-0.4-0.7-0.5c0-0.5 2-4.3 2.3-5zm-7.5-16.4h3.3c0.3-0.1 0.5-0.1 1-0.1h9.6c2.5 0 4.8 0.1 7.4 0.1c-0.1 0.3-0.5 0.5-0.7 0.8c-0.5 0.5-0.4 0.5-0.9 0.5h-19.9c-0.1-0.3-0.3-0.4-0.3-0.7c0-0.3 0.2-0.6 0.5-0.6zm-0.2-14h26.7c0.3 0.7 0.5 1.3-0.5 1.3h-3.6c-0.4 0-0.7 0-1.1 0h-21.1c-0.4 0-0.7-0.3-0.7-0.6c0-0.3 0.2-0.4 0.3-0.7zm0 7h24.1c0.6 0 1 0.1 1.7 0.1c0.2 0 0.6 0 0.8 0c0.8 0.3 0.1 1.2-0.1 1.2h-26.3c-0.2 0-0.5-0.4-0.5-0.6c0-0.3 0.2-0.4 0.3-0.7zm-17.3 27.3h9.8c0.7 0 2.5-0.1 2.9 0.5c0.5 0.8 0.1 1.7-0.5 2c-0.6 0.2-8.1 0.1-9.2 0.1c-0.9 0-1.6-0.1-2.5-0.1c-1.1 0-1.4-0.4-1.4-1.4c0-0.5 0.7-1.1 0.9-1.1zm-0.5-41.6c0.3-0.2 0.7-0.2 1.1-0.2c0.9 0 1.6-0.1 2.5-0.1c1 0 8.5-0.1 9.1 0.2c0.6 0.2 1 1.1 0.5 1.9c-0.2 0.3-0.4 0.3-0.7 0.4c-1.1 0.3-10.4 0.1-12 0.1c-0.2 0-0.5-0.3-0.6-0.4c-0.2-0.3-0.3-0.4-0.3-0.6v-0.5c0-0.3 0.3-0.7 0.4-0.8zm1.7 13.6h10.8c0.2 0 1.2 0.8 0.8 1.9c-0.3 0.7-1 0.8-2.1 0.8h-10.6c-0.1 0-0.6-0.3-0.7-0.4c-0.2-0.3-0.3-0.6-0.3-1c0-1.2 1.2-1.3 2.1-1.3zm-1.7 14.4c0-0.1 0.5-0.4 0.6-0.4c1.7 0 11.1-0.1 12 0.1c1 0.3 1.1 2 0.1 2.4c-0.7 0.3-3.8 0.3-4.7 0.3h-3.2c-1.2 0-2.1-0.1-3.2-0.1c-1.3 0-2-0.2-2-1.5c0-0.3 0.2-0.6 0.4-0.8zm17.8-27.6h26.7c0.1 0.2 0.3 0.4 0.3 0.7c0 0.6-1 0.6-1.2 0.6l-12.5 0.1c-1.2 0-2.2-0.1-3.5-0.1h-9c-0.5 0-1.1 0-1.1-0.7c0-0.3 0.2-0.4 0.3-0.6zm22.1 22.1l4 4c-0.3 0.4-10.7 10.7-12.1 12.1c-0.2 0.3-0.6 0.7-0.9 0.8l-3.9-4zm4.1 5.8c0.9 0 1 1.2 0 1.3c-0.4 0-1 0-1.4 0c0.1-0.3 1.1-1.3 1.4-1.3z" /></g></svg>