<svg version="1.2" xmlns="http://www.w3.org/2000/svg" viewBox="0 0 41 62" width="41" height="62"><defs><clipPath clipPathUnits="userSpaceOnUse" id="cp1"><path d="m-459-4707h960v6957h-960z" /></clipPath></defs><style>.s0{fill:#fbab43}</style><g clip-path="url(#cp1)"><path fill-rule="evenodd" class="s0" d="m17.2 0.4c1.7 0 1.5 1.9 3.3 1.9c1.8 0 1.8-1.9 3.2-1.9c1.1 0 1.2 0.7 1.6 1.7c1.2 2.7 3.5 0.4 4.7 0.4c1.9 0 0.2 3.4 2.5 4.2c0.7 0.3 3.4-0.5 3.4 0.9c0 1.7-0.3 1.4-0.3 2.3c0 2.5 1.8 1.9 3 2.6c1.8 1-0.7 2.7-0.7 3.8c0 2.4 2.4 2 2.4 3.6c0 1.6-2.4 1.3-2.4 3.4c0 1.4 2.6 3 0.7 4c-0.4 0.2-0.9 0.3-1.3 0.4c-2.8 0.7-1.4 3.1-1.4 3.9c0 3.5-4.7-1.2-4.8 3.9c-0.1 3.2-2.9 0.8-3.9 0.8c-2.6 0-1.8 5.4-5.1 2c-2.4-2.4-3.4 1.1-4.5 1.1c-2.5 0-1.1-3.1-3.8-3.1c-0.9 0-1.7 0.9-2.4 0.9c-2.3 0-0.8-2.9-2.3-3.9c-1.3-0.9-4 0.6-4-1.3c0-1.7 1.5-3.6-1.3-4.3c-4.1-1-0.6-2.7-0.6-4.3c0-2.2-2.4-1.9-2.5-3.4c-0.1-1.5 2.5-1.7 2.5-3.3c0-2.3-3.6-3.6 0.7-4.7c2.6-0.6 1.2-3.1 1.2-3.9c0-2.4 2.1-0.8 3.5-1.4c1.7-0.7 1.1-2.2 1.4-3.2c0.2-0.5 0.6-1 1.2-1c1.1 0 1.3 0.9 2.8 0.9c2 0 1.6-3 3.2-3zm-6.2 27.6c3.7 4.2 9.9 5.7 15 3.1c6.4-3.2 8.8-10.5 5.8-16.8c-0.7-1.4-1.7-2.7-2.9-3.7c-0.2-0.1-0.2-0.2-0.4-0.4c-2.4-2.1-5.2-2.8-8.5-2.8c-3.8 0-7.5 2.2-9.7 5.2c-1.9 2.7-2.3 4.7-2.3 8c0 2.7 1.3 5.5 3 7.4z" /><path class="s0" d="m31.9 38.3c0.2-0.3 0.4-0.5 0.5-0.8c0.1-0.1 0.2-0.2 0.3-0.4c0.1-0.2 0-0.1 0.2-0.3c0.4 1.8 1.2 3.6 1.6 5.3l4.5 14.1c0.1 0.4 0.2 0.9 0.4 1.3c-0.5-0.1-1.4-0.5-1.9-0.7c-0.6-0.2-1.2-0.4-1.8-0.6c-0.7-0.3-3-1.3-3.7-1.3c-0.1 0.5-1.5 2.5-1.9 3.1c-0.3 0.4-1.5 2.8-2.1 2.9c0-0.7-0.5-1.9-0.7-2.6l-4.8-15.3c-0.3-0.8-0.6-1.6-0.8-2.5c0.7 0.4 1 0.8 2.1 0.8c2.2 0 2.8-2.1 3.4-3.1c1.2 0.1 0.5 0.8 3 0.8c0.7 0 1.3-0.4 1.7-0.7z" /><path class="s0" d="m1.1 56c0.2-0.5 0.3-0.9 0.5-1.4l4.9-15.6c0.3-0.9 1.2-3.7 1.3-4.2h0.2c0 1.9 0.8 4.2 2.8 4.2c2.5 0 1.8-0.7 3.1-0.8c0.7 1.4 1.3 3.6 4.2 2.9c0 0.9-4.2 13.3-4.6 14.9c-0.3 0.9-1.5 4.4-1.5 5c-0.4-0.3-0.8-1.2-1.1-1.7l-1.5-2.7c-0.3-0.7-1.2-2.1-1.4-2.7c-0.5 0-1.5 0.6-1.9 0.8c-1 0.6-4.8 2.6-5.4 2.8c0.1-0.5 0.2-1 0.4-1.5z" /><path class="s0" d="m20.5 9.2l3.4 5.9l6.6 1.4l-4.6 5l0.8 6.8l-6.2-2.8l-6.2 2.8l0.8-6.8l-4.6-5l6.7-1.4z" /></g></svg>