<svg version="1.2" xmlns="http://www.w3.org/2000/svg" viewBox="0 0 52 62" width="52" height="62"><defs><clipPath clipPathUnits="userSpaceOnUse" id="cp1"><path d="m-737-4707h960v6957h-960z" /></clipPath></defs><style>.s0{fill:#fbab43}</style><g clip-path="url(#cp1)"><path fill-rule="evenodd" class="s0" d="m2.6 43.4c1.1-2.8 1.6-3.8 3.8-5.2c0.9-0.6 1.9-1.2 2.8-1.7l3.7-2c0.3-0.1 0.4-0.2 0.7-0.4c0.5-0.2 0.9-0.5 1.4-0.8c3.2-1.5 2.5-1.9 4.3-0.7c1.5 1 2.4 1.3 4 1.8c0.7 0.2 0.8 0.4 1.1 1l1.7 4.2c0.1-0.5 0.8-2.3 1-2.9c1.5-3.7 0.7-1.2 4.5-3.4c0.6-0.4 2.1-1.4 2.5-1.4c0.4 0 4.9 2.5 5.9 3.1c1 0.4 1.9 1.1 2.9 1.6c3.6 1.9 4.9 2.7 6.6 6.8c0.7 1.8 1.7 5.6 1.7 7.3c0 2-5 5.2-6.6 5.6l-1.3-1c0.5-0.2 0.9-0.4 1.2-0.9c1-1.3 0.6-2.6-0.4-3.8c-0.5-0.6-0.8-0.9-1.5-1.5c-2.6-1.9-6.2-2.2-9-0.4c-1.5 1-2.2 2.4-2.6 2.4h-10c-0.3 0-0.5-0.4-0.7-0.6c-0.2-0.3-0.3-0.4-0.5-0.6c-1.8-1.8-3.5-2.4-6-2.4c-2.7 0-5.3 1.9-6.6 4.1c-0.8 1.6 0.2 3.4 1.5 3.7c0 0.1-1.1 1-1.3 1c-0.6 0-3.3-1.7-3.9-2.2c-1-0.7-2.7-2.1-2.7-3.5c0-1.7 1.1-5.6 1.8-7.2zm7.2 8.4c1.3-1.6 2.8-2 4.8-2c2 0 4.4 1.8 4.8 3.4h13.2c0.2-0.9 1.1-1.7 1.8-2.3c0.4-0.3 0.7-0.5 1.2-0.7c1.9-0.8 4-0.5 5.6 0.6c0.4 0.3 0.6 0.5 1 0.9c1.4 1.8 0.5 1.5-2 1.5q-1.4 0-2.7 0c-0.1 0.6-0.2 0.9-0.2 1.7c0 1.8 0.1 1.5 0.2 2.7q1.4 0 2.8 0c2.1 0 3.5-0.4 1.8 1.6c-1.3 1.5-3 1.8-4.8 1.8c-2 0-4.3-1.9-4.7-3.4h-13.2c-0.2 0.6-0.4 0.9-0.8 1.3c-1 1.3-2.5 2-3.9 2.1h-1.2c-1.4-0.1-2.8-0.8-3.7-1.9c-1.6-2.1-0.1-1.5 4.7-1.5c0.1-0.6 0.2-0.9 0.2-1.7c0-1.8-0.1-1.5-0.2-2.7c-0.9 0.2-4.4 0.2-5.3 0c0-0.8 0.2-1 0.6-1.4zm14.7-51.4h3.1c2.1 0.1 4.1 0.5 5.5 1.1c3.4 1.4 5.3 4.2 6 7.8c0.8 4.1 0.9 10.5-0.7 14.3c-1.3 3.3-3.5 6.2-6.6 8c-3.1 1.8-5.8 2.6-9.1 1.2c-2.4-0.9-4.9-2.6-6.4-4.6c-3.2-4-3.9-7.3-3.9-12.5c0-3.9 0.3-8.3 2.6-11.2c0.5-0.7 0.9-1.1 1.7-1.7c1.8-1.5 4.8-2.2 7.8-2.4zm-9.5 21c0.7 2.4 1.7 4 3.1 5.7c1.7 2 5.4 4.4 7.9 4.4c2.9 0 7-2.9 8.7-5.4c2.7-3.9 2.8-6.6 2.8-11.3c-0.1 0.1-0.1 0.1-0.2 0.3c-1.9 2.5-2.2 0.4-5.5-1.6c-2.3-1.3-4-1.4-6.6-1.4c-2.5 0-5.3 1.3-6.9 2.8c-1.2 1-2.1 2.2-3.4 0.4l-0.4-0.5c0 2.7-0.1 4.4 0.5 6.6zm7.6-12.5c1.5-0.7 5.3-0.7 6.8 0c0.2-0.8 0.8-1.8 0.9-2.5c-0.6 0-1.2-0.3-1.8-0.4c-3.5-0.6-5.3 0.3-6.8 0.4c0 0.8 0.7 1.7 0.9 2.5z" /></g></svg>