<svg version="1.2" xmlns="http://www.w3.org/2000/svg" viewBox="0 0 110 80" width="110" height="80"><defs><clipPath clipPathUnits="userSpaceOnUse" id="cp1"><path d="m-1494-2413h1920v4495h-1920z"/></clipPath></defs><style>.A{fill:#fbab43}</style><g clip-path="url(#cp1)"><path class="A" d="m1.4 4.8c0.5 0.6 1.8 2.2 2.7 2.7c0 0 0 0 0.4 0.6l8.5 8.6c1.4 1.6 3.1 3.2 4.5 4.8c0 0 0 0 0.4 0l10.3 10.7c0.5 0.6 0.5 0.6 0.9 1.1c0.4 0.6 0.4 0.6 0.9 1.1l7.1 7.5c2.7 2.2 5.4 5.4 8.1 7.5c0 0.6 0 0.6 0.4 0.6l3.1 3.2c1.8 2.2 3.6 3.2 6.3 3.2c4 0 5.4-2.1 7.1-3.7l2.7-2.7c1.4-1.6 3.6-3.8 4.9-4.9l38-39.2c0.4-0.5 0.4-0.5 0.9-1.1c0.4 1.1 0.9 2.7 0.9 3.8v61.8c0 1.1-0.5 2.7-0.5 3.2q-1.3 3.3-4 4.9c-0.4 0-1.8 0.5-2.7 0.5h-94.6c-3.6 0-7.2-4.3-7.2-8.6v-61.3c0-1.6 0.5-3.2 0.9-4.3zm6.3-4.8h94.6c0.9 0 2.3 0.5 2.7 0.5c0 0.6-1.3 1.6-1.3 1.6l-14.8 15.1l-4 4.3q-0.7 0.8-1.3 1.6c-1.8 1.6-4.5 4.3-6.3 5.9l-16.9 17.8c-1.8 1.6-3.2 3.7-5.4 3.7c-1.8 0-2.7-1.6-3.6-2.1c-1.3-1.6-3.5-3.8-4.9-4.9q-0.7-0.8-1.3-1.6l-5.4-5.9c-1.3-1.1-6.2-5.9-8-7.5l-5.4-5.9c0 0-0.4-0.6-0.9-0.6c-2.7-2.7-6.2-7-8.9-9.6l-10.3-10.3c0 0-0.9-1-1.3-1.6c0.4 0 2.2-0.5 2.7-0.5z"/></g></svg>