<svg version="1.2" xmlns="http://www.w3.org/2000/svg" viewBox="0 0 43 42" width="43" height="42"><defs><clipPath clipPathUnits="userSpaceOnUse" id="cp1"><path d="m-79-11h960v6957h-960z" /></clipPath></defs><style>.s0{fill:#ffffff}.s1{fill:#ef7f1a}.s2{fill:#fefefe}.s3{fill:#042b66}.s4{fill:#ebecec}</style><g clip-path="url(#cp1)"><path class="s0" d="m16.4 11.3l-0.2-0.3l-0.7-0.6c1.9-1.1 4-1.7 6.3-1.7c2.2 0 4.4 0.6 6.2 1.7h-0.1l-0.2 0.3l-0.7 0.6c-1.5-0.8-3.4-1.3-5.3-1.3c-1.9 0-3.7 0.5-5.3 1.3zm5.4-2.9c-2.4 0-4.6 0.6-6.5 1.7l-0.9-0.9c2.1-1.4 4.6-2.2 7.4-2.2c2.7 0 5.2 0.8 7.4 2.1l-0.6 0.6v0.1q-0.1 0.1-0.3 0.3c-1.9-1.1-4.2-1.7-6.5-1.7zm0-1.5c-2.8 0-5.4 0.8-7.6 2.1l-1.8-1.8c0.3-0.2 0.2 0.1 0.5 0c0.4-0.1 0.2-0.3 0.3-0.5c0-0.1 0.4-0.3 0.5-0.3c1.3-0.7 0.7-0.1 1.2-0.3c0.6-0.2-0.4-0.2 1-0.7c0.9-0.4 0.5 0.1 1.2-0.1l0.2-0.4c0.3 0 0.5-0.1 0.9-0.2c0.9-0.2 0.3 0.3 0.9 0.2c0.5-0.2-0.3-0.6 1.8-0.6c0.1 0.2 0 0.2 0.1 0.4l0.4-0.1l0.2-0.3c1.6 0 1.4 0 1.6 0.4c0.5 0 0.4 0 0.6-0.2c0.3 0 0.6 0.1 0.9 0.1c0.7 0.1 0.5 0 0.7 0.5c1.1 0.1-0.4-0.6 2 0.2c0 0.3-0.1 0.3 0.2 0.4c0.3 0.2 0.2 0 0.5-0.1c0.1 0 0.6 0.3 0.8 0.3c0.9 0.4 0.3 0.4 0.6 0.7c0.4 0.3 0.3-0.3 0.9 0.1c0.2 0.1 0.5 0.3 0.7 0.5q-0.2 0.2-0.4 0.4q-0.3 0.3-0.6 0.6l-0.8 0.8c-2.2-1.3-4.8-2.1-7.5-2.1zm11.1 20.9h1.4q-0.2 0.5-0.5 0.9c-0.2-0.2-0.4-0.4-0.6-0.6c-0.1-0.1-0.2-0.2-0.4-0.3zm1.7 0h2.8c0 0 0 0.1-0.1 0.2c-0.6 1.4-0.6 0.7-0.9 1.1c-0.1 0.1-0.1 0.2 0 0.4c0.1 0.3-0.2 0.6-0.4 0.8c-0.1 0.1-0.1 0.3-0.1 0.3l-1.9-1.8q0.3-0.5 0.6-1zm0.1-12.9c-0.2-0.5-0.5-1-0.8-1.4c0.3-0.3 0.5-0.5 0.8-0.8q0.5-0.5 1-1v-0.1q0 0.1 0.1 0.1c0.3 0.6-0.3 0.7 0.2 0.9c0.3 0.1 0.4 0.1 0.5 0.3c0.9 1.4 0.2 1 0.5 1.7c0.3 0.1 0.3 0 0.4 0.3zm-0.2 0h-1.4c-0.1-0.1-0.2-0.2-0.2-0.3q0-0.1 0-0.1l0.2-0.1l0.1-0.2q0.3-0.3 0.5-0.5l0.1-0.1c0.3 0.4 0.5 0.8 0.7 1.3zm-1.9 0v-0.1zm-5 16.5c0.1 0.1 0.3 0.3 0.4 0.4q0.1 0.2 0.2 0.3c-1.9 1.1-4 1.7-6.3 1.7c-2.4 0-4.6-0.7-6.4-1.8c0.1-0.1 0.2-0.2 0.4-0.4l0.2-0.1l0.1-0.2q0-0.1 0.2-0.2c1.6 0.9 3.4 1.5 5.4 1.5c2 0 3.9-0.6 5.5-1.4q0.2 0.1 0.3 0.2zm-5.7 2.8c2.4 0 4.6-0.7 6.5-1.8q0.5 0.5 1 0.9c-2.2 1.4-4.8 2.1-7.5 2.1c-2.9 0-5.5-0.7-7.7-2.2q0.2-0.2 0.4-0.3q0.3-0.3 0.6-0.6c1.9 1.2 4.2 1.9 6.7 1.9zm0 1.5c2.8 0 5.4-0.9 7.6-2.3q0.4 0.4 0.8 0.7c0.3 0.4 0.7 0.8 1.1 1.1c-0.6 0.5-0.4 0.1-0.8 0.2c-0.1 0-0.2 0.1-0.2 0.3c-0.1 0.3 0.1 0.1-0.3 0.3c-0.2 0.2-0.6 0.4-0.8 0.5c-0.4 0.1-0.7-0.4-0.8 0.1c-0.2 0.4-0.5 0.4-0.9 0.6c-0.9 0.4-0.7-0.2-1.1 0c-0.4 0.2 0.2 0.3-1 0.6c-1.1 0.3-0.4-0.2-1.2-0.1c-0.2 0.3 0 0.4-0.5 0.4c-1.5 0.2-1 0-1.3-0.2c-0.4-0.1-0.4 0.1-0.6 0.3l-1.4-0.1c-0.1-0.2-0.1-0.3-0.4-0.3c-0.3 0-0.2 0-0.4 0.3l-1.4-0.3c-0.1-0.2 0-0.4-0.4-0.4c-0.6 0 0.4 0.5-1.7-0.1c-0.2-0.3 0.1-0.3-0.3-0.5c-0.5-0.2 0.2 0.5-1.3-0.2c-0.6-0.3-0.4-0.2-0.5-0.6c-0.6-0.5-0.3 0.2-1-0.2c-0.3-0.2-0.6-0.4-0.8-0.6c0.3-0.3 0.6-0.6 1-0.9c0.2-0.4 0.5-0.6 0.8-0.9c2.3 1.4 4.9 2.3 7.8 2.3zm-11.3-20.8h-1.4q0.3-0.6 0.7-1.2l0.9 1q0 0.1-0.2 0.2zm-1.6 0h-2.8c0-0.1 0-0.2 0.1-0.4c0.1-0.3 0.3-0.5 0.5-0.9c0.2 0 0.4 0 0.4-0.3c0.1-0.3-0.2-0.2 0.1-0.6c0.1-0.2 0.2-0.4 0.3-0.6c0.2-0.2 0.2-0.3 0.3-0.4q0.3 0.4 0.5 0.6l1.4 1.3c-0.3 0.4-0.6 0.9-0.8 1.3zm0.1 12.9q0.3 0.5 0.5 1.1l-1.8 1.8c-0.3-0.4 0-0.2 0-0.6c0 0-0.2-0.2-0.2-0.2c-0.4-0.2-0.3 0.2-0.7-0.6c-0.1-0.1-0.3-0.6-0.3-0.7c-0.1-0.4 0.2 0 0-0.6c-0.2-0.2-0.3-0.1-0.4-0.2zm0.2 0h1.5q-0.1 0.1-0.3 0.2c-0.1 0.1-0.1 0.1-0.1 0.2l-0.6 0.5q-0.2-0.4-0.5-0.9z" /><path fill-rule="evenodd" class="s1" d="m6.7 32.8c0.3-0.2 0.4-0.5 0.7-0.7l3.5-3.3c0.1-0.2 0.1-0.3 0.4-0.3q0.3 0 0.6 0c-0.1 0-3 3-3.2 3.2c-1.4 1.6 0.5 3.7 2.3 2.5l4.9-4.8c0.1-0.2 1.1-1.1 1.2-1.2c0.1 0 0.7 0 0.8 0c-1.8 1.8-3.6 3.6-5.4 5.4q-0.7 0.6-1.3 1.3c-0.3 0.3-1.3 1.2-1.4 1.4c-0.3 0.2-0.3 0.5-0.2 0.7c0.2 1.8-0.8 3.7-2.4 4.5c-1.7 0.8-3.8 0.5-5.1-0.8q-0.5-0.5-0.8-1.1c-0.8-1.7-0.5-3.4 0.6-4.8c0.3-0.4 1-1 1.5-1.2c0.6-0.3 1.6-0.5 2.4-0.3c0.5-0.1 0.6-0.3 0.9-0.5zm-3.6 6.9c0.1 0.1 2 0.8 2.1 0.8c0 0 1.9-0.7 1.9-0.8c0.1-0.1 0.9-2 0.9-2c0-0.1-0.8-2-0.9-2c0-0.1-1.9-0.9-1.9-0.9c-0.1 0-2 0.8-2 0.9c-0.1 0-0.9 1.9-0.9 2c0 0 0.8 1.9 0.8 2z" /><path fill-rule="evenodd" class="s1" d="m3.9 0.5c1.2-0.1 2.4 0.1 3.4 0.5c0.6 0.3 1.2 0.6 1.5 1c0.6 0.7 0.6 1.3 0.8 1.8c0.2 1.1 0.8 2.5 1.5 3.3l4.4 4.5l3.2 3.3h-0.7l-2.9-2.9q-0.8-0.8-1.6-1.5c-0.6-0.6-2.6-2.8-3.2-3.1c-1.3-0.5-2.7 0.6-2.4 2c0.1 0.2 0.2 0.3 0.3 0.5c0.1 0.2 0.2 0.3 0.3 0.4l4.6 4.6h-0.8l-3.3-3.3c-0.5-0.5-1-1.1-1.5-1.3c-0.8-0.4-1.5-0.6-2.3-0.5c-0.8 0.1-1.6-0.2-2.3-0.6q-0.3-0.2-0.6-0.4c-0.5-0.4-1.9-2.8-1.8-3.2c0.2-0.6 1.1 0 1.2 0.1c0.6 0.3 1.1 0.6 1.6 0.9c0.5 0.3 0.8 0.6 1.7 0c0.8-0.6 1-1.6 1.1-2.7c0-0.3-0.1-0.7-0.3-0.9l-2.7-1.6c-0.6-0.4 0.4-0.8 0.8-0.9zm-1.7 6.4c0.4 0.4 1.1 0.9 1.5 1.3c0.1 0.1 0.2 0.1 0.4 0.1c2.9-0.3 3.9-3.8 3-5.8c0-0.1-0.1-0.1-0.3-0.2c-0.5-0.2-2-0.8-2.5-0.8c0.2 0 0.4 0.2 0.6 0.3c0.2 0.1 0.4 0.2 0.6 0.3l1 0.6c0.2 0 0.2 0 0.2 0.2c0.4 1.4-0.3 3.4-1.3 4.2c-0.3 0.2-0.9 0.7-1.4 0.7c0 0-1.9-1.3-2.4-1.4c0.1 0.1 0.5 0.4 0.6 0.5z" /><path fill-rule="evenodd" class="s1" d="m34.1 3c0.2-0.6 0.6-1.3 1.6-1.8c1.1-0.5 2.3-0.8 3.7-0.7c0.5 0.1 0.6 0 0.9 0.3c0.5 0.5 0.4 0.4-1.3 1.4c-1.6 1-1.9 0.8-1.5 2.7c0.2 0.9 0.6 1.5 1.4 1.9c0.4 0.2 0.5 0.2 0.8 0q0.7-0.4 1.5-0.8c0.2-0.1 1.1-0.7 1.4-0.6c0.4 0 0.4 0.2 0.2 0.6c-0.8 1.8-1.5 3.4-3.8 3.8c-0.5 0.1-0.9 0-1.3 0c-0.6 0-1.6 0.3-2.1 0.7c0 0-0.4 0.3-0.9 0.8l-3.5 3.6h-0.8l3.9-3.9c0.2-0.2 0.3-0.3 0.5-0.5c0.2-0.3 0.3-0.3 0.5-0.5c1-1.7-0.9-3.5-2.5-2.4c-0.1 0.1-0.8 0.8-1.7 1.6l-5.6 5.7h-0.7l6.6-6.7c0.3-0.4 1-1.1 1.3-1.5c0.8-1.2 0.9-2.4 1.4-3.7zm5.2 4.8c-0.7-0.1-1.7-1-2.1-1.8c-0.4-0.8-0.8-2.1-0.5-3.1c0.1-0.2 0.9-0.5 1.2-0.8l1.2-0.6c-0.3 0-1.3 0.4-1.6 0.5c-1.2 0.4-1.1 0.3-1.3 0.9c-0.7 2.3 0.6 5 3.1 5.4c0.3 0 0.4-0.1 0.7-0.4c0.4-0.2 1.6-1.2 1.9-1.5c-0.7 0.2-2.3 1.4-2.6 1.4z" /><path fill-rule="evenodd" class="s1" d="m32.7 34.4c0.3 0.2 0.6 0.2 1 0.2c1.3-0.1 1.9-1.7 1.3-2.7c-0.3-0.4-2.3-2.3-2.9-2.9c-0.1-0.1-0.4-0.4-0.5-0.5c0.2 0 0.4 0 0.5 0c0.3 0 0.3 0.1 0.5 0.2c0.2 0.2 0.4 0.4 0.6 0.6l2.6 2.5c0.2 0.2 0.4 0.4 0.6 0.6l0.6 0.6c0.7 0.5 1.3-0.1 2.9 0.5c3.4 1.4 3.6 6.4 0.3 8c-2.9 1.5-6.4-0.7-6.3-4c0-0.5 0.1-0.8-0.2-1.1c-0.4-0.6-1-1-1.4-1.5c-0.5-0.5-1-1-1.5-1.5l-5.2-5.2c0.9 0 0.7-0.1 1.1 0.3c0.3 0.3 0.5 0.5 0.8 0.8c0.6 0.6 4.8 4.9 5.2 5.1zm3.6 5.3c0.1 0.1 1.9 0.8 2 0.8c0.1 0 2-0.8 2-0.8c0.1-0.1 0.9-1.9 0.9-2c0-0.1-0.8-2-0.9-2c0-0.1-1.9-0.9-2-0.9c-0.1 0-1.9 0.8-2 0.9c-0.1 0-0.9 1.9-0.9 2c0 0 0.8 1.9 0.9 2z" /><path class="s1" d="m14 14.9l-4.1-4.1c-0.3-0.3-1.2-1.1-1.3-1.6c-0.1-0.8 0.7-1.5 1.5-1.1c0.3 0.1 3.2 3.1 3.6 3.5q1.7 1.7 3.3 3.3z" /><path class="s1" d="m26.5 14.9l6.6-6.7c0.4-0.4 1.1-0.3 1.5 0c0.3 0.4 0.4 1.1 0 1.5c-0.3 0.4-2.6 2.6-3 3c-0.7 0.6-1.3 1.3-1.9 2q-0.2 0.1-0.3 0.2z" /><path class="s1" d="m15.2 29.1c-0.3 0.3-0.5 0.5-0.8 0.8c-0.5 0.5-3.6 3.7-4 3.9c-1 0.4-1.8-0.6-1.4-1.4c0.2-0.3 0.6-0.6 0.8-0.8c0.2-0.2 3-3.1 3.2-3.2l3-0.2c-0.1 0.3-0.6 0.7-0.8 0.9z" /><path class="s1" d="m28 28.8c-0.2-0.1-0.5-0.3-0.6-0.6l2.1 0.1c1.2 0.2 0.8-0.1 1.5 0.6l2.1 2.2q0.6 0.5 1.1 1c1 1.1-0.4 2.5-1.5 1.5c-1.6-1.6-3.1-3.2-4.7-4.8z" /><path class="s1" d="m34.8 5.1v0.1c-0.1 0.1-0.1 0.2-0.3 0.1c-0.1-0.2 0.1-0.3 0.3-0.2z" /><path class="s0" d="m23 11.6c0.5-0.2 1.8 0.3 3 0.8l-0.2 0.2c-0.3 0.3-0.7 0.7-1 1q-0.2 0.3-0.4 0.5h-0.1l-0.3 0.3c-0.3-0.2-0.8-0.3-1.1-0.3c0-0.6-0.1-2.1 0.1-2.5zm6.7 4.5c0.7 0.2 2.1 5.3 1.4 6c-0.3 0.2-2.2-0.4-2.7-0.5c0-0.8-0.1-1.5-0.2-2.2c-0.1-0.3-0.2-0.5-0.3-0.9c-0.1-0.3-0.3-0.6-0.4-0.8c0.4-0.3 2-1.7 2.2-1.6zm-1.3 7.9l1.8 0.4c0.3 0.1 0.4 0 0.5 0.2c0.1 0.3-0.5 1.4-1.2 2.3h-3.1c-0.1-0.1-0.1-0.1-0.1-0.2c0.6-0.3 1.9-1.8 2.1-2.7zm-4.8 4.1c0.3 0.4 1.1 1.9 1.1 2.3c-0.7 0.6-5 0.8-5.7 0.1c-0.2-0.2 0.8-2.2 0.9-2.3c1.4 0.3 2.4 0.3 3.7-0.1zm-9.9-1.2c-0.4-0.7-1-1.6-1-2c0.2-0.2 2-0.6 2.4-0.7c0.1 0.2 0.3 0.6 0.4 0.8c0.2 0.3 0.4 0.6 0.6 0.8c0.3 0.3 0.7 0.8 1.1 1.1zm-1.3-4.3c-0.6-0.8 0.1-3.9 0.6-5.1c0.8-1.9 0.5-1.4 2.9 0.4c-0.1 0.3-0.2 0.6-0.4 0.9q-0.1 0.4-0.2 0.9q-0.3 1.2-0.2 2.3c-0.4 0.2-2.4 0.7-2.7 0.6zm5-10.3c1.1-0.5 2.2-0.9 2.7-0.7c0.2 0.4 0.1 1.9 0.1 2.5q-0.4 0-0.9 0.2z" /><path class="s2" d="m42.5 18.2v6.2c-0.7 0-1.3 0.3-1.8 0.7c-0.4 0.5-0.7 1.1-0.7 1.8h-36.5c0-1.4-1.1-2.5-2.5-2.5v-6.2c0.7 0 1.3-0.2 1.7-0.7c0.5-0.4 0.8-1 0.8-1.7h36.5c0 1.3 1.1 2.4 2.5 2.4z" /><path class="s3" d="m41.6 23.7c-1.1 0.3-2 1.2-2.3 2.4h-35.1c-0.3-1.2-1.3-2.1-2.4-2.4v-4.8c1.1-0.2 2.1-1.2 2.4-2.3h35.1c0.3 1.1 1.2 2.1 2.3 2.3z" /><path fill-rule="evenodd" class="s2" d="m30.8 23.9c-0.4 0-0.6 0-0.8-0.3c-0.2-0.2-0.3-0.5-0.3-0.9v-3.7l0.7-0.2v3.9c0 0.2 0.1 0.3 0.2 0.4c0 0.1 0.2 0.1 0.3 0.1q0.2 0 0.3-0.1c0-0.1 0.1-0.2 0.1-0.4v-3.7l0.7-0.2v3.9c0 0.4 0 0.7-0.3 0.9q-0.2 0.4-0.9 0.3zm-2.8 0c-0.4 0-0.7 0-0.9-0.3c-0.2-0.2-0.3-0.5-0.3-0.9v-2.7c0-0.4 0.1-0.7 0.3-1c0.2-0.2 0.5-0.3 0.9-0.3q0.6 0 0.9 0.3c0.2 0.3 0.3 0.6 0.3 1v0.2l-0.8 0.2v-0.5q0-0.5-0.4-0.5q-0.4 0-0.4 0.5v2.8q0 0.5 0.4 0.5q0.4 0 0.4-0.5v-1h-0.4v-0.3l1.2-0.4v1.7c0 0.4-0.1 0.7-0.3 0.9q-0.3 0.4-0.9 0.3zm4.6-5.1h1.2q0.6 0 0.9 0.3q0.3 0.3 0.3 0.9v0.3c0 0.5-0.2 0.8-0.5 1c0.2 0 0.3 0.2 0.4 0.3c0.1 0.2 0.1 0.5 0.1 0.7c0 0.2 0 1.2 0 1.3c0 0.1 0 0.2 0.1 0.3h-0.8q-0.1-0.1-0.1-0.3q0 0 0-0.4v-0.9q0-0.3-0.1-0.5q-0.1-0.1-0.4-0.1h-0.3v2l-0.8 0.2zm1.1 2.2q0.2 0 0.4-0.1q0.1-0.1 0.1-0.5v-0.3q0-0.4-0.1-0.4q-0.1-0.2-0.3-0.2h-0.4v1.5zm3 3q-0.6 0-0.9-0.3q-0.3-0.4-0.3-1v-3.7l0.8-0.2v4c0 0.2 0.1 0.2 0.1 0.3q0.1 0.2 0.3 0.2c0.2 0 0.3-0.1 0.3-0.2c0.1-0.1 0.2-0.1 0.2-0.3v-3.8l0.7-0.2v3.9c0 0.4-0.1 0.7-0.3 1c-0.2 0.2-0.5 0.3-0.9 0.3z" /><path fill-rule="evenodd" class="s2" d="m6.7 23.9c-0.4 0-0.7 0-0.8-0.3c-0.3-0.2-0.3-0.5-0.3-0.9v-2.7c0-0.4 0-0.7 0.3-1q0.2-0.3 0.8-0.3c0.4 0 0.7 0.1 0.9 0.3c0.2 0.3 0.3 0.6 0.3 1v0.2l-0.7 0.2v-0.5c0-0.3-0.2-0.5-0.5-0.5q-0.4 0-0.4 0.5v2.8q0 0.5 0.4 0.5c0.3 0 0.5-0.1 0.5-0.5v-1h-0.4v-0.3l1.1-0.4v1.7c0 0.4-0.1 0.7-0.3 0.9c-0.2 0.3-0.5 0.3-0.9 0.3zm14.6 0c-0.4 0-0.7 0-0.9-0.3c-0.2-0.2-0.3-0.5-0.3-0.9v-2.7c0-0.4 0.1-0.7 0.3-1q0.4-0.3 0.9-0.3q0.6 0 0.9 0.3q0.3 0.4 0.3 1v0.2l-0.8 0.2v-0.5q0-0.5-0.4-0.5q-0.4 0-0.4 0.5v2.8q0 0.5 0.4 0.5q0.4 0 0.4-0.5v-1h-0.4v-0.3l1.2-0.4v1.7q0 0.6-0.3 0.9q-0.3 0.4-0.9 0.3zm-12.3-5.1h1.1l0.9 5.1l-0.8-0.2l-0.2-0.8h-0.9l-0.1 0.8l-0.8 0.2zm0.9 3.4l-0.3-2.5l-0.4 2.5zm2.1-3.4h1.1l0.8 5.1l-0.7-0.2l-0.2-0.8h-0.9l-0.2 0.8l-0.7 0.2zm0.9 3.4l-0.4-2.5l-0.3 2.5zm1.4-3.4h1.2q0.7 0 0.9 0.3q0.3 0.3 0.3 0.9v0.3c0 0.6-0.2 0.9-0.5 1q0.3 0.1 0.4 0.4c0 0.2 0.1 0.4 0.1 0.7v0.9c0 0.2 0 0.3 0 0.4c0 0.1 0.1 0.2 0.1 0.3h-0.8q-0.1-0.2-0.1-0.3q0-0.1 0-0.4v-0.9q0-0.4-0.1-0.5q-0.1-0.2-0.4-0.2h-0.3v1.8l-0.8 0.5zm1.1 2.2q0.3 0 0.4-0.2q0.1-0.1 0.1-0.4v-0.4q0-0.3-0.1-0.4q-0.1-0.1-0.3-0.1h-0.4v1.5zm2.5-2.2h1.1l0.8 5.1l-0.8-0.2l-0.1-0.8h-0.9l-0.2 0.8l-0.7 0.2zm0.9 3.4l-0.4-2.5l-0.4 2.5zm4.3-3.4h2.2l-0.3 0.7h-1.1v1.4h1.1l-0.3 0.7h-0.8v1.6h1.4l-0.3 0.7h-1.9z" /><path class="s4" d="m3.4 20.7q0.2 0 0.4 0.1l-0.9 0.9q-0.1-0.2-0.1-0.4c0-0.3 0.3-0.6 0.6-0.6zm0.6 0.2q0.1 0.2 0.1 0.4c0 0.4-0.3 0.6-0.7 0.6q-0.2 0-0.3 0z" /><path class="s4" d="m40 20.7q0.3 0 0.4 0.1l-0.9 0.9q-0.1-0.2-0.1-0.4c0-0.3 0.2-0.6 0.6-0.6zm0.5 0.2q0.2 0.2 0.2 0.4c0 0.4-0.3 0.6-0.7 0.6q-0.2 0-0.4 0z" /><path fill-rule="evenodd" class="s0" d="m11.7 36.9l0.1 0.1l-0.3 1l0.8-0.7l0.1 0.1l-0.3 1l0.7-0.8l0.2 0.1l-0.9 0.8l-0.1-0.1l0.2-0.9l-0.7 0.6l-0.2-0.1zm1.8 1.8l-0.5-0.3l-0.3 0.5l-0.1-0.1l0.5-1h0.1l-0.2 0.5l0.6 0.2l0.2-0.4h0.1l-0.5 1.1l-0.2-0.1zm1.2-0.1l-0.5-0.2l-0.1 0.4l0.3 0.2v0.1l-0.4-0.2l-0.1 0.4l0.4 0.2v0.1l-0.6-0.3l0.4-1l0.6 0.2zm0.6 0.1q0.3 0.2 0.2 0.5c-0.1 0.1-0.2 0.2-0.4 0.2l0.1 0.6l-0.1-0.1l-0.1-0.5l-0.2-0.1l-0.1 0.4h-0.2l0.4-1.1zm0 0.1l-0.2-0.1l-0.2 0.5h0.2c0.2 0.1 0.3 0 0.3-0.1c0.1-0.1 0-0.2-0.1-0.3zm1.1 0.4l-0.5-0.1l-0.1 0.3l0.4 0.2v0.1l-0.4-0.1l-0.1 0.3l0.4 0.2v0.1l-0.6-0.2l0.3-1.1l0.6 0.2zm0.6 0h0.1l0.2 0.7l0.4-0.5l0.1 0.1l-0.5 0.5l-0.1 0.5l-0.2-0.1l0.1-0.4zm1.3 1.5c-0.3-0.1-0.5-0.4-0.4-0.7c0-0.3 0.3-0.5 0.6-0.5c0.3 0.1 0.6 0.4 0.5 0.7c-0.1 0.4-0.4 0.6-0.7 0.5zm0-0.1c0.3 0 0.5-0.1 0.5-0.4c0.1-0.3 0-0.5-0.3-0.5c-0.2-0.1-0.5 0.1-0.5 0.3c0 0.3 0.1 0.5 0.3 0.6zm0.9-0.9h0.1l-0.1 0.7c0 0.2 0.1 0.3 0.3 0.4c0.2 0 0.3-0.1 0.3-0.3l0.1-0.7h0.1v0.7c0 0.3-0.3 0.4-0.5 0.4c-0.3 0-0.4-0.2-0.4-0.5zm1.4 0.2q0.4 0 0.4 0.4c0 0.1-0.1 0.2-0.3 0.3l0.3 0.5h-0.2l-0.3-0.5h-0.1v0.4h-0.2l0.1-1.1zm0 0.1h-0.2l-0.1 0.4h0.2q0.3 0 0.3-0.2c0-0.1-0.1-0.2-0.2-0.2zm1.5-0.1q0.4 0 0.6 0.4h-0.2q-0.1-0.3-0.4-0.3c-0.2 0-0.4 0.2-0.4 0.5c0 0.3 0.2 0.5 0.4 0.5c0.2 0 0.3-0.1 0.4-0.3h0.2q-0.2 0.4-0.6 0.4c-0.3 0-0.6-0.3-0.6-0.6c0-0.3 0.3-0.6 0.6-0.6zm1.4 0.9h-0.5v0.3h-0.2l0.4-1.2h0.2l0.4 1.1h-0.1zm-0.3-0.7l-0.2 0.6h0.4zm1-0.3c0.3 0 0.4 0.1 0.4 0.3c0 0.2 0 0.3-0.2 0.3l0.3 0.5h-0.1l-0.4-0.4h-0.1v0.5h-0.2l-0.1-1.2zm0 0.1h-0.2l0.1 0.5l0.2-0.1q0.3 0 0.2-0.2q0-0.2-0.3-0.2zm1-0.2l0.1-0.1l0.7 0.9l0.2-1l0.2-0.1l0.2 1.2h-0.2l-0.1-0.9l-0.2 1h-0.1l-0.6-0.8l0.2 0.8l-0.2 0.1zm2.2 0.4l-0.4 0.1l-0.1 0.3h-0.1l0.1-1.2l0.1-0.1l0.8 1.1h-0.2zm-0.4-0.6l-0.1 0.6l0.4-0.1zm0.5-0.4l0.7-0.2v0.1l-0.2 0.1l0.2 1h-0.1l-0.3-1l-0.3 0.1zm0.7-0.3l0.8-0.2v0.1l-0.3 0.1l0.4 1h-0.2l-0.3-1l-0.3 0.1zm1.5-0.5l-0.5 0.2l0.2 0.4l0.4-0.2v0.1l-0.4 0.2l0.2 0.4l0.4-0.2l0.1 0.1l-0.6 0.2l-0.4-1l0.5-0.2zm0.5-0.4q0.3-0.1 0.5 0.1c0.1 0.2 0 0.3-0.1 0.5l0.5 0.3l-0.2 0.1l-0.5-0.3h-0.1l0.2 0.4l-0.2 0.1l-0.5-1zm0.1 0.1l-0.3 0.1l0.3 0.4l0.1-0.1c0.2-0.1 0.2-0.2 0.2-0.3c-0.1-0.1-0.2-0.2-0.3-0.1zm1.3 0.5c-0.2 0.1-0.4 0-0.5-0.1l0.1-0.1c0.1 0.1 0.2 0.2 0.3 0.1c0.2-0.1 0.2-0.2 0.2-0.3c-0.2-0.3-0.6 0.2-0.9-0.2q-0.1-0.3 0.3-0.5c0.1-0.1 0.3 0 0.4 0.1l-0.1 0.1c-0.1-0.1-0.2-0.1-0.3 0q-0.2 0-0.1 0.2c0.1 0.3 0.6-0.2 0.8 0.2c0.1 0.1 0 0.4-0.2 0.5z" /></g></svg>