<svg version="1.2" xmlns="http://www.w3.org/2000/svg" viewBox="0 0 88 89" width="88" height="89"><defs><clipPath clipPathUnits="userSpaceOnUse" id="cp1"><path d="m-312-2423h1920v4495h-1920z"/></clipPath></defs><style>.A{fill:#fbab43}</style><g clip-path="url(#cp1)"><path fill-rule="evenodd" class="A" d="m55 85c-0.6-0.6-1.2-0.6-1.2-0.6l-7.1-3.6l-8.4-5.4c-0.6-0.6-1.2-0.6-1.2-1.2c-1.2-0.5-3-1.7-4.2-2.9l-1.2-1.2c0 0 0 0-0.6 0c0-0.6 0-0.6-0.6-0.6l-0.6-1.2c-1.2-0.6-2.4-1.8-3.6-2.4l-4.8-5.4c-0.6-0.6-0.6-0.6-1.1-1.2l-0.6-0.6c-1.2-1.2-3-3.6-4.2-4.8c-1.2-1.8-1.8-3-3-4.2c-0.6-0.6-0.6-1.2-1.2-1.8c-1.2-1.8-1.8-2.9-3-4.7c-0.6-0.6-0.6-1.2-1.2-1.8c-2.4-4.8-4.8-10.2-6-15.6c-0.6-0.6-0.6-1.8-0.6-2.4c-0.6-3-1.2-6.5 1.2-8.9c0.6-0.6 10.8-11.4 12-12.6c0.6-0.6 2.4-2.4 3.6-1.2c0 0 0 0.6 0.6 0.6l1.8 3.6c0.6 1.8 1.7 4.2 2.9 6c0 0.6 0.6 0.6 0.6 1.2l4.2 7.7c0.6 1.2 1.2 2.4 0.6 4.2c-0.6 1.2-4.8 4.2-6 6c-0.6 0.6-0.6 1.8-0.6 3c0 2.4 2.4 7.8 4.2 10.2l6 7.1c0 0.6 0.6 0.6 1.2 1.2c0 0 0 0 0 0.6c3.6 3.6 7.2 6.6 10.8 9.6c1.8 1.2 3.6 2.4 5.4 3l2.9 1.2c1.8 1.2 4.2 1.8 6 0c1.2-0.6 3.6-3.6 5.4-4.8c1.2-1.2 1.8-2.4 4.2-1.8c0.6 0 3.6 1.8 4.2 2.4c0.6 0 1.2 0.6 1.8 1.2c0.6 0 0.6 0.6 1.2 0.6l6.5 3.6l0.6 0.6l4.2 2.4c0.6 0.6 1.8 0.6 1.8 1.8c0 0.6 0 1.2-0.6 1.8l-13.1 12.5c0 0.6-0.6 0.6-0.6 0.6c-1.8 1.2-2.4 1.2-4.2 1.2c-5.4 0-10.2-1.2-14.4-3zm-14.9-84.9c7.2 0 13.7 2.4 18.5 4.8l3 1.2c0.6 0.6 0.6 0.6 1.2 0.6c1.2 1.2 4.2 3 6 4.2c1.2 1.2 4.2 4.2 4.8 5.4c0.6 0.6 1.2 0.6 1.8 1.1c0 0.6 0.6 1.2 1.2 1.8c1.1 1.8 2.3 3 3.5 5.4c2.4 3.6 3.6 7.2 5.4 12c0 1.8 0.6 3.6 0.6 4.8c0.6 1.2 0.6 1.8 0.6 3v2.3h-6.6c0-1.2 0-3.5-0.6-4.7c0-1.2 0-2.4-0.6-3.6c-0.6-3-1.7-5.4-2.9-7.8c-1.2-3-2.4-4.8-4.8-7.8l-3-3l-2.4-2.9c0 0-0.6 0-0.6-0.6h-0.6c-0.6-0.6-0.6-0.6-0.6-0.6c-0.6-0.6-1.2-1.2-1.8-1.2c-2.4-1.8-3.6-2.4-6-3.6c-0.6-0.6-1.2-0.6-1.8-1.2c-0.6 0-1.2-0.6-1.8-0.6c-1.2-0.6-2.4-0.6-4.1-1.2c-1.8-0.6-3.6-1.2-6-1.2h-2.4zm0 14.3c4.2 0 9 1.8 12.5 3.6c2.4 1.2 4.8 2.4 6.6 4.2c1.2 0.6 1.8 1.2 3 2.4c5.4 6 9 12.6 9.6 20.3c0.6 0.6 0.6 1.2 0.6 1.8h-6.6c-0.6-3.6-1.8-7.2-3-10.1c-1.2-3-3-4.8-5.4-7.2c-2.4-3-4.8-4.2-8.3-6c-0.6 0-1.2-0.6-1.2-0.6c-1.8-0.6-3-1.2-5.4-1.2c-0.6 0-1.8-0.6-2.4-0.6zm0 15c1.2 0 2.4 0.6 3.6 0.6c3.6 1.2 7.7 4.1 10.1 7.1c0.6 0.6 0.6 1.2 1.2 1.8c1.2 1.8 2.4 5.4 2.4 7.8h-5.4c-0.6-3-2.4-5.4-4.1-7.8c-0.6 0-0.6-0.6-0.6-0.6c-1.8-1.2-5.4-3.6-7.2-3.6z"/></g></svg>