<svg version="1.2" xmlns="http://www.w3.org/2000/svg" viewBox="0 0 56 59" width="56" height="59"><defs><clipPath clipPathUnits="userSpaceOnUse" id="cp1"><path d="m-1704-36h1920v1080h-1920z" /></clipPath></defs><style>.s0{fill:#d7401d}.s1{fill:#f8572b}.s2{fill:#fde1c4}.s3{fill:#000000}.s4{fill:#ffffff}.s5{fill:#e5c4a5}</style><g clip-path="url(#cp1)"><path class="s0" d="m0.9 7.8c0-3.9 3.2-7 7-7h39c3.9 0 7 3.1 7 7v9.5c0 3.9-3.1 7-7 7h-39c-3.8 0-7-3.1-7-7z" /><path class="s1" d="m3.7 7.7c0-2.2 1.8-4 4-4h39.6c2.2 0 4 1.8 4 4v9.8c0 2.2-1.8 4-4 4h-39.6c-2.2 0-4-1.8-4-4z" /><path class="s2" d="m23.1 38.2v-12.8c0-1.1-0.1-2.1 0.3-2.9c0.4-0.6 1.4-1.1 2.2-0.8c1.7 0.5 1.5 1.9 1.5 3.8v10.5c0 0.9 0 1.8 0 2.7c0.1 1.1 0.6 1 1.5 0.9c0.5-1.3 0.3-3.4 0.3-5.1c0-2.7 2.1-2.8 2.7-2.3c1.4 0 1.3 1.8 1.3 3.3c0 0.7 0 1.7 0 2.4c0.2 0.9 0.7 0.9 1.5 0.9c0.7-1.2 0.1-2.8 0.4-4.3c0-0.7 0.4-1.1 0.8-1.4c0.4-0.3 1.2-0.6 1.6-0.2c0.7 0 1.2 0.5 1.4 1.1c0.3 0.7 0.1 1.7 0.1 2.5c0 1.2-0.3 4.5 1.6 3.3c0.6-1-0.2-2.2 0.5-3.3c0.3-0.3 0.6-0.6 1-0.8c0.5-0.1 1.1-0.2 1.5 0.1c1.5 0.2 1.3 2.5 1.3 3.3c0 3.7 0.3 7.2-1.1 10.7c-0.3 0.8-0.5 1.3 0.2 1.7l-0.4 1c-1.5-0.4-1.2 0.6-3.4 2.4c-0.9 0.9-2.5 1.7-4.1 1.9c-1.4 0.3-10.8 0.3-11.8 0c-4.4-0.7-6.2-5.7-6.8-9.4c-0.5-2.5-0.2-5.2-0.9-7.3c-0.4-1.2-1.1-1.9-0.5-3.2c0.4-0.8 1.4-1.6 2.6-1.4c1.2 0.2 1.6 0.9 2.1 1.7c1.2 2.4 0.8 3.7 0.8 6.7c0 2 1.5 1.8 1.8 0.7c0.1-2 0-4.3 0-6.4z" /><path class="s3" d="m22.5 21c0.1-0.2 0.4-0.4 0.6-0.5c1.2-0.8 2.7-0.8 3.9-0.1c0.8 0.5 0.9 0.8 1.3 1.1c0.1 0.4 0.3 0.8 0.5 1.3c0.1 0.5 0.1 1.1 0.1 1.7v6.2c1.3-0.8 3.2-0.7 4.3 0.3c0.5 0.4 0.7 0.7 1 0.9c2.7-2.3 6.3-0.1 6.3 2.5c1.7-1.1 3.9-0.5 4.9 0.7c1.2 1.5 1 3.3 1 5.9c0 3.2 0.1 6.2-1.1 9c-0.1 0.4-0.2 1-0.4 1.3c-0.3 0.3-0.7 0.5-1.2 0.2c-0.7-0.4-0.5-0.9-0.2-1.7c1.4-3.5 1.1-7 1.1-10.7c0-0.8 0.2-3.1-1.3-3.3c-0.4-0.3-1-0.2-1.5-0.1c-0.4 0.2-0.7 0.5-1 0.8c-0.7 1.1 0.1 2.3-0.5 3.3c-1.9 1.2-1.6-2.1-1.6-3.3c0-0.8 0.2-1.8-0.1-2.5c-0.2-0.6-0.7-1.1-1.4-1.1c-0.4-0.4-1.2-0.1-1.6 0.2c-0.4 0.3-0.8 0.7-0.8 1.4c-0.3 1.5 0.3 3.1-0.4 4.3c-0.8 0-1.3 0-1.5-0.9c0-0.7 0-1.7 0-2.4c0-1.5 0.1-3.3-1.3-3.3c-0.6-0.5-2.7-0.4-2.7 2.3c0 1.7 0.2 3.8-0.3 5.1c-0.9 0.1-1.4 0.2-1.5-0.9c0-0.9 0-1.8 0-2.7v-10.5c0-1.9 0.2-3.3-1.5-3.8c-0.8-0.3-1.8 0.2-2.2 0.8c-0.4 0.8-0.3 1.8-0.3 2.9v12.8c0 2.1 0.1 4.4 0 6.4c-0.3 1.1-1.8 1.3-1.8-0.7c0-3 0.4-4.3-0.8-6.7c-0.5-0.8-0.9-1.5-2.1-1.7c-1.2-0.2-2.2 0.6-2.6 1.4c-0.6 1.3 0.1 2 0.5 3.2c0.7 2.1 0.4 4.8 0.9 7.3c0.6 3.7 2.4 8.7 6.8 9.4c1 0.3 10.4 0.3 11.8 0c1.6-0.2 3.2-1 4.1-1.9c2.2-1.8 1.9-2.8 3.4-2.4c0.4 0.6 0.5 0.9-0.1 1.5c-1.2 1.5-1.3 1.9-3.3 3.2c-1.3 0.8-3.2 1.5-4.9 1.5h-9.8q-0.8 0-1.3-0.1c-5.4-0.9-7.8-6.2-8.5-11.2c-0.6-3-0.1-5-1.2-7.7c-1.2-3.2 0.8-6 4.1-6c1.7 0.1 2.1 0.9 2.9 1.4v-10.7c0.2-0.4 0.1-1.1 0.2-1.5c0.2-0.6 0.4-0.9 0.5-1.3c0.3-0.3 0.3-0.4 0.6-0.6z" /><path class="s3" d="m14.3 0h33.5c2.2 0 3.1 0.3 4.5 1.3c1 0.8 2 2 2.4 3.3c0.7 1.9 0.4 8.9 0.4 11.3c0 2.6 0.2 5.1-1.7 7c-1.9 2.1-3.1 2.5-6.3 2.5h-14.6c-1.1 0-1.9 0.1-2-0.9c0.2-1 0.8-0.9 1.7-0.9h8.2c2.6 0 8.3 0.4 10.2-0.7c3.3-1.7 2.7-4.8 2.7-8c0-1.8 0-3.6 0-5.4c0-2.6 0.4-6.1-3.3-7.4c-1.3-0.5-3.5-0.3-5-0.3h-29.6c-1.3 0-1.5 0-1.8-1c0.2-0.4 0.2-0.7 0.7-0.8z" /><path class="s3" d="m17.4 25.4c-2.4 0-9.9 0.1-11.3-0.1c-2.9-0.5-5.3-2.4-5.9-5.3c-0.3-1.4-0.1-9.2-0.1-11c0-3.1-0.2-4.2 1.2-6.2c1-1.3 2.6-2.5 4.6-2.8h4.5h1.2c0.7 0.1 0.7 0.3 0.9 0.8c-0.3 1.2-1 1-2.3 1c-2.9 0-5.8-0.5-7.6 2.3c-1 1.6-0.8 3.5-0.8 5.6c0 1.5-0.1 8.6 0.1 9.8c0.6 2.7 2.8 4.1 5.9 4.1h11.5c0.7 0.1 0.7 0.4 0.9 0.8c-0.5 1.2-0.7 1-2.8 1z" /><path class="s4" d="m11.8 16.9c0 1.2 0.2 2.2-1.3 2c-1.3-0.1-1-1.2-1-2.5v-7c0-0.9-0.3-2.6 0.5-3c0.6-0.1 1.2 0 1.6 0.2c0.3 0.4 0.2 0.9 0.2 1.4c0 1.2 0 2.4 0 3.5h3.9c0-1.2 0-2.4-0.1-3.6c0-0.5-0.1-1.1 0.4-1.3c0.3-0.3 1.1-0.3 1.5-0.1c0.7 0.3 0.4 2.2 0.4 3v7c0 1.3 0.4 2.4-1 2.5c-1.5 0-1.2-1-1.2-2.2q0-1.8 0-3.5h-3.9q0 1.8 0 3.6z" /><path fill-rule="evenodd" class="s4" d="m39 18.9c-0.9 0.2-1.6-0.1-1.6-0.9v-10.4c0-1 0.2-1.2 1.2-1.3c3.6 0 6.7-0.2 7 3.4c0.4 4.7-3.3 4.6-6 4.6c-0.2 2.2 0.5 4.3-0.6 4.6zm0.6-6.4c1.7 0 3.3 0.3 3.6-1.3c0.5-1.8-0.3-2.9-2-2.9h-1.6z" /><path class="s4" d="m23 19c-2.6 0-3.1 0.3-3.1-1.6c0.1-2.9 0-5.8 0-8.8c0-2.3-0.1-2.3 2.3-2.2c1.4 0 3-0.1 4.5-0.1c0.7 0.1 1.1 0.3 1 1.2c0 1.6-2.4 0.5-5.5 0.9v3.3c1.2 0.2 3.3-0.4 3.3 0.9c0 1.4-2.1 0.8-3.3 1v3.3c1.1 0.2 4.5-0.1 5.1 0.2c0.6 0.3 0.6 1.4 0 1.7c-0.6 0.3-3.5 0.2-4.3 0.2z" /><path class="s4" d="m29.1 9c0-0.8-0.3-2.2 0.5-2.6c0.4-0.1 1.1-0.1 1.4 0.2c0.3 0.2 0.3 0.5 0.3 1.1v9.2c1 0 3.7-0.1 4.4 0.2c0.7 0.5 0.5 1.2 0.2 1.7c-0.9 0.2-2.7 0.2-3.6 0.2c-1.7 0-2.5 0.2-3.2-0.5c-0.2-2.1 0-6.9 0-9.5z" /><path class="s1" d="m39.6 8.3h1.6c1.7 0 2.5 1.1 2 2.9c-0.3 1.6-1.9 1.3-3.6 1.3v-0.4z" /><path class="s5" d="m40.8 36.5c0.3-0.3 0.6-0.6 1-0.8c0.5-0.1 1.1-0.2 1.5 0.1c-1.9 0 0.4 5-3 4c0.6-1-0.2-2.2 0.5-3.3zm-23.6 10.9c-0.5-2.5-0.2-5.2-0.9-7.3c-0.4-1.2-1.1-1.9-0.5-3.2c0.4-0.8 1.4-1.6 2.6-1.4c-2 2.8-0.5 3.4-0.1 5.5c0.7 3.4 0.2 7.9 2.4 11.9c1.4 2.5 1.7 2.4 3.3 3.9c-4.4-0.7-6.2-5.7-6.8-9.4zm5.9-9.2v-12.8c0-1.1-0.1-2.1 0.3-2.9c0.4-0.6 1.4-1.1 2.2-0.8c-1 1.4-0.7 3.8-0.7 5.9v12.5c0 3.1 0.5 4.5-1.8 4.5c0.1-2 0-4.3 0-6.4zm5.8-3.7c0-2.7 2.1-2.8 2.7-2.3c-1.3 0.3-0.9 3.3-0.9 4.5c0 0.8 0.1 1.9-0.2 2.6c-0.4 0.5-1.2 0.6-1.9 0.3c0.5-1.3 0.3-3.4 0.3-5.1zm5.9 0c0-0.7 0.4-1.1 0.8-1.4c0.4-0.3 1.2-0.6 1.6-0.2c-0.9 0.8-0.7 2.3-0.7 3.7c0 0.8 0.1 1.4-0.4 1.8c-0.7 0.6-1.1 0.2-1.7 0.4c0.7-1.2 0.1-2.8 0.4-4.3z" /></g></svg>