<svg version="1.2" xmlns="http://www.w3.org/2000/svg" viewBox="0 0 50 52" width="50" height="52"><defs><clipPath clipPathUnits="userSpaceOnUse" id="cp1"><path d="m-736-829h960v6957h-960z" /></clipPath></defs><style>.s0{fill:#fbab43}</style><g clip-path="url(#cp1)"><path fill-rule="evenodd" class="s0" d="m0.6 50.4c0-1.9 0.3-1.3 2.3-1.4l-0.1-21.8c-1 0-2.4 0.2-2.3-1.2c0.1-1.2 1.3-1 2.4-1.1c0.1-2 0-4.3 0-6.3v-15.9c0-2.9 3.3-2.9 3.3 0c0.1 7.3-0.1 15.1 0 22.2l6.7 0.1v-1.3c-2.8-0.1-2.3-2.6-2.3-5.1c0-1.8-0.1-3.1 0.9-4.7c0.5-0.8 1.4-1-0.1-2.3c-0.9-0.7-4.6 0.9-3.7-2.6c0.3-1.3 1.9-1 3.2-1c2.2 0 1.3 1.4 1.7 2.5c0.3-0.2 0.4-1.5 0.5-2.1c0.3-1.2 1-6.2 1.4-6.7c0.6-0.6 3.8-0.3 5-0.3q5.4 0 10.7 0c6.2 0 4.9-1.3 6.5 6.9c0 0.4 0.1 0.7 0.2 1.1c0 0.5 0.1 0.8 0.3 1.1c0.4-1.1-0.5-2.5 1.7-2.5c1.3 0 2.9-0.3 3.2 1c0.8 3.5-2.7 1.9-3.6 2.5c-0.3 0.2-0.9 1-1 1.3c0 0.3 0.8 0.9 1.4 2.3c0.4 1.1 0.3 2.2 0.3 3.5c0 2.8 0.6 4.7-2.3 5.1v1.2l6.6 0.1c0.2-5.8 0-13 0-19.1c0-0.9-0.1-3.8 0.3-4.5c0.6-1.2 2.3-1.2 2.9 0c0.2 0.4 0.2 0.8 0.2 1.4v22.1c1.1 0.1 2.4-0.1 2.4 1.2c0 1.3-1.3 1.1-2.4 1.1v21.8q0.6 0 1.2 0c0.1 0 0.4 0 0.5 0c1 0.3 0.4 2.2 0.3 2.7h-7.3c-0.9-3.5 0.5-2.6 1.9-2.8v-21.7h-6.8c-0.5 0.7-0.6 1.2-1.6 1.5c-0.8 0.3-1.7 0.1-2.4-0.3c-1.5-1-1.2-2.6-1.2-4.7h-7.2c-0.5-0.6-0.3-0.6-1-1c-1.5-0.9-3.2-0.3-3.9 1h-1.1c-0.1 2.2 0.4 3.6-1.3 4.7c-0.7 0.4-1.6 0.6-2.4 0.2c-0.9-0.3-1.1-0.7-1.5-1.4h-6.9l0.1 21.8c1.7 0 2.7-0.6 1.9 2.7h-7.3c-0.2-0.6-0.3-0.4-0.3-1.3zm28.6-17.9c2 0 2.8 0.7 2.8 2.7q0 2.7 0 5.5c0 1.2 0.1 3.3-1.9 3.5c-1.6 0.1-3.9 0-5.5 0c0.2 1.3 2 5 2.1 5.7c0.2 1.7-1.9 2.5-2.8 1.1l-2.4-6.1c-0.4-1-1.3-2.5-0.2-3.4c0.7-0.6 3.3-0.3 4.5-0.4v-6.8c0.5 0.3 1.9 1.3 2.4 1.3c-1-1-2.1-1.9-3.1-2.8c-0.8-0.8-2-1.5-2.4-2.5c-0.3-0.7-0.7-1.5-0.9-2.2c-0.5-1.1-2.3-4.1-0.1-4.3c1.9-0.2 2.3 4.7 3.8 6c1.5 1.2 2.8 2.6 4.3 3.9v-0.1c-0.1-0.4-0.4-0.7-0.6-1.1zm-3.7-6.2c4.3-2 6.1 3.6 2.8 5c-0.5-0.5-1.3-1.6-1.7-2.3c-0.3-0.4-1-2-1.1-2.7zm2.4 19.5c0.8 0 2.6-0.1 3.1-0.1v2.9c1.3 0 4-0.1 5.3 0c0.7 0.1 1.2 0.6 1.3 1.3c0.2 1.3-0.3 1.6-0.8 1.8h-8c-0.6-1.5-1-4.3-0.9-5.9zm-14.6-28.8c-0.9 3 3.6 4.3 4.5 1.2c0.8-2.9-3.7-4.2-4.5-1.2zm21.3 3c3-0.4 2.5-5.1-0.7-4.7c-1.1 0.2-2.1 1.2-2 2.6c0.1 1.2 1.3 2.2 2.7 2.1zm-5.1-2.9c-0.3-0.3-0.7-0.2-1.2-0.2c-1.6 0-7.7-0.3-8.2 0.3c-0.7 1.2 0.6 1.4 1.5 1.4h5.8c0.8 0 1.9 0.1 2.3-0.5c0.3-0.4 0.1-0.9-0.2-1zm-14.6-5.6c3.1-0.1 6.3-0.2 9.5-0.2c1.9 0 1 0.1 1.7-1.3c1-2.3 4.1-2.9 5.9-1.2c0.8 0.8 1 1.2 1.3 2.5l1.6 0.2l-1.4-7.9h-6.3c0.5 1.7-0.9 1.6-2.3 1.6c-1.4 0-2.7 0.1-2.3-1.6h-6.3zm12.9-0.1h3.6c-0.1-2.1-3.6-2-3.6 0zm-2.5 10.5c1 0 3.6 0.4 3.2-1.1c-0.3-1-2.8-0.6-3.8-0.6c-1 0-3.8-0.4-3.1 1.2c0.4 0.9 2.7 0.5 3.7 0.5z" /></g></svg>