<svg version="1.2" xmlns="http://www.w3.org/2000/svg" viewBox="0 0 79 49" width="79" height="49"><defs><clipPath clipPathUnits="userSpaceOnUse" id="cp1"><path d="m-534-831h960v6957h-960z" /></clipPath></defs><style>.s0{fill:#fbab43}</style><g clip-path="url(#cp1)"><path fill-rule="evenodd" class="s0" d="m78.5 21.5c-0.1 0.2-0.1 0.4-0.3 0.6c-1.1 2.2-4.6-0.3-5.9 0.5c-3.6 2.3-0.7 1.5-0.3 5.8c0.2 2-0.3 3.8-0.7 5.6c-0.7 4-0.4 7.2-5.1 6.9c-0.3 3.2-1.1 7.9-5.6 7.1c-1.7-0.4-2.8-1.7-3.2-3.1c-0.6-1.9 0.6-3.9 0.5-5.7l-3.7-0.7c-0.2 2-0.6 2.8-2.7 2.5c-1.5-0.3-2.9-0.6-4.3-0.8c-1.5-0.4-2.8-0.6-4.3-0.9c-2-0.4-1.7-1.4-1.6-3.2l-3.7-0.7c-0.2 1.2-0.5 3.4-0.9 4.4c-0.7 1.7-1.5 1.8-2.8 2.7c7.4 0.2 7.4-1 7.4 3.5c0 2.5-1.3 2-3.4 2h-11.1c-2.6 0-3.2 0.2-3.2-2.5c0-4 0.2-2.9 8.1-3c-4.9-2.2-2.6-5.7-2.5-8.8c-4.2-0.7-2.7-5.1-2-8.6c0.6-3 0.8-4.6 2.6-6.8c0.6-0.6 1.3-0.9 1.8-1.6c-0.1-0.5-0.9-1.8-1.2-2.2c-0.8-1-4-0.2-5-1.9c-0.4-0.8-0.2-2 0.1-2.8c0.6-2.3 3.2-1.3 5-0.9c3.8 0.7 1.9 1.9 2.2 4.4c0.5-0.3 1.2-2.5 1.5-3.1c0.6-1.8 3.3-8.9 3.8-9.6c0.8-1 2.3-0.5 3.5-0.3c1.2 0.2 2.5 0.5 3.8 0.7l22.5 4.3c3.4 0.7 2.8 1.3 2.8 6.3c0 1.3-0.3 8.2 0 8.8c0.9-0.6 0-3.7 3-3.2c5.5 0.9 4 1.2 5.1 1.6v2.4c-0.3 0.1-0.1-0.1-0.2 0.3zm-61.3-6c0.9 2.7-1 4.8-2.8 5.4c-5.5 1.7-8-6.6-2.5-8.2c2.6-0.8 4.7 0.9 5.3 2.8zm-16.1 15.4c0.6-3.1 0.8-5.2 3.3-7.2c2.7-2.1 9.5-2.8 8.8 2.2c-0.5-0.1-1.6-1.1-2.4-1.4c0.8 1.4 4.3 5.4 4.8 6.6l5.7-0.6c0.2-1 0.6-1.9 1-2.9c0.3-0.9 0.5-2.2 1.5-2.3c2.8-0.3 0.3 3.9 0.3 5.1c1.5 1 2 3.4-1.4 3.9c-2.3 0.3-4.6 0.6-6.9 0.9c-1.5 0.1-2-0.1-2.7-1c-1-1.2-4.3-6-5-6.6l3 7.4c1.6 4.2 3.8 2 7.8 2.1c0.3 1.8-0.2 2.6-1.4 3.5l-9.5 5.7c-0.6 0.4-2.4 1.7-3.3 1.7c-1.4 0.1-2.6-1.1-2.5-2.7c0.3-2.1 4.6-3.3 5.8-4.6c-2.7-0.1-5.8 0-7.2-3.1c-1.1-2.5-0.3-4 0.3-6.7zm63.7 3.4c1.8-0.3 3.3-2 2.9-4.3c-0.3-1.8-2.2-3.3-4.3-2.9c-4.8 1-3.4 8.1 1.4 7.2zm-21.3-6c2 0.4 12.2 2.5 12.9 2.2c0.8-0.3 1.6-2.2-0.7-2.7c-1.9-0.4-12.2-2.4-12.8-2.2c-1.2 0.5-1.6 2.2 0.6 2.7zm-7.4 0.4c1.7-0.4 3.2-2.3 2.6-4.5c-0.4-1.7-2.3-3.2-4.5-2.6c-4.8 1.4-2.7 8.4 1.9 7.1zm-0.1-13.3c2.6 0.1 5.8 0.9 8.4 1.4c2.4 0.4 6.1 1.4 8.4 1.6c0.8-2.6 3.2-5 6.8-4.3c1.7 0.4 2.7 1.3 3.5 2.2c1.2 1.5 1.1 2.3 1.3 4.3l2.5 0.7l0.1-12.5l-9.7-1.8c0.1 2.9-2.2 2-4.1 1.7c-2-0.4-4.2-0.6-2.9-3.1l-9.8-1.8zm25.4 4.6c0-3.7-4.7-4-5.6-1.2c0.5 0.4 4.7 1.1 5.6 1.2zm-17.7 11.2c-0.9 0.7-0.5 1.9 0.4 2.3c0.5 0.2 2.3 0.5 3.1 0.7c1.3 0.2 5.5 1.3 6.4 0.7c0.8-0.6 0.6-1.8-0.3-2.3c-0.4-0.1-8.7-2-9.6-1.4z" /></g></svg>