<svg version="1.2" xmlns="http://www.w3.org/2000/svg" viewBox="0 0 49 57" width="49" height="57"><defs><clipPath clipPathUnits="userSpaceOnUse" id="cp1"><path d="m-174-827h960v6957h-960z" /></clipPath></defs><style>.s0{fill:#fbab43}</style><g clip-path="url(#cp1)"><path fill-rule="evenodd" class="s0" d="m48 14.6c0 6.9-1.6 14.2-4.6 20.2l-1 2q-0.2 0.4-0.3 0.7c-0.7 1.1-1.3 2.1-1.9 3.2c-1.3 1.8-1.8 2.4-3.1 4.1q-0.2 0.3-0.5 0.6c-0.1 0.1-0.3 0.4-0.4 0.5l-4 4.2c-0.3 0.4-0.7 0.7-1 1l-2.2 1.9c-1.1 1-2.3 1.8-3.5 2.6c-0.7 0.5-0.9 0.7-1.7 0.7c-0.7 0-4.1-2.7-4.8-3.4c-0.2-0.1-0.4-0.2-0.6-0.4l-5.7-5.6c-0.7-0.6-3.1-3.7-3.6-4.5c-1.9-2.7-2.7-4-4.2-7q-4.9-9.6-4.9-20.8c0-0.8 0.1-1.5 0.1-2.3c0-1.3 0.6-1.6 1.7-1.8c4.1-0.8 10-3 13.6-4.9c0.1-0.2 0.2-0.2 0.4-0.3c0.2-0.1 0.5-0.3 0.7-0.4c0.2-0.1 0.3-0.1 0.4-0.2c0.8-0.4 1.9-1.1 2.7-1.6c0.5-0.2 0.9-0.5 1.4-0.9c0.3-0.1 0.5-0.3 0.8-0.5c1.1-0.7 1.9-1.7 3.1-0.9l3.6 2.3c1.3 0.9 3.2 1.9 4.6 2.6c0.5 0.2 1.1 0.5 1.6 0.8c0.6 0.3 1.1 0.5 1.6 0.7c1.1 0.5 2.4 1 3.5 1.4l1.8 0.6c1.4 0.4 2.1 0.7 3.7 1.1c0.5 0.1 1.5 0.2 1.9 0.5c0.5 0.2 0.8 0.8 0.8 1.6c0 0.8 0 1.4 0 2.2zm-42.6 14.4c0.4 1.1 1 2.9 1.6 3.9c0.2 0.5 0.4 0.9 0.6 1.3l2 3.5c0.9 1.6 3.9 5.8 5.6 7.4c0.2 0.3 0.2 0.4 0.4 0.6l3.3 3.2l4 3.3c0.4 0.3 0.7 0.5 1.1 0.8l1.6-1.2l4.5-3.8c0.4-0.4 0.6-0.7 1-1l0.9-0.9c0.1-0.2 0.2-0.3 0.4-0.5l0.9-1c0.2-0.1 0.2-0.3 0.4-0.5c0.5-0.5 2-2.5 2.5-3c0.8-1.1 1.5-2.2 2.2-3.4l1.7-3c1.3-2.5 2.1-4.4 3-7.2c1.3-4.1 1.9-8.3 1.9-13.6c0-0.3-0.1-0.3-0.1-0.6c-0.2 0-1.2-0.3-1.5-0.4q-0.5-0.1-0.8-0.2l-2.2-0.6l-6.1-2.5c-1.3-0.5-3.2-1.5-4.4-2.1c-0.3-0.2-0.4-0.3-0.6-0.4l-1.3-0.7c-1.5-0.9-2.5-1.5-4-2.5l-3.5 2.3c-0.8 0.4-4.1 2.3-4.9 2.6l-2.6 1.2c-2.1 0.9-4.8 1.9-6.9 2.5c-0.5 0.2-1 0.3-1.5 0.5c-0.4 0-1.2 0.3-1.5 0.3c0 0.3-0.1 0.3-0.1 0.6v0.8c0 5 0.8 9.7 2.4 14.3zm10.6 13.2l-1.7-2q-0.8-1-1.5-2c-1.3-1.7-2.2-3.6-3.2-5.4c-1.5-3.1-2.5-6.9-3-10.4c-0.1-0.6-0.2-1.4-0.2-2.2c-0.1-0.3-0.1-0.3-0.1-0.6c0-0.1 0-0.4 0-0.6c0-0.3 0-0.3 0-0.5c-0.1-0.9 0-2 0-3c0.2 0 0.5-0.1 0.7-0.1c1.2-0.3 3.2-0.8 4.3-1.2c1.3-0.5 3.4-1.3 4.6-1.9c0.2-0.1 0.4-0.1 0.6-0.2l2.6-1.4c0.4-0.2 0.7-0.4 1-0.6l1-0.6c0.7-0.4 1.4-0.8 2-1.3c0.1-0.1 0.3-0.1 0.5-0.2c0.1-0.1 0.2-0.3 0.4-0.4l1.9 1.3c0.9 0.6 2.1 1.3 3 1.8c2.7 1.5 7.2 3.4 10.2 4.2c0.6 0.1 2.1 0.6 2.6 0.6c0 0.9 0 1.5 0 2.4c0 0.4 0 0.8 0 1.2l-0.1 1.1c0 1.2-0.3 3.2-0.5 4.4c-0.6 2.7-1.5 5.7-2.8 8.2l-1.2 2.4c-0.1 0.1-0.1 0.2-0.3 0.4l-0.6 1.1c-0.3 0.5-0.6 1-1 1.5l-4.4 5.3l-0.4 0.4c-0.1 0.1 0 0.1-0.1 0.2l-0.2 0.2c-0.2 0.2-0.3 0.2-0.4 0.3c-0.3 0.3-0.5 0.5-0.8 0.8c-1.3 1.1-2.5 2.2-4.1 3.3c-0.2 0.1-0.5 0.4-0.8 0.5c-0.9-0.4-3.2-2.3-4-3l-2-1.8c-0.1-0.2-0.1 0-0.1-0.2l-0.7-0.7c-0.5-0.4-0.8-0.8-1.2-1.3zm2.3-12h11.3c0.1 1.9-0.3 1.7 1.6 1.7c0.6 0 1.3 0.2 1.4-0.3v-5.1c0-1.4-0.3-1.7-0.8-2.7c-0.7-1.5-1.5-3.1-2.2-4.6c-0.4-0.8-1.1-1.2-2.2-1.2h-6.8c-1.1 0-1.8 0.5-2.2 1.2l-2.2 4.6c-0.5 1-0.8 1.3-0.8 2.6v5.1c0.1 0.6 0.8 0.4 1.3 0.4c2 0 1.6 0.2 1.6-1.7zm11.3-4.3c0.7-0.2 1.4 0.4 1.5 1.1c0.1 0.8-0.4 1.4-1 1.5c-1.8 0.4-2.3-2.2-0.5-2.6zm-11.7 0c0.8-0.2 1.4 0.4 1.6 1c0.1 0.9-0.4 1.5-1 1.6c-1.8 0.4-2.3-2.2-0.6-2.6zm-0.1-1.4c0.2-0.5 1.5-3 1.8-3.7c0.4-0.9 0.6-1.1 1.7-1.1h5.5c1 0.1 1.2 0.3 1.6 1.1c0.3 0.6 1.7 3.4 1.8 3.7z" /></g></svg>