<svg version="1.2" xmlns="http://www.w3.org/2000/svg" viewBox="0 0 87 98" width="87" height="98"><defs><clipPath clipPathUnits="userSpaceOnUse" id="cp1"><path d="m-160-2065h1920v7626h-1920z"/></clipPath></defs><style>.A{fill:#fbab43}</style><g clip-path="url(#cp1)"><path fill-rule="evenodd" class="A" d="m0 87.4c0-3 0.9-6.1 1.9-8.6c0.2-0.5 0.4-0.9 0.6-1.2l1.9-3.4c1-1.5 1.7-2.6 3.1-3.9l1-0.8c3-3 10.8-5.8 15-7.7l3.7-1.6c0.4-0.2 0.7-0.4 1.3-0.4c0 0.7 0.4 1.7 0.6 2.5c1.4 6.5 3 13 6 19.1l5.1 8.3c0.4 0.5 2.3 3.1 2.8 3.1c0.6 0 1.4-1 1.7-1.4c1.2-1.5 1.4-1.7 2.5-3.4l2.3-3.7c0.4-0.6 0.8-1.2 1.1-1.9c4.5-9 5.1-13.4 7.2-22.6c0.7 0.1 4.1 1.6 5 2c6.4 2.7 13.6 5.1 17.7 10.4c1.9 2.5 4 6.3 4.8 9.3c0.9 3.1 0.9 4.4 1 7v1.6c0 3.1-5.1 3.9-7.5 4.3c-4.8 0.9-20.7 3.2-26.4 3.2c-0.6 0-0.8 0.1-1.4 0.1c-0.5 0-1.1 0-1.5 0c-0.4 0.1-1.1 0.1-1.9 0.1c-0.1 0-8 0-8 0l-4.4-0.1c-0.6 0-0.7-0.1-1.3-0.1c-3.4 0-12.5-1.1-16.1-1.6c-3-0.4-11.3-1.6-14-2.4c-3.1-1.1-3.7-2-3.8-3.9zm40.5-21.3l5.4 0.1c0.8 0 1.5-0.1 1.5 0.7c0 1.8-0.8 4.4-1.2 6.1c-0.6 0.1-1 0.2-1.8 0.2h-2.2c-0.9 0-1.4-0.1-2.1-0.2c-0.2-0.9-0.5-1.8-0.7-2.8c-0.3-1.3-0.7-2.7-0.4-4c0.6 0 0.8-0.1 1.5-0.1zm1.5 21.5l-3.1-5.8c-0.4-0.7-0.2-0.8 0.1-2.3c1.5-6.3 0.4-4.2 4.1-4.7c0.7-0.1 2.2-0.1 2.8 0.2c0.6 0.3 1.2 3.6 1.4 4.5c0.3 1.4 0.5 1.5 0.1 2.3c-1.2 2.4-2.2 4.4-3.6 6.7c-0.2 0.3-0.5 0.7-0.6 1c-0.4-0.2-1-1.4-1.2-1.9zm-28.7-46.4c-0.4-0.3-0.9-1-1-1.5c-0.5-1.2-0.3-5.4-0.3-6.9c-0.1-1.2-0.2-0.5 0-2.2c0.4-3.5-1.3-7.3 2.8-9.1c1.7-0.7 1.8 0 2.1-1.5c0.2-1.5 0.8-3.4 1.3-4.6c2.1-5.3 6.6-9.8 11.6-12.4c1.1-0.5 2.2-1 3.3-1.4c4.7-1.5 5.8-1.7 10.8-1.7c6.3 0 11.8 2.4 15.7 5.1c1.2 0.8 2.4 1.8 3.3 2.7c3.1 3.1 5.1 6.5 6.2 10.8c0.4 1.3 0.2 1.4 0.4 2.1c0.1 0.5 0.3 0.5 0.6 0.6c1.6 0.3 3 0.9 3.7 2.3c0.8 1.5 0.5 5.1 0.5 6.8c0 1 0.3 0.8 0 2.2c-0.1 1.4 0.1 3.4 0 4.8c0 1.5 0 2.6-1.2 3.7c-0.5 0.5-0.8 0.7-1.5 1c-0.6 0.3-1.1 0.4-1.8 0.5c0 1.1-0.7 5.9-0.7 6c0.5 0.8 1.3 1.2 1.8 2.2c0.9 1.6 0.7 4.2-1 5.7c-1.3 1.1-2.2 1.2-3.6 1.2c-2.8 0-5.2-3.6-3.7-6.8l0.9-1.2c0.1-0.2 0.4-0.4 0.6-0.6c1-0.7 1.6-0.3 1.9-1.4c0.4-1.5 0.4-4.6 0.4-6.3c0-1.2 0.1-1.5 0.1-2.1c0-2.9 0-5.9 0-8.9c0-0.5 0-0.6 0.1-1.1v-3.3c-0.1-0.4-0.1-0.5-0.1-1c0-4.5-0.1-5.9-2.1-10c-1.2-2.4-4-5.5-6.3-7.2c-3-2.1-5.6-3.1-9.2-4c-0.6-0.2-1.2-0.3-1.9-0.4c-0.6-0.1-1.4-0.2-2-0.2c-2.1 0-4.2-0.1-6.3 0.3c-2.4 0.4-4.4 1-6.7 2.1c-1.7 0.8-3.4 1.9-4.8 3.1l-1.2 0.9c-0.2 0.2-0.4 0.3-0.5 0.6c-2.3 2.3-4 5-5 8.2c-0.7 2.3-0.8 5.2-0.8 8.2v13.3c0 1.3 0.2 1.4-0.4 1.8c-0.9 0.9-0.9 0.8-2.4 0.8c-1.7 0-2.7-0.6-3.6-1.2zm10.6-8.8c0.3-0.3 0.7-0.2 0.8-0.7c0.2-0.4 0.3-3.6 0.3-4c0-0.9-0.1-1.9 0-2.8c0-0.5 0-0.7 0-1.3c0-0.5 0-0.9 0.1-1.4c0.1-0.4 0.1-0.9 0.2-1.3c0.6-4 2.4-7.2 5.6-9.9c4-3.3 10.7-4.2 15.8-3.4c1.8 0.2 3 0.6 4.5 1.1c1.7 0.6 3.1 1.5 4.5 2.6c0.8 0.7 1.3 1.2 2.1 2.1c1.8 2.1 2.9 5.1 3.3 7.9l0.3 6.9c0 0.6 0 0.7 0 1.3c0 1.1 0 1.6 0.3 2.6c1.9 0.1 1.5 3.4 1.5 5.5c0 3.3-2.2 6.9-4.2 9.4c-0.3 0.5-0.9 1.1-1 1.6c-0.5 1.4-1 2.5-1.6 3.7c-0.4 0.7-0.7 1.1-1 1.8l-1.8 2.3c-0.7 0.6-1.3 1.3-2 1.9c-4 3-8.8 3.8-13.5 2q-1.9-0.8-3.3-2.1c-0.6-0.3-1.1-0.8-1.5-1.2q-0.4-0.4-0.7-0.7c-1.4-1.4-2.9-3.9-3.6-5.8c-0.6-1.5-0.7-2.2-1.8-3.6c-0.4-0.5-0.7-0.9-1.1-1.5c-0.8-1.2-1.4-2.1-1.9-3.5c-1.3-2.9-1-4.3-1-7.3c0-1 0.1-1.8 0.7-2.2z"/></g></svg>