<svg version="1.2" xmlns="http://www.w3.org/2000/svg" viewBox="0 0 86 83" width="86" height="83"><defs><clipPath clipPathUnits="userSpaceOnUse" id="cp1"><path d="m-160-23h1920v1080h-1920z" /></clipPath></defs><style>.s0{fill:#ffffff}.s1{fill:#ef7f1a}.s2{fill:#fefefe}.s3{fill:#042b66}.s4{fill:#ebecec}</style><g clip-path="url(#cp1)"><path class="s0" d="m32.4 21.6l-0.6-0.5l-1.2-1.3c3.6-2.1 7.9-3.3 12.5-3.3c4.5 0 8.7 1.2 12.3 3.2v0.1l-0.5 0.5l-1.3 1.3c-3.1-1.7-6.8-2.7-10.6-2.7c-3.9 0-7.5 1-10.6 2.7zm10.7-5.9c-4.8 0-9.2 1.3-13 3.5l-1.9-1.9c4.3-2.6 9.4-4.2 14.9-4.2c5.4 0 10.4 1.6 14.7 4.1l-1 1.2l-0.1 0.2c-0.2 0.2-0.4 0.4-0.6 0.7c-3.8-2.3-8.3-3.6-13-3.6zm0-3c-5.6 0-10.7 1.6-15.2 4.4l-3.6-3.7c0.6-0.4 0.5 0.1 1 0c0.8-0.2 0.4-0.6 0.6-1c0.1-0.3 0.7-0.5 1-0.6c2.5-1.5 1.4-0.2 2.5-0.6c1.1-0.3-0.8-0.5 1.9-1.5c1.9-0.7 1 0.2 2.5-0.1l0.2-0.8c0.7 0 1.2-0.2 1.9-0.4c1.9-0.4 0.6 0.5 1.8 0.4c0.9-0.3-0.6-1.1 3.5-1.1c0.3 0.3 0.2 0.3 0.4 0.6l0.8-0.1l0.2-0.5c3.2-0.2 2.9 0 3.4 0.7c0.9 0.1 0.7 0.1 1-0.4c0.8 0 1.4 0.1 2 0.2c1.2 0.2 0.9 0 1.2 0.9c2.2 0.4-0.8-1.1 4 0.5c0.2 0.6-0.1 0.7 0.4 0.8c0.7 0.3 0.6-0.1 1-0.1c0.3-0.1 1.3 0.4 1.7 0.6c1.8 0.8 0.5 0.7 1.2 1.3c0.8 0.6 0.6-0.5 1.8 0.3c0.4 0.1 1.1 0.6 1.4 0.9q-0.4 0.4-0.8 0.8q-0.6 0.6-1.3 1.3l-1.5 1.5c-4.3-2.7-9.6-4.3-15-4.3zm22.2 41.9h2.9q-0.4 0.9-1.1 1.8v-0.1c-0.4-0.3-0.9-0.8-1.2-1.1c-0.3-0.3-0.5-0.4-0.7-0.6zm3.3 0h5.5c0 0.1 0 0.2-0.1 0.3c-1.3 2.9-1.1 1.5-1.7 2.2c-0.3 0.3-0.2 0.5-0.1 0.9c0.2 0.6-0.4 1.2-0.7 1.6c-0.2 0.3-0.3 0.5-0.4 0.6l-3.7-3.5c0.4-0.7 0.9-1.4 1.2-2.1zm0.2-25.9c-0.4-0.9-1-1.8-1.6-2.8c0.6-0.5 1-1 1.5-1.5c0.7-0.7 1.4-1.4 2.1-2v-0.1c0 0.1 0 0.1 0.1 0.1c0.7 1.1-0.4 1.5 0.6 1.8c0.4 0.2 0.7 0.2 0.9 0.7c1.7 2.8 0.4 1.9 1 3.2c0.5 0.2 0.6 0 0.9 0.6zm-0.4 0h-3c-0.1-0.1-0.2-0.4-0.3-0.6c0-0.1 0-0.1 0.1-0.1l0.3-0.1l0.3-0.5c0.3-0.3 0.6-0.7 1-1l0.1-0.2c0.6 0.9 1 1.7 1.5 2.5zm-3.8 0h-0.1h0.1zm-10.1 33c0.1 0.1 0.5 0.5 0.9 0.7c0 0.2 0.1 0.4 0.3 0.6c-3.7 2.2-8 3.4-12.6 3.4c-4.7 0-9.2-1.3-12.9-3.5c0.2-0.3 0.6-0.5 0.8-0.8l0.5-0.3l0.1-0.4c0.1-0.1 0.2-0.2 0.4-0.4c3.3 1.9 7 3 11 3c4 0 7.7-1.1 10.9-2.9q0.3 0.3 0.6 0.6zm-11.4 5.4c4.7 0 9.2-1.3 13-3.6c0.7 0.7 1.3 1.3 2 2c-4.3 2.6-9.6 4.2-15 4.2c-5.7 0-10.9-1.6-15.3-4.4c0.2-0.3 0.5-0.6 0.8-0.7c0.3-0.5 0.7-0.8 1-1.2c4 2.4 8.5 3.7 13.5 3.7zm0 3c5.6 0 10.8-1.6 15.3-4.5c0.5 0.6 1 1 1.5 1.4c0.7 0.8 1.5 1.5 2.2 2.3c-1.3 0.8-0.8 0.1-1.5 0.2c-0.4 0.1-0.5 0.3-0.6 0.6c0 0.7 0.2 0.4-0.4 0.7c-0.4 0.3-1.2 0.8-1.7 0.9c-0.8 0.4-1.3-0.7-1.7 0.4c-0.3 0.8-0.8 0.8-1.7 1c-1.9 0.8-1.4-0.3-2.2 0.1c-0.8 0.5 0.5 0.7-2 1.2c-2.1 0.5-0.9-0.4-2.5-0.2c-0.3 0.6 0.1 0.7-0.8 0.8c-3.1 0.4-2.1-0.1-2.8-0.3c-0.8-0.3-0.8 0.1-1.1 0.5l-2.9-0.1c-0.1-0.4-0.1-0.7-0.7-0.7c-0.7 0-0.3 0.1-0.8 0.6l-2.8-0.5c-0.2-0.5-0.1-0.8-0.7-0.8c-1.3 0 0.6 1-3.6-0.4c-0.2-0.6 0.2-0.6-0.5-0.9c-1-0.5 0.4 0.9-2.6-0.4c-1.3-0.6-0.7-0.4-1-1.2c-1.2-0.9-0.5 0.5-2-0.4c-0.6-0.3-1.3-0.7-1.6-1.1c0.6-0.8 1.3-1.4 1.9-2c0.5-0.6 1.2-1.1 1.7-1.8c4.5 3 9.8 4.6 15.6 4.6zm-22.5-41.4h-2.9c0.4-0.8 0.9-1.6 1.4-2.4l1.8 1.8c0 0.2-0.1 0.4-0.3 0.6zm-3.4 0h-5.5c0-0.2 0-0.5 0.2-0.8c0.3-0.7 0.6-1.2 0.9-1.8c0.5-0.2 1-0.1 1-0.7c0.1-0.6-0.5-0.4 0.1-1.3c0.1-0.4 0.4-0.7 0.7-1.1c0.2-0.4 0.2-0.6 0.6-0.7c0.3 0.4 0.7 0.8 1 1.1l2.6 2.6c-0.6 0.9-1 1.8-1.6 2.7zm0.3 25.8c0.3 0.6 0.7 1.3 1.1 2l-3.8 3.6c-0.4-0.7 0-0.4 0-1c0-0.1-0.2-0.5-0.3-0.5c-0.7-0.5-0.5 0.4-1.4-1.3c-0.1-0.2-0.6-1-0.6-1.2c-0.1-0.9 0.5-0.1 0-1.3c-0.4-0.4-0.6-0.2-0.8-0.3zm0.4 0h3q-0.3 0.1-0.5 0.3c-0.2 0.1-0.3 0.2-0.4 0.4l-1 1.1c-0.4-0.7-0.7-1.3-1.1-1.8z" /><path fill-rule="evenodd" class="s1" d="m12.9 64.6c0.5-0.5 0.9-0.9 1.4-1.4l6.9-6.7c0.3-0.2 0.3-0.4 0.8-0.4c0.5-0.1 0.9-0.1 1.2-0.1c0 0-6 5.9-6.3 6.4c-2.8 3.2 1 7.5 4.6 5.1l9.7-9.7c0.3-0.3 2.2-2.3 2.5-2.3c0.2-0.1 1.3-0.1 1.6-0.1c-3.6 3.6-7.2 7.1-10.7 10.8c-1 0.8-1.9 1.7-2.8 2.6c-0.4 0.5-2.5 2.5-2.7 2.8c-0.5 0.3-0.5 0.9-0.5 1.5c0.6 3.6-1.5 7.3-4.7 8.9c-3.4 1.7-7.6 1.1-10.2-1.7q-0.9-0.9-1.6-2.1c-1.6-3.4-1.1-6.8 1.2-9.7c0.6-0.7 2.1-1.9 3.1-2.3c1.2-0.6 3.1-0.9 4.6-0.7c1.2 0 1.3-0.5 1.9-0.9zm-7.2 13.8c0.2 0.1 3.9 1.6 4.1 1.6c0.2 0 3.9-1.5 4-1.6c0.2-0.2 1.7-3.9 1.7-4c0-0.2-1.5-3.9-1.7-4.1c-0.1-0.1-3.8-1.7-4-1.7c-0.2 0-3.9 1.6-4 1.7c-0.2 0.1-1.7 4-1.7 4.1c0 0.1 1.5 3.9 1.6 4z" /><path fill-rule="evenodd" class="s1" d="m7.3 0.1c2.4-0.3 4.7 0.1 6.8 0.9c1.3 0.5 2.3 1.2 3 2c1.2 1.4 1.2 2.7 1.6 3.6c0.5 2.2 1.5 5.1 3 6.7l8.9 9l6.3 6.4h-1.4l-5.8-5.7c-1.1-1.1-2.1-2.1-3.2-3.1c-1.1-1.1-5.2-5.6-6.3-6.1c-2.6-1.1-5.4 1.1-4.8 4c0.1 0.4 0.2 0.7 0.4 1c0.4 0.5 0.5 0.6 0.7 0.8l9.1 9.1h-1.6l-6.5-6.5c-1.1-1.1-1.9-2.1-3.1-2.7c-1.5-0.7-2.8-1-4.6-0.8c-1.6 0.1-3.2-0.5-4.5-1.3c-0.4-0.2-0.8-0.5-1.2-0.8c-0.9-0.8-3.8-5.6-3.6-6.4c0.5-1.2 2.2 0.1 2.5 0.2c1.1 0.6 2 1.2 3.2 1.8c1 0.5 1.5 1.2 3.3-0.1c1.5-1.1 2.1-3.2 2.2-5.2c0-0.8-0.1-1.5-0.7-1.9l-5.3-3.1c-1.3-0.9 0.7-1.7 1.6-1.8zm-3.4 12.7c0.9 0.8 2.1 1.7 3 2.5c0.3 0.3 0.3 0.4 0.8 0.3c5.7-0.7 7.9-7.6 6.1-11.5c-0.2-0.4-0.3-0.4-0.6-0.5c-1.2-0.4-4.1-1.6-5.1-1.7c0.4 0.1 0.8 0.5 1.2 0.7c0.4 0.2 0.9 0.5 1.2 0.7l2 1c0.3 0.1 0.3 0.1 0.5 0.5c0.8 2.7-0.6 6.9-2.8 8.5c-0.5 0.3-1.7 1.2-2.6 1.2c-0.2 0-4-2.5-4.9-2.7c0.2 0.2 0.9 0.8 1.2 1z" /><path fill-rule="evenodd" class="s1" d="m67.7 5c0.4-1.1 1.1-2.5 3.1-3.6c2.2-1 4.7-1.6 7.5-1.3c1 0.1 1.3 0 1.7 0.4c1.1 1.2 0.8 0.9-2.4 2.9c-3.2 2-3.8 1.6-3 5.4c0.3 1.8 1 3.1 2.8 3.8c0.7 0.3 1 0.4 1.6 0c0.9-0.5 1.8-1 2.8-1.5c0.5-0.3 2.3-1.5 2.9-1.4c0.8 0.1 0.8 0.6 0.5 1.3c-1.7 3.5-3.1 6.9-7.7 7.6c-1 0.2-1.8 0-2.7 0c-1.1 0.1-3.1 0.7-4.1 1.3c0 0.1-0.7 0.8-1.7 1.7l-7.2 7.1h-1.5l7.8-7.7c0.3-0.4 0.6-0.7 1-1c0.4-0.5 0.7-0.6 0.9-1.1c2.2-3.2-1.7-6.9-4.8-4.7c-0.4 0.2-1.8 1.6-3.5 3.2l-11.2 11.3h-1.4l13.2-13.4c0.7-0.8 2-2 2.5-2.8c1.8-2.6 2-4.8 2.9-7.5zm10.5 9.5c-1.5-0.1-3.5-1.9-4.3-3.4c-0.9-1.6-1.6-4.2-0.9-6.3c0.1-0.5 1.6-1.1 2.3-1.5l2.4-1.4c-0.6 0-2.5 0.8-3.2 1c-2.3 0.9-2.2 0.6-2.6 1.9c-1.3 4.6 1.2 10.1 6.2 10.8c0.7 0.1 0.9-0.2 1.5-0.7c0.6-0.6 3.1-2.5 3.6-3.1c-1.2 0.3-4.5 2.7-5 2.7z" /><path fill-rule="evenodd" class="s1" d="m65 67.8c0.5 0.3 1.1 0.5 1.9 0.4c2.7-0.3 3.8-3.4 2.5-5.4c-0.6-0.9-4.5-4.5-5.6-5.7c-0.3-0.3-0.9-0.9-1.1-1.1c0.4-0.1 0.7 0 1.1 0c0.5 0.1 0.6 0.2 0.8 0.4c0.5 0.5 0.8 0.8 1.3 1.3l5.1 4.9c0.5 0.5 0.9 0.8 1.3 1.3l1.3 1.2c1.2 1 2.5-0.3 5.6 1c6.9 2.6 7.4 12.6 0.7 15.9c-5.9 3-12.8-1.4-12.7-8c0-1 0.4-1.6-0.3-2.3c-0.8-1-1.9-1.9-2.9-2.9c-0.9-1-1.9-1.9-2.9-3l-10.4-10.4c1.8 0 1.4-0.2 2.3 0.7c0.5 0.5 0.9 1 1.5 1.5c1.2 1.2 9.6 9.8 10.5 10.2zm7.1 10.6c0.2 0.1 3.9 1.6 4 1.6c0.2 0 3.9-1.5 4-1.6c0.2-0.2 1.7-3.8 1.7-4c0-0.2-1.5-3.9-1.7-4.1c-0.1-0.1-3.8-1.7-4-1.7c-0.1 0-3.8 1.6-3.9 1.7c-0.2 0.1-1.8 3.9-1.8 4.1c0 0.1 1.6 3.9 1.7 4z" /><path class="s1" d="m27.6 28.7l-8.2-8.2c-0.7-0.5-2.5-2.1-2.7-3.1c-0.3-1.7 1.3-3.1 3-2.3c0.6 0.4 6.4 6.3 7.3 7.2c2.2 2.2 4.4 4.3 6.5 6.4z" /><path class="s1" d="m52.5 28.7l13.3-13.2c0.8-0.8 2.1-0.7 2.8 0c0.7 0.7 0.8 2 0.1 2.8c-0.6 0.8-5.1 5.2-5.9 6c-1.4 1.4-2.7 2.7-4 4c-0.2 0.2-0.3 0.4-0.4 0.4z" /><path class="s1" d="m30 57.1c-0.6 0.7-1.1 1.1-1.6 1.6c-1.1 1.1-7.4 7.6-8.1 7.9c-1.9 0.9-3.7-1.1-2.7-2.8c0.3-0.6 1-1.3 1.5-1.6c0.3-0.5 6.1-6.3 6.4-6.4l6.1-0.3c-0.3 0.4-1.3 1.3-1.6 1.6z" /><path class="s1" d="m55.4 56.6c-0.2-0.3-0.8-0.7-1-1.1l4.1 0.1c2.4 0.3 1.6-0.1 3 1.3l4.3 4.2q1.1 1.1 2.1 2.1c2.1 2.2-0.9 5-3 3c-3.2-3.1-6.3-6.4-9.5-9.6z" /><path class="s1" d="m69.2 9.1v0.4c-0.2 0.1-0.4 0.3-0.8 0.1c-0.1-0.5 0.3-0.6 0.8-0.5z" /><path class="s0" d="m45.5 22.1c0.9-0.3 3.6 0.6 6 1.8l-0.5 0.3c-0.6 0.7-1.2 1.4-1.8 2c-0.4 0.3-0.7 0.7-0.9 1h-0.1l-0.6 0.6c-0.7-0.4-1.6-0.6-2.2-0.6c0-1.2-0.2-4.2 0.1-5.1zm13.5 9c1.3 0.5 4.1 10.7 2.7 12.1c-0.6 0.3-4.4-0.7-5.4-1c-0.1-1.5-0.1-2.9-0.5-4.3c-0.2-0.7-0.4-1.2-0.5-1.8c-0.3-0.6-0.7-1.3-0.7-1.8c0.7-0.5 3.9-3.3 4.4-3.2zm-2.8 15.9l3.7 0.8c0.7 0.1 0.9 0.1 1 0.4c0.3 0.6-0.9 2.7-2.4 4.5h-6.2c-0.1-0.1-0.1-0.2-0.2-0.2c1.1-0.7 3.7-3.8 4.1-5.5zm-9.4 8.2c0.4 0.8 2.1 3.8 2.1 4.6c-1.4 1.2-10 1.6-11.5 0.3c-0.3-0.5 1.7-4.5 1.9-4.7c2.8 0.5 4.7 0.6 7.5-0.2zm-19.8-2.5c-0.9-1.2-2.2-3.1-2.1-4c0.4-0.2 3.9-1.1 4.7-1.2c0.4 0.4 0.7 1.1 1 1.6c0.3 0.5 0.8 1.1 1.1 1.5c0.6 0.5 1.5 1.6 2.3 2.1zm-2.8-8.5c-1.1-1.6 0.4-7.8 1.3-10.2c1.5-3.8 1.1-2.9 5.9 0.8c-0.2 0.6-0.6 1.1-0.8 1.7c-0.2 0.6-0.4 1.3-0.6 2c-0.3 1.5-0.5 3-0.4 4.6c-0.6 0.2-4.7 1.3-5.4 1.1zm10.2-20.6c2.1-1 4.3-1.8 5.4-1.5c0.2 1 0.2 3.8 0.2 5.1c-0.7 0-1.3 0.1-1.8 0.3z" /><path class="s2" d="m84.5 35.5v12.4c-1.4 0-2.6 0.5-3.6 1.4c-0.9 0.9-1.4 2.1-1.4 3.5h-73.1c0-2.7-2.2-4.9-4.9-4.9v-12.4c1.3 0 2.6-0.6 3.4-1.4c0.9-0.9 1.5-2.2 1.5-3.6h73.1c0 2.8 2.2 5 5 5z" /><path class="s3" d="m82.8 46.3c-2.3 0.7-4.1 2.5-4.7 4.8h-70.2c-0.7-2.3-2.5-4.1-4.8-4.8v-9.4c2.3-0.5 4.1-2.4 4.8-4.7h70.2c0.6 2.3 2.4 4.2 4.7 4.7z" /><path fill-rule="evenodd" class="s2" d="m61.2 46.9c-0.8 0-1.3-0.2-1.8-0.6c-0.3-0.5-0.6-1.1-0.6-2v-7.3l1.6-0.5v8c0 0.3 0.1 0.5 0.3 0.7c0.1 0.2 0.3 0.3 0.6 0.3q0.4 0 0.5-0.3c0.2-0.2 0.3-0.4 0.3-0.7v-7.5l1.5-0.5v7.8c0 0.9-0.2 1.5-0.6 2c-0.4 0.4-1 0.6-1.8 0.6zm-5.8 0c-0.8 0-1.3-0.2-1.7-0.6c-0.5-0.5-0.6-1.1-0.6-2v-5.3c0-0.9 0.1-1.5 0.6-1.9c0.4-0.5 0.9-0.7 1.7-0.7c0.8 0 1.5 0.2 1.8 0.7c0.5 0.4 0.6 1 0.6 1.9v0.4l-1.5 0.4v-1c0-0.6-0.2-0.9-0.8-0.9c-0.6 0-0.9 0.3-0.9 0.9v5.7c0 0.6 0.3 1 0.9 1c0.6 0 0.8-0.4 0.8-1v-2h-0.8v-0.8l2.3-0.7v3.3c0 0.9-0.1 1.5-0.6 2c-0.3 0.4-1 0.6-1.8 0.6zm9.3-10.4h2.4c0.8 0 1.4 0.2 1.8 0.6c0.4 0.4 0.6 1 0.6 1.8v0.6c0 1.1-0.3 1.7-1.1 2.1c0.4 0.1 0.8 0.3 0.8 0.7c0.2 0.3 0.3 0.9 0.3 1.4c0 0.3 0 2.4 0 2.6c0.1 0.1 0.1 0.3 0.2 0.5h-1.6c-0.1-0.2-0.2-0.4-0.2-0.5q0-0.2 0-0.8v-1.9c0-0.4-0.1-0.8-0.2-1c-0.1-0.1-0.4-0.2-0.8-0.2h-0.6v3.9l-1.6 0.5zm2.2 4.4c0.3 0 0.6-0.1 0.8-0.3c0.1-0.1 0.2-0.4 0.2-0.8v-0.7c0-0.5-0.1-0.8-0.2-0.8c-0.1-0.2-0.3-0.3-0.6-0.3h-0.8v2.9zm6 5.9c-0.8 0-1.4-0.1-1.7-0.6c-0.5-0.4-0.6-1-0.6-1.9v-7.4l1.5-0.4v8c0 0.3 0.1 0.5 0.2 0.7c0.2 0.1 0.4 0.2 0.6 0.2c0.3 0 0.6-0.1 0.7-0.2c0.1-0.2 0.2-0.4 0.2-0.7v-7.6l1.5-0.4v7.8c0 0.9-0.1 1.5-0.6 1.9c-0.4 0.5-1 0.6-1.8 0.6z" /><path fill-rule="evenodd" class="s2" d="m13 46.9c-0.8 0-1.4-0.2-1.8-0.6c-0.4-0.5-0.6-1.1-0.6-2v-5.3c0-0.9 0.2-1.5 0.6-1.9c0.4-0.5 1-0.7 1.8-0.7c0.8 0 1.3 0.2 1.8 0.7c0.3 0.4 0.6 1 0.6 1.9v0.4l-1.5 0.4v-1c0-0.6-0.4-0.9-0.9-0.9c-0.5 0-0.8 0.3-0.8 0.9v5.7c0 0.6 0.3 1 0.8 1c0.5 0 0.9-0.4 0.9-1v-2h-0.8v-0.8l2.3-0.7v3.3c0 0.9-0.3 1.5-0.6 2c-0.5 0.4-1 0.6-1.8 0.6zm29.1 0c-0.7 0-1.3-0.2-1.8-0.6c-0.3-0.5-0.6-1.1-0.6-2v-5.3c0-0.9 0.3-1.5 0.6-1.9c0.5-0.5 1.1-0.7 1.8-0.7c0.8 0 1.4 0.2 1.8 0.7c0.4 0.4 0.6 1 0.6 1.9v0.4l-1.5 0.4v-1c0-0.6-0.3-0.9-0.8-0.9c-0.6 0-0.8 0.3-0.8 0.9v5.7c0 0.6 0.2 1 0.8 1c0.5 0 0.8-0.4 0.8-1v-2h-0.8v-0.8l2.3-0.7v3.3c0 0.9-0.2 1.5-0.6 2c-0.4 0.4-1 0.6-1.8 0.6zm-24.5-10.4h2.2l1.7 10.3l-1.6-0.5l-0.4-1.5h-1.7l-0.4 1.5l-1.4 0.5zm1.8 6.8l-0.7-5l-0.7 5zm4.1-6.8h2.2l1.7 10.3l-1.6-0.5l-0.3-1.6h-1.8l-0.4 1.6l-1.4 0.5zm1.8 6.8l-0.7-5.1l-0.7 5.1zm2.8-6.8h2.4c0.9 0 1.5 0.1 1.8 0.6c0.4 0.3 0.6 0.9 0.6 1.7v0.7c0 1-0.4 1.6-1.1 2c0.5 0.1 0.7 0.3 0.9 0.7c0.1 0.4 0.2 0.9 0.2 1.4v1.9c0 0.2 0.1 0.5 0.1 0.7c0 0.2 0.1 0.3 0.1 0.5h-1.6c-0.1-0.2-0.1-0.3-0.1-0.5c-0.1-0.1-0.1-0.4-0.1-0.8v-1.9c0-0.4-0.1-0.8-0.2-0.9q-0.3-0.3-0.8-0.3h-0.5v3.4l-1.7 1zm2.2 4.4c0.4 0 0.6-0.1 0.7-0.2c0.2-0.2 0.3-0.5 0.3-0.9v-0.7c0-0.5-0.1-0.7-0.2-0.8c-0.2-0.2-0.3-0.3-0.6-0.3h-0.7v2.9zm4.9-4.4h2.2l1.6 10.3l-1.6-0.5l-0.2-1.6h-1.9l-0.2 1.6l-1.5 0.5zm1.7 6.8l-0.7-5.1h-0.1l-0.7 5.1zm8.5-6.8h4.4l-0.4 1.5h-2.4v2.6h2.2l-0.4 1.5h-1.8v3.1h2.8l-0.4 1.5h-4z" /><path class="s4" d="m6.4 40.3q0.4 0 0.8 0.3l-1.9 1.8c-0.1-0.2-0.2-0.5-0.2-0.7c0-0.7 0.5-1.4 1.3-1.4zm1 0.6q0.3 0.4 0.3 0.8c0 0.7-0.6 1.2-1.3 1.2c-0.3 0-0.6-0.1-0.8-0.2z" /><path class="s4" d="m79.5 40.3q0.5 0 0.8 0.3l-1.8 1.8c-0.1-0.2-0.2-0.5-0.2-0.7c0-0.7 0.5-1.4 1.2-1.4zm1.1 0.6q0.2 0.4 0.2 0.8c0 0.7-0.6 1.2-1.3 1.2c-0.3 0-0.5-0.1-0.7-0.2z" /><path fill-rule="evenodd" class="s0" d="m22.9 72.8l0.3 0.2l-0.7 1.9l1.5-1.3l0.3 0.2l-0.5 1.9l1.4-1.4l0.3 0.2l-1.8 1.6l-0.3-0.2l0.6-1.9l-1.5 1.3l-0.3-0.2zm3.5 3.4l-1-0.5l-0.6 1l-0.2-0.2l1-2l0.3 0.1l-0.4 0.8l1 0.6l0.5-0.9l0.2 0.1l-1 2.1l-0.3-0.2zm2.2-0.1l-0.9-0.4l-0.2 0.7l0.7 0.4l-0.1 0.2l-0.8-0.3l-0.3 0.7l0.9 0.3l-0.1 0.3l-1.1-0.5l0.8-2.2l1.2 0.6zm1.1 0.2c0.5 0.2 0.7 0.6 0.5 0.9c-0.1 0.3-0.4 0.5-0.7 0.5l0.2 1l-0.4-0.1l-0.2-1l-0.3-0.2l-0.3 0.9l-0.3-0.1l0.8-2.2zm-0.1 0.3l-0.4-0.2l-0.3 0.9h0.4c0.3 0.2 0.5 0 0.6-0.1c0.1-0.3 0-0.6-0.3-0.6zm2.3 0.7l-0.9-0.2l-0.3 0.7l0.9 0.3l-0.1 0.2l-0.8-0.2l-0.3 0.7l0.9 0.2l-0.1 0.3l-1.1-0.4l0.7-2.2l1.1 0.4zm1.1 0l0.4 0.1l0.2 1.3l0.8-1l0.4 0.1l-1.1 1.2l-0.2 0.8h-0.3l0.2-0.9zm2.5 3c-0.7-0.1-1-0.7-0.9-1.4c0.1-0.7 0.8-1 1.4-0.9c0.6 0.2 1 0.7 0.9 1.4c-0.1 0.7-0.8 1.1-1.4 0.9zm0-0.3c0.6 0.1 1-0.2 1.1-0.7c0.1-0.5-0.2-1-0.6-1.1c-0.6 0-1 0.2-1.1 0.8c-0.1 0.5 0.2 0.9 0.6 1zm1.8-1.8l0.3 0.1l-0.2 1.5c0 0.4 0.2 0.6 0.5 0.7c0.4 0 0.6-0.2 0.6-0.7l0.2-1.4h0.3l-0.1 1.5c-0.1 0.6-0.5 0.8-1 0.8c-0.5-0.1-0.9-0.4-0.8-0.9zm2.9 0.2q0.7 0.2 0.7 0.8c0 0.3-0.1 0.5-0.6 0.6l0.6 1h-0.4l-0.5-1h-0.4v0.9h-0.3l0.1-2.3zm0 0.3h-0.4l-0.1 0.9h0.5c0.3 0 0.5-0.2 0.5-0.5c0-0.2-0.1-0.4-0.5-0.4zm3.1-0.2c0.6 0 0.9 0.3 1.1 0.7h-0.4c0-0.3-0.3-0.4-0.7-0.4c-0.4 0-0.8 0.3-0.8 0.9c0 0.6 0.3 0.9 0.8 0.9c0.4 0 0.6-0.1 0.7-0.4h0.4c-0.2 0.4-0.5 0.7-1.1 0.7c-0.6 0-1.1-0.5-1.1-1.2c0-0.7 0.5-1.2 1.1-1.2zm2.9 1.8h-1l-0.2 0.5h-0.3l0.8-2.3h0.3l0.9 2.2h-0.3zm-0.5-1.4l-0.3 1.2h0.7zm2-0.6c0.5-0.1 0.9 0.2 0.9 0.6c0 0.3-0.1 0.6-0.6 0.7l0.8 0.9h-0.4l-0.6-0.9h-0.4l0.1 1h-0.3l-0.2-2.3zm0 0.2l-0.5 0.1l0.1 0.9l0.5-0.1c0.3 0 0.5-0.2 0.4-0.5c0-0.2-0.2-0.4-0.5-0.4zm1.9-0.4l0.3-0.1l1.2 1.6l0.5-2l0.3-0.1l0.5 2.3h-0.4l-0.2-1.7l-0.5 1.9l-0.2 0.1l-1.1-1.6l0.3 1.7l-0.2 0.1zm4.4 0.8l-1 0.1l-0.1 0.7h-0.2l0.2-2.4l0.3-0.1l1.4 2l-0.3 0.1zm-0.8-1.2l-0.2 1.2l0.8-0.3zm1-0.7l1.5-0.4v0.2l-0.6 0.1l0.6 2.1l-0.3 0.1l-0.6-2.1l-0.6 0.2zm1.5-0.5l1.5-0.6l0.1 0.2l-0.7 0.3l0.7 1.9l-0.2 0.1l-0.7-1.9l-0.6 0.2zm3-1l-0.9 0.3l0.2 0.7l0.8-0.2l0.1 0.2l-0.8 0.3l0.4 0.7l0.9-0.3l0.1 0.2l-1.2 0.5l-0.9-2.2l1.2-0.4zm0.9-0.7c0.4-0.2 0.8-0.1 0.9 0.3c0.2 0.2 0.1 0.6-0.1 0.8l0.9 0.7l-0.3 0.1l-0.9-0.6l-0.4 0.1l0.5 0.9l-0.4 0.1l-1-2zm0.1 0.2l-0.4 0.2l0.4 0.8l0.4-0.2c0.3-0.2 0.3-0.4 0.3-0.6c-0.1-0.3-0.3-0.4-0.7-0.2zm2.7 1c-0.4 0.2-0.8 0.1-1-0.3l0.3-0.1c0.1 0.2 0.3 0.3 0.6 0.1c0.3-0.1 0.4-0.3 0.3-0.5c-0.4-0.5-1.3 0.3-1.7-0.4c-0.2-0.3 0-0.7 0.4-0.9c0.4-0.2 0.7-0.1 0.9 0.1l-0.3 0.2c0-0.2-0.2-0.2-0.5-0.1q-0.4 0.2-0.2 0.6c0.2 0.5 1.2-0.5 1.6 0.3c0.1 0.3 0 0.7-0.4 1z" /></g></svg>