<svg version="1.2" xmlns="http://www.w3.org/2000/svg" viewBox="0 0 98 98" width="98" height="98"><defs><clipPath clipPathUnits="userSpaceOnUse" id="cp1"><path d="m-896-2404h1920v4495h-1920z"/></clipPath></defs><style>.A{fill:#fbab43}</style><g clip-path="url(#cp1)"><path fill-rule="evenodd" class="A" d="m0 48.5c0-11.3 3.6-20.9 10.2-29.9l4.1-4.8c0 0 0.6 0 0.6-0.6c0.6 0 0.6 0 0.6-0.5l1.8-1.2c4.8-4.2 10.8-7.8 16.8-9.6c1.2 0 3-0.6 4.8-1.2c1.2 0 3-0.6 4.7-0.6c7.2 0 10.8-0.6 18 1.2c4.8 1.8 9 3.6 13.1 6.6c3 1.8 3 1.8 6 4.2c3 2.3 6 6.5 8.4 9.5c9 13.8 10.7 32.3 3.6 47.3l-1.8 4.1c-1.8 3.6-4.8 7.2-7.8 10.2c-6.6 6.6-14.3 10.8-23.3 13.2c-5.4 1.2-11.4 1.7-16.8 1.2c-11.3-1.8-17.3-4.8-25.7-11.4l-4.7-4.2c-1.2-1.2-3-4.2-4.2-5.4c0-0.6 0-0.6-0.6-1.2c-1.8-3-1.8-3.6-3.6-6.5c-3-6-4.2-13.8-4.2-20.4zm22.7 27.5c0 0 0 0 0 0.6c0.6 0 2.4 1.8 3 1.8c3.6 3.6 10.8 6.6 15.6 7.2c5.3 1.2 11.3 1.2 16.7-0.6c2.4-0.6 4.8-1.2 7.2-2.4c0.6 0 0.6-0.6 1.2-0.6c1.2-0.6 3.6-2.4 4.2-3c1.1-0.6 4.7-3.6 5.3-4.8c0.6-0.6 0.6-0.6 0.6-0.6c0.6-0.6 0.6-0.6 1.2-1.2c1.2-1.8 2.4-3.5 3.6-5.9c4.2-7.8 6-17.4 3.6-26.3c-0.6-3-1.2-4.8-2.4-7.2c-1.8-4.2-3-5.4-4.8-7.8c-0.6-0.6-0.6-0.6-0.6-0.6l-3-3c-1.8-1.2-1.8-2.4-4.1-3.6c-2.4-1.8-3.6-2.4-6-3.6c-0.6 0-1.2-0.6-1.8-0.6q-2.7-0.9-5.4-1.7c-1.2-0.6-2.4-0.6-4.2-0.6c-1.2 0-2.4 0-4.2-0.6c-3 0-10.7 1.8-13.7 2.9c0 0-0.6 0-1.2 0.6c-5.4 1.8-9.6 6-13.2 9.6l-2.4 3c-1.8 2.4-3.6 6-4.7 9c-2.4 7.7-3 16.7 0 24.5c1.1 4.8 2.9 7.8 6.5 11.9c0 0.6 1.8 2.4 1.8 2.4c0.6 0 0.6 0.6 1.2 1.2zm22.1-48.4c0.6-1.8 3.6-3 6-0.6c0 0.6 0.6 1.8 0.6 3v17.9h13.2c1.2 0 2.4 0 3 0.6c1.8 0.6 1.8 4.2 0 5.4c-1.2 1.2-10.8 0.6-12 0.6c-2.4 0-6 0-8.4 0c-2.4-0.6-3-1.2-3-5.4v-16.7c0-1.2 0-4.2 0.6-4.8z"/></g></svg>